<svg width="125" height="125" viewBox="0 0 125 125" fill="none" xmlns="http://www.w3.org/2000/svg">
<rect width="125" height="125" rx="20" fill="#262B63"></rect>
<path d="M13.8281 96V95.6094L18.75 85.9609H13.9062V84.5547H20.8984V84.9453L15.9609 94.5938H21.0703V96H13.8281ZM22.6094 98.2891L23.4141 97.1016C24.2786 97.6797 25.0755 97.9688 25.8047 97.9688C26.4766 97.9688 27.0052 97.8516 27.3906 97.6172C27.7812 97.388 27.9766 97.1016 27.9766 96.7578C27.9766 96.0807 27.487 95.7422 26.5078 95.7422C26.3411 95.7422 26.0391 95.7839 25.6016 95.8672C25.1641 95.9505 24.8229 95.9922 24.5781 95.9922C23.3906 95.9922 22.7969 95.5443 22.7969 94.6484C22.7969 94.3724 22.9349 94.1224 23.2109 93.8984C23.4922 93.6745 23.8385 93.513 24.25 93.4141C23.0729 92.862 22.4844 91.9036 22.4844 90.5391C22.4844 89.6641 22.7891 88.9349 23.3984 88.3516C24.0078 87.7682 24.7604 87.4766 25.6562 87.4766C26.4792 87.4766 27.1224 87.6458 27.5859 87.9844L28.3281 87.0938L29.2969 88.0078L28.4062 88.6797C28.7865 89.1745 28.9766 89.8203 28.9766 90.6172C28.9766 91.4609 28.7135 92.1693 28.1875 92.7422C27.6615 93.3151 26.9714 93.6432 26.1172 93.7266L24.8906 93.8516C24.7448 93.8672 24.5495 93.9245 24.3047 94.0234C24.0599 94.1172 23.9375 94.2422 23.9375 94.3984C23.9375 94.612 24.1927 94.7188 24.7031 94.7188C24.9271 94.7188 25.276 94.6797 25.75 94.6016C26.224 94.5182 26.5755 94.4766 26.8047 94.4766C27.6276 94.4766 28.2682 94.6745 28.7266 95.0703C29.1901 95.4609 29.4219 96.0052 29.4219 96.7031C29.4219 97.474 29.0755 98.0964 28.3828 98.5703C27.6953 99.0443 26.8229 99.2812 25.7656 99.2812C25.224 99.2812 24.6536 99.1849 24.0547 98.9922C23.4557 98.7995 22.974 98.5651 22.6094 98.2891ZM25.7578 88.6719C25.2422 88.6719 24.8203 88.8542 24.4922 89.2188C24.1693 89.5833 24.0078 90.026 24.0078 90.5469C24.0078 91.1302 24.1641 91.6146 24.4766 92C24.7943 92.3802 25.2214 92.5703 25.7578 92.5703C26.2839 92.5703 26.6953 92.3854 26.9922 92.0156C27.2891 91.6406 27.4375 91.151 27.4375 90.5469C27.4375 90.026 27.276 89.5833 26.9531 89.2188C26.6354 88.8542 26.237 88.6719 25.7578 88.6719ZM31.1094 93.6328V90.6484L30.2734 91.2266V90.1016L31.1094 89.5391V84.2031H32.5938V88.5391C32.7188 88.4557 33.0807 88.2214 33.6797 87.8359V88.8594L32.5938 89.6172V93.3828C32.5938 93.8307 32.7214 94.1849 32.9766 94.4453C33.237 94.7005 33.5755 94.8281 33.9922 94.8281V96.1562C32.0703 96.1562 31.1094 95.3151 31.1094 93.6328ZM35.1641 91.7969C35.1641 90.5052 35.5104 89.4635 36.2031 88.6719C36.901 87.875 37.8177 87.4766 38.9531 87.4766C40.151 87.4766 41.0807 87.8594 41.7422 88.625C42.4036 89.3854 42.7344 90.4427 42.7344 91.7969C42.7344 93.1458 42.3958 94.2109 41.7188 94.9922C41.0417 95.7682 40.1198 96.1562 38.9531 96.1562C37.7604 96.1562 36.8307 95.763 36.1641 94.9766C35.4974 94.1901 35.1641 93.1302 35.1641 91.7969ZM36.7266 91.7969C36.7266 93.8958 37.4688 94.9453 38.9531 94.9453C39.6458 94.9453 40.1875 94.6641 40.5781 94.1016C40.974 93.5391 41.1719 92.7708 41.1719 91.7969C41.1719 89.724 40.4323 88.6875 38.9531 88.6875C38.276 88.6875 37.7344 88.9635 37.3281 89.5156C36.9271 90.0677 36.7266 90.8281 36.7266 91.7969ZM43.7578 95.5L44.2812 94.0938C45.1094 94.6354 45.776 94.9062 46.2812 94.9062C47.1979 94.9062 47.6562 94.5208 47.6562 93.75C47.6562 93.1979 47.2135 92.724 46.3281 92.3281C45.6458 92.0156 45.1849 91.7786 44.9453 91.6172C44.7109 91.4557 44.5052 91.2734 44.3281 91.0703C44.1562 90.862 44.026 90.6432 43.9375 90.4141C43.8542 90.1797 43.8125 89.9297 43.8125 89.6641C43.8125 88.9766 44.0625 88.4401 44.5625 88.0547C45.0625 87.6693 45.7161 87.4766 46.5234 87.4766C47.1328 87.4766 47.901 87.6693 48.8281 88.0547L48.4062 89.4297C47.8177 88.9609 47.2266 88.7266 46.6328 88.7266C46.2786 88.7266 45.9792 88.8099 45.7344 88.9766C45.4948 89.1432 45.375 89.3542 45.375 89.6094C45.375 90.1458 45.6797 90.5521 46.2891 90.8281L47.3516 91.3125C48.0026 91.6094 48.4766 91.9479 48.7734 92.3281C49.0703 92.7083 49.2188 93.1849 49.2188 93.7578C49.2188 94.5078 48.9557 95.0964 48.4297 95.5234C47.9036 95.9453 47.1745 96.1562 46.2422 96.1562C45.362 96.1562 44.5339 95.9375 43.7578 95.5ZM48.3594 83.3594L46.5938 85.9609H45.5L46.8203 83.3594H48.3594ZM57.1016 95.5391V99.2812H55.6172V87.6328H57.1016V88.3203C57.6641 87.7578 58.3438 87.4766 59.1406 87.4766C60.3281 87.4766 61.2526 87.8464 61.9141 88.5859C62.5755 89.3255 62.9062 90.4089 62.9062 91.8359C62.9062 93.1068 62.5729 94.1458 61.9062 94.9531C61.2396 95.7552 60.276 96.1562 59.0156 96.1562C58.6615 96.1562 58.2812 96.0938 57.875 95.9688C57.474 95.8438 57.2161 95.7005 57.1016 95.5391ZM57.1016 89.4375V94.3125C57.1953 94.4531 57.3932 94.5885 57.6953 94.7188C57.9974 94.8438 58.2917 94.9062 58.5781 94.9062C60.4219 94.9062 61.3438 93.8646 61.3438 91.7812C61.3438 90.724 61.125 89.9505 60.6875 89.4609C60.25 88.9714 59.5495 88.7266 58.5859 88.7266C58.3776 88.7266 58.1224 88.7995 57.8203 88.9453C57.5182 89.0911 57.2786 89.2552 57.1016 89.4375ZM69.0859 89.0625C68.763 88.8385 68.4375 88.7266 68.1094 88.7266C67.5833 88.7266 67.1224 88.9688 66.7266 89.4531C66.3359 89.9375 66.1406 90.5208 66.1406 91.2031V96H64.6562V87.6328H66.1406V88.9688C66.6823 87.974 67.487 87.4766 68.5547 87.4766C68.8203 87.4766 69.2031 87.5234 69.7031 87.6172L69.0859 89.0625ZM70.2109 91.7969C70.2109 90.5052 70.5573 89.4635 71.25 88.6719C71.9479 87.875 72.8646 87.4766 74 87.4766C75.1979 87.4766 76.1276 87.8594 76.7891 88.625C77.4505 89.3854 77.7812 90.4427 77.7812 91.7969C77.7812 93.1458 77.4427 94.2109 76.7656 94.9922C76.0885 95.7682 75.1667 96.1562 74 96.1562C72.8073 96.1562 71.8776 95.763 71.2109 94.9766C70.5443 94.1901 70.2109 93.1302 70.2109 91.7969ZM71.7734 91.7969C71.7734 93.8958 72.5156 94.9453 74 94.9453C74.6927 94.9453 75.2344 94.6641 75.625 94.1016C76.0208 93.5391 76.2188 92.7708 76.2188 91.7969C76.2188 89.724 75.4792 88.6875 74 88.6875C73.3229 88.6875 72.7812 88.9635 72.375 89.5156C71.974 90.0677 71.7734 90.8281 71.7734 91.7969ZM80.6172 95.3984L80.0938 96.1562H79.3516V84.2031H80.8359V88.25C80.9766 88.0573 81.2396 87.8802 81.625 87.7188C82.0156 87.5573 82.3984 87.4766 82.7734 87.4766C83.9193 87.4766 84.8464 87.8724 85.5547 88.6641C86.2682 89.4557 86.625 90.4557 86.625 91.6641C86.625 93.0599 86.2682 94.1589 85.5547 94.9609C84.8411 95.7578 83.875 96.1562 82.6562 96.1562C82.2604 96.1562 81.8698 96.0833 81.4844 95.9375C81.1042 95.7865 80.8151 95.6068 80.6172 95.3984ZM80.8359 89.3828V94.2109C80.8359 94.2943 81.0208 94.4323 81.3906 94.625C81.7604 94.8125 82.0417 94.9062 82.2344 94.9062C83.2448 94.9062 83.9688 94.6641 84.4062 94.1797C84.8438 93.6953 85.0625 92.8828 85.0625 91.7422C85.0625 90.7943 84.8073 90.0547 84.2969 89.5234C83.7865 88.9922 83.099 88.7266 82.2344 88.7266C82.0521 88.7266 81.7969 88.8047 81.4688 88.9609C81.1458 89.1172 80.9349 89.2578 80.8359 89.3828ZM88.3906 93.6328V84.2031H89.875V93.3828C89.875 93.8307 90.0026 94.1849 90.2578 94.4453C90.5182 94.7005 90.8568 94.8281 91.2734 94.8281V96.1562C89.3516 96.1562 88.3906 95.3151 88.3906 93.6328ZM100.039 91.9609H94.0078C94.0078 92.9401 94.276 93.6927 94.8125 94.2188C95.2865 94.6771 95.8958 94.9062 96.6406 94.9062C97.4896 94.9062 98.1979 94.6589 98.7656 94.1641L99.3906 95.2344C99.1615 95.4635 98.8099 95.6615 98.3359 95.8281C97.7422 96.0469 97.0807 96.1562 96.3516 96.1562C95.2995 96.1562 94.4062 95.7995 93.6719 95.0859C92.8542 94.2995 92.4453 93.2422 92.4453 91.9141C92.4453 90.5339 92.8646 89.4271 93.7031 88.5938C94.4531 87.849 95.3411 87.4766 96.3672 87.4766C97.5599 87.4766 98.4948 87.8125 99.1719 88.4844C99.8281 89.1302 100.156 89.987 100.156 91.0547C100.156 91.3828 100.117 91.6849 100.039 91.9609ZM96.4375 88.7266C95.776 88.7266 95.2214 88.9401 94.7734 89.3672C94.3464 89.7734 94.1042 90.2786 94.0469 90.8828H98.6797C98.6797 90.2839 98.4922 89.7839 98.1172 89.3828C97.7057 88.9453 97.1458 88.7266 96.4375 88.7266ZM111.414 96V90.7031C111.414 89.3854 110.844 88.7266 109.703 88.7266C109.344 88.7266 109.008 88.8385 108.695 89.0625C108.383 89.2812 108.169 89.5312 108.055 89.8125V96H106.57V90.0547C106.57 89.6432 106.414 89.3203 106.102 89.0859C105.794 88.8464 105.385 88.7266 104.875 88.7266C104.578 88.7266 104.26 88.8411 103.922 89.0703C103.589 89.2995 103.352 89.5521 103.211 89.8281V96H101.727V87.6328H102.695L103.188 88.6016C103.76 87.8516 104.477 87.4766 105.336 87.4766C106.534 87.4766 107.372 87.849 107.852 88.5938C108.018 88.276 108.328 88.0104 108.781 87.7969C109.234 87.5833 109.701 87.4766 110.18 87.4766C111.044 87.4766 111.714 87.7344 112.188 88.25C112.661 88.7604 112.898 89.4792 112.898 90.4062V96H111.414Z" fill="white"></path>
<g clip-path="url(#clip0_5454_3434)">
<path d="M58.9504 31.58C58.9406 31.5392 58.9328 31.4984 58.923 31.4595C58.827 31.1017 58.7173 30.7673 58.6096 30.4154C58.5038 30.0635 58.402 29.696 58.3726 29.2585C58.3726 29.0972 58.3628 28.9416 58.3844 28.7375C58.4039 28.5567 58.4314 28.4108 58.4627 28.2572C58.5215 27.9559 58.59 27.6701 58.6664 27.4134C58.5567 27.7128 58.4568 28.0259 58.3824 28.3758C58.3628 28.4633 58.3471 28.5528 58.3354 28.648C58.3236 28.7472 58.3138 28.8833 58.3197 28.9766C58.3236 29.1847 58.3491 29.3635 58.3785 29.5424C58.4999 30.2404 58.6664 30.8587 58.8016 31.5159C58.6488 31.4381 58.5097 31.3253 58.4392 31.1562C58.308 30.7304 58.1885 30.3182 58.0906 29.871C58.1337 29.8593 58.2179 29.8379 58.259 29.8263C58.2022 29.6785 58.1572 29.521 58.1239 29.3538C58.0925 29.1827 58.069 29.0097 58.0808 28.7822C58.0866 28.6578 58.1023 28.58 58.116 28.4944C58.1317 28.4128 58.1493 28.3331 58.1689 28.2553C58.2081 28.1017 58.2531 27.9559 58.3001 27.8178C58.3942 27.5378 58.494 27.2754 58.5763 27.0109C58.6566 26.7485 58.7232 26.4801 58.7369 26.2235C58.7056 26.2507 58.6762 26.2235 58.6507 26.2079C58.6272 26.1963 58.6096 26.1924 58.592 26.2527C58.6096 26.1924 58.6272 26.1943 58.6507 26.2079C58.5352 26.696 58.353 27.2151 58.1944 27.7712C58.1552 27.9131 58.1141 28.055 58.0788 28.2106C58.0436 28.37 58.0103 28.51 57.9907 28.7258C57.9613 29.1924 58.022 29.4977 58.0769 29.8205C58.0259 29.5735 57.9789 29.3247 57.9613 29.0116C57.9495 28.8755 57.9652 28.6247 57.9828 28.5197C58.0005 28.3836 58.024 28.2572 58.0494 28.1367C58.1532 27.6564 58.2825 27.2345 58.4039 26.8262C58.6644 25.9902 58.7957 25.3875 58.6253 24.8994C58.6116 24.8547 58.5783 24.7653 58.5567 24.7167C58.5979 24.4756 58.5019 24.2287 58.3511 24.0109C58.5704 23.9467 58.782 23.4587 59.019 23.9895C59.0562 23.9662 59.1326 23.9215 59.1698 23.9001C59.111 23.5929 59.1561 23.3032 59.2873 23.136C59.4185 22.9726 59.6359 22.926 59.8984 23.1612C60.1785 23.4295 60.4429 23.8631 60.5859 24.425C60.7347 24.9869 60.7054 25.5994 60.6584 26.0971C60.6388 26.2818 60.6094 26.4588 60.5741 26.6337C60.5389 26.8029 60.4997 26.9565 60.4566 27.1062C60.3724 27.4017 60.2705 27.6759 60.153 27.9306C60.0688 28.1056 59.9963 28.2825 59.9434 28.4536C59.916 28.5392 59.8945 28.6208 59.8749 28.6986L59.8416 28.858C59.8318 28.9611 59.8436 29.1361 59.8651 29.313C59.8866 29.4919 59.9121 29.6805 59.9297 29.8729C59.9748 30.149 60.2803 30.5496 60.2196 30.7226C60.202 30.8373 60.1197 30.8801 60.0179 30.9112C59.8377 30.4835 59.6732 30.0382 59.5654 29.6027C59.5145 29.3363 59.4832 29.0563 59.5067 28.8561C59.5204 28.7958 59.5537 28.6539 59.5928 28.5392C59.6359 28.4167 59.6829 28.2922 59.7378 28.1639C59.6751 28.2864 59.6222 28.4069 59.5772 28.5294C59.5576 28.5878 59.5341 28.6519 59.5204 28.7083C59.5125 28.7355 59.5027 28.7705 59.4988 28.7919L59.4851 28.8522C59.4616 29.0525 59.5008 29.3363 59.5654 29.6027C59.6516 30.044 59.7848 30.4951 59.9337 30.9345C59.8455 30.9559 59.7515 30.9793 59.6849 31.0415C59.6849 31.0415 59.7476 31.1737 59.7809 31.2398C59.7182 31.5975 59.4244 31.6967 59.1463 31.6442C59.0875 31.6267 59.0209 31.6073 58.9524 31.58H58.9504Z" fill="white"></path>
<path d="M47.7861 34.1079C47.7763 34.067 47.7685 34.0262 47.7587 33.9873C47.6627 33.6296 47.553 33.2952 47.4453 32.9432C47.3395 32.5913 47.2377 32.2238 47.2083 31.7864C47.2083 31.625 47.1985 31.4695 47.2201 31.2653C47.2396 31.0845 47.2671 30.9387 47.2984 30.7851C47.3572 30.4837 47.4257 30.1979 47.5021 29.9412C47.3924 30.2407 47.2925 30.5537 47.2181 30.9037C47.1985 30.9912 47.1828 31.0806 47.1711 31.1759C47.1593 31.275 47.1495 31.4111 47.1554 31.5045C47.1593 31.7125 47.1848 31.8914 47.2142 32.0702C47.3356 32.7683 47.5021 33.3865 47.6372 34.0437C47.4845 33.9659 47.3454 33.8532 47.2749 33.684C47.1437 33.2582 47.0242 32.846 46.9263 32.3988C46.9693 32.3872 47.0536 32.3658 47.0947 32.3541C47.0379 32.2063 46.9928 32.0489 46.9596 31.8817C46.9282 31.7106 46.9047 31.5375 46.9165 31.31C46.9223 31.1856 46.938 31.1078 46.9517 31.0223C46.9674 30.9406 46.985 30.8609 47.0046 30.7831C47.0438 30.6295 47.0888 30.4837 47.1358 30.3457C47.2298 30.0657 47.3297 29.8032 47.412 29.5388C47.4923 29.2763 47.5589 29.008 47.5726 28.7513C47.5413 28.7786 47.5119 28.7513 47.4864 28.7358C47.4629 28.7241 47.4453 28.7202 47.4277 28.7805C47.4453 28.7202 47.4629 28.7222 47.4864 28.7358C47.3709 29.2238 47.1887 29.7429 47.0301 30.299C46.9909 30.4409 46.9498 30.5829 46.9145 30.7384C46.8792 30.8978 46.8459 31.0378 46.8264 31.2536C46.797 31.7203 46.8577 32.0255 46.9125 32.3483C46.8616 32.1014 46.8146 31.8525 46.797 31.5395C46.7852 31.4034 46.8009 31.1525 46.8185 31.0475C46.8362 30.9114 46.8597 30.7851 46.8851 30.6645C46.9889 30.1843 47.1182 29.7624 47.2396 29.3541C47.5001 28.518 47.6314 27.9153 47.461 27.4273C47.4473 27.3826 47.414 27.2931 47.3924 27.2445C47.4335 27.0034 47.3376 26.7565 47.1868 26.5387C47.4061 26.4746 47.6177 25.9865 47.8547 26.5173C47.8919 26.494 47.9683 26.4493 48.0055 26.4279C47.9467 26.1207 47.9918 25.831 48.123 25.6638C48.2542 25.5005 48.4716 25.4538 48.7341 25.6891C49.0142 25.9574 49.2786 26.391 49.4216 26.9529C49.5704 27.5148 49.5411 28.1272 49.494 28.625C49.4745 28.8097 49.4451 28.9866 49.4098 29.1616C49.3746 29.3307 49.3354 29.4843 49.2923 29.634C49.2081 29.9296 49.1062 30.2037 48.9887 30.4584C48.9045 30.6334 48.832 30.8103 48.7791 30.9814C48.7517 31.067 48.7302 31.1487 48.7106 31.2264L48.6773 31.3859C48.6675 31.4889 48.6792 31.6639 48.7008 31.8408C48.7223 32.0197 48.7478 32.2083 48.7654 32.4008C48.8105 32.6769 49.116 33.0774 49.0553 33.2504C49.0377 33.3651 48.9554 33.4079 48.8536 33.439C48.6734 33.0113 48.5088 32.566 48.4011 32.1305C48.3502 31.8642 48.3189 31.5842 48.3424 31.3839C48.3561 31.3236 48.3894 31.1817 48.4285 31.067C48.4716 30.9445 48.5186 30.8201 48.5735 30.6917C48.5108 30.8142 48.4579 30.9348 48.4129 31.0573C48.3933 31.1156 48.3698 31.1798 48.3561 31.2361C48.3482 31.2634 48.3384 31.2984 48.3345 31.3197L48.3208 31.38C48.2973 31.5803 48.3365 31.8642 48.4011 32.1305C48.4873 32.5719 48.6205 33.023 48.7693 33.4624C48.6812 33.4838 48.5872 33.5071 48.5206 33.5693C48.5206 33.5693 48.5833 33.7015 48.6166 33.7676C48.5539 34.1254 48.2601 34.2245 47.982 34.172C47.9232 34.1545 47.8566 34.1351 47.7881 34.1079H47.7861Z" fill="white"></path>
<path d="M55.7382 41.4476C55.8028 41.3795 55.8694 41.3095 55.934 41.2415C56.2259 40.9226 56.4786 40.6213 56.6803 40.2907C56.886 39.9602 57.0524 39.5908 57.215 39.1864C57.2894 39.0036 57.3658 38.8208 57.4403 38.6361C57.4775 38.5506 57.5147 38.4631 57.5499 38.3678C57.5676 38.3211 57.5852 38.2725 57.5989 38.222C57.6126 38.1714 57.6087 38.117 57.6165 38.0626C57.6244 37.9517 57.6381 37.8331 57.6263 37.7068C57.6244 37.6718 57.6185 37.6348 57.6028 37.6037C57.5852 37.5726 57.5539 37.5648 57.5264 37.5551C57.3835 37.5395 57.2679 37.6562 57.1465 37.7534C57.0857 37.8059 57.025 37.8623 56.9604 37.9148C56.929 37.942 56.8938 37.9673 56.8585 37.9906L56.8037 38.0237L56.7665 38.0431C56.7351 38.0567 56.7077 38.0703 56.6725 38.082C56.5941 38.1053 56.5197 38.1248 56.4355 38.1384C56.3434 38.1442 56.2376 38.1442 56.1573 38.1287C56.0006 38.0995 55.8518 38.0373 55.7343 37.9576C55.4973 37.7981 55.366 37.6193 55.2564 37.4695C55.1878 37.3684 55.1193 37.2693 55.0507 37.1701C55.0037 37.106 54.9547 37.0457 54.8901 37.001C54.9547 37.0515 55.0017 37.1176 55.0448 37.1837L55.1055 37.2848C55.1388 37.3373 55.1917 37.4229 55.2426 37.4968C55.3504 37.6504 55.4816 37.8331 55.7264 37.9984C55.7832 38.0392 55.8596 38.0723 55.9282 38.1053C56.0006 38.1345 56.0829 38.1539 56.1593 38.1734C56.2494 38.187 56.3532 38.187 56.4492 38.1812C56.5314 38.1676 56.6117 38.1481 56.6901 38.1248C56.7234 38.1131 56.7528 38.0995 56.7841 38.0859L56.8194 38.0703L56.8683 38.0431C56.8997 38.0237 56.929 38.0023 56.9584 37.9809C57.0172 37.9362 57.0701 37.8895 57.123 37.8429C57.2307 37.7573 57.3325 37.6484 57.4716 37.6484C57.4971 37.6523 57.5245 37.6562 57.5441 37.6776C57.5636 37.699 57.5695 37.7262 57.5774 37.7534C57.5891 37.8079 57.5891 37.8662 57.5891 37.9206C57.5852 38.0314 57.5832 38.1403 57.5636 38.2434C57.5323 38.3445 57.4892 38.4378 57.45 38.5272L57.3874 38.6536L57.2561 38.9492L57.1073 39.2855C57.0603 39.3905 57.0133 39.4936 56.9623 39.5947C56.8625 39.7949 56.7586 39.9855 56.645 40.1624C56.4198 40.5124 56.1456 40.8196 55.8263 41.154C55.9341 40.8468 56.0731 40.5318 56.2553 40.2324C56.4962 39.8746 56.6823 39.4858 56.8781 39.0094L57.027 38.6556L57.0622 38.5681C57.0701 38.5486 57.0662 38.5603 57.0701 38.5545L57.0799 38.5428C57.0916 38.5272 57.1053 38.5078 57.1171 38.4845C57.1719 38.4592 57.2816 38.4106 57.3364 38.3873C57.3404 38.3309 57.3169 38.2764 57.3129 38.2259C57.309 38.2006 57.3031 38.1734 57.2953 38.1462C57.2914 38.1189 57.2679 38.0937 57.2366 38.0956C57.1602 38.1014 57.1112 38.1539 57.0544 38.1928C57.027 38.2142 56.9976 38.2356 56.9643 38.257C56.9486 38.2667 56.929 38.2764 56.9095 38.2842C56.8938 38.292 56.9055 38.2881 56.8017 38.3309C56.7214 38.362 56.6059 38.3873 56.506 38.4067C56.3943 38.4223 56.2533 38.4184 56.1319 38.4028C56.0339 38.3814 55.9301 38.3542 55.84 38.3173C55.6579 38.2395 55.5031 38.1306 55.3954 38.0276C55.1721 37.8156 55.0605 37.6251 54.9606 37.4715L54.9253 37.4132L54.9175 37.3976L54.8999 37.3646C54.8881 37.3432 54.8744 37.3198 54.8588 37.2984C54.8294 37.2557 54.7902 37.2168 54.7393 37.1993C54.6688 37.174 54.5924 37.2051 54.5356 37.2479C54.5042 37.2712 54.4827 37.2926 54.4494 37.3237L54.3671 37.4034L54.2261 37.5395C54.1282 37.6329 54.0048 37.7379 53.8579 37.8409C53.6973 37.942 53.5073 38.0548 53.2389 38.1014C53.1116 38.1306 52.9745 38.1267 52.8374 38.1189C52.7689 38.1151 52.7062 38.0976 52.6416 38.0839C52.575 38.0703 52.5142 38.0509 52.4555 38.0256C52.3321 37.9809 52.2342 37.9226 52.1362 37.8623L52.0735 37.8176L52.0422 37.7942H52.0383L52.0187 37.7826C52.0226 37.8195 51.9913 37.837 51.9737 37.8584L51.9835 37.8662C52.0226 37.8953 52.0598 37.9303 52.1147 37.9615C52.1656 37.9945 52.2185 38.0256 52.2714 38.0567C52.3301 38.0859 52.3928 38.1131 52.4555 38.1384C52.5162 38.1656 52.5867 38.1812 52.6553 38.1987C52.7238 38.2162 52.7924 38.2298 52.8668 38.2337C52.9393 38.2395 53.0137 38.2414 53.0862 38.2395C53.1586 38.2375 53.2272 38.2239 53.2977 38.2123C53.4446 38.1889 53.5523 38.1423 53.6698 38.0937C53.7717 38.0451 53.8677 37.9906 53.9499 37.9362C54.1066 37.8292 54.2339 37.7223 54.3319 37.629C54.4337 37.5376 54.5434 37.4287 54.5434 37.4287C54.565 37.4073 54.5767 37.3976 54.5943 37.384C54.6276 37.3587 54.6707 37.3412 54.7099 37.3529C54.7393 37.3607 54.7628 37.384 54.7824 37.4073C54.7922 37.419 54.8 37.4326 54.8078 37.4443L54.8196 37.4637L54.8235 37.4715L54.8607 37.5298C54.9645 37.6854 55.084 37.8798 55.323 38.1034C55.4405 38.2123 55.607 38.327 55.8048 38.4106C55.9027 38.4495 56.0144 38.4767 56.1221 38.5C56.2553 38.5156 56.408 38.5195 56.5275 38.5C56.6333 38.4806 56.7586 38.4514 56.8429 38.4164C56.9525 38.3698 56.9349 38.3756 56.9467 38.3698C56.9584 38.3639 56.9702 38.3581 56.98 38.3523L57.0368 38.3134C57.072 38.292 57.1014 38.2667 57.1367 38.2784C57.168 38.2881 57.1562 38.3445 57.1504 38.3736C57.1425 38.4086 57.1347 38.4398 57.123 38.465C57.1308 38.4417 57.1347 38.4145 57.1386 38.3853C57.1386 38.362 57.1465 38.3153 57.1171 38.3114C57.0838 38.3075 57.0583 38.3348 57.0289 38.3561L56.9858 38.3911C56.9858 38.3911 56.9702 38.4028 56.9604 38.4067C56.9467 38.4145 56.9741 38.4067 56.8605 38.4534C56.8252 38.4709 56.7606 38.4884 56.7058 38.502C56.649 38.5175 56.5922 38.5292 56.5354 38.5409C56.412 38.5603 56.2514 38.5584 56.1142 38.5409C56.0026 38.5195 55.889 38.4903 55.7852 38.4514C55.5795 38.3678 55.4072 38.2492 55.2857 38.1384C55.037 37.9109 54.9156 37.7126 54.8078 37.557L54.7589 37.4832C54.7589 37.4832 54.7471 37.4676 54.7412 37.4598C54.7275 37.4443 54.7119 37.4326 54.6923 37.4268C54.6648 37.419 54.6394 37.4326 54.6178 37.4501C54.5787 37.4832 54.6511 37.4209 54.3906 37.6659C54.3417 37.7126 54.2888 37.7592 54.2222 37.8137C54.1654 37.8623 54.091 37.9187 54.0126 37.9712C53.946 38.0237 53.8344 38.082 53.7423 38.1306C53.6934 38.1559 53.6268 38.1812 53.568 38.2025C53.5053 38.2239 53.4524 38.2473 53.378 38.2609C53.1038 38.3289 52.7787 38.3153 52.5103 38.2298C52.383 38.185 52.2459 38.1267 52.148 38.0626C52.0971 38.0314 52.0383 37.9965 51.9991 37.9634L51.9364 37.9128C51.9364 37.9128 51.9364 37.9128 51.9364 37.9109C51.9012 37.8837 51.8796 37.837 51.8346 37.8351C51.7895 37.8351 51.7602 37.8876 51.766 37.9284C51.766 37.9595 51.7758 37.9887 51.7837 38.0178L51.8326 38.2103L51.8973 38.4456C51.9443 38.6011 51.9913 38.7567 52.0442 38.9122C52.0971 39.0814 52.2244 39.4158 52.291 39.5811C52.4359 40.2927 52.7356 40.9634 53.1253 41.572C52.9824 41.5545 52.9177 41.7567 52.7982 41.8073C52.6846 41.8539 52.4868 41.7489 52.1597 41.0607C52.1206 41.082 52.0422 41.1229 52.005 41.1423C52.2714 41.8714 52.4163 42.4275 52.3321 42.6686C52.289 42.7833 52.195 42.828 52.0403 42.7522C51.8875 42.6783 51.6701 42.4936 51.4194 42.1592C50.9806 41.5603 50.5869 40.8118 50.2794 39.9796C50.1247 39.5636 49.9935 39.13 49.8818 38.6847L49.8426 38.5175L49.8113 38.3853L49.778 38.2356C49.7408 38.0353 49.6997 37.8331 49.6664 37.6348C49.6154 37.2382 49.6389 36.8726 49.733 36.5577C49.8348 36.2194 50.015 35.9238 50.2735 35.6827C50.5262 35.4436 50.8651 35.2744 51.2059 35.2258C51.4703 35.1908 51.7132 35.2219 51.9423 35.2939C52.1715 35.3678 52.4065 35.4941 52.6494 35.7158L52.8296 35.8966L53.0059 36.0988C53.0666 36.1669 53.1195 36.2388 53.1861 36.301L53.2252 36.3399C53.2252 36.3399 53.2311 36.3341 53.2233 36.3477C53.2056 36.371 53.1802 36.4119 53.1704 36.4216C53.1586 36.4371 53.1469 36.4527 53.1351 36.4682C53.1136 36.5013 53.092 36.5343 53.0744 36.5713C53.0588 36.6024 53.0529 36.6082 53.0431 36.6296C53.0352 36.6452 53.0255 36.6763 53.0235 36.6821C53.0235 36.6841 53.0215 36.6879 53.0196 36.6918V36.6996L53.0157 36.719C53.0157 36.719 53.0157 36.7229 53.0157 36.7268C53.0157 36.754 53.0157 36.6996 53.0078 36.6743L53.0019 36.6549L52.998 36.6452L52.9922 36.6179C52.9824 36.5829 52.9706 36.548 52.9569 36.5168L52.8531 36.3049C52.8531 36.3049 52.8531 36.3049 52.8551 36.3049L52.8707 36.2913C52.8805 36.2835 52.8942 36.2757 52.9158 36.2563C52.951 36.2291 53.0019 36.1824 53.0548 36.1338L53.3153 35.8947C53.568 35.6711 53.854 35.4611 54.1595 35.358C54.4631 35.2453 54.7922 35.2453 55.1075 35.2997C55.2387 35.3464 55.37 35.3872 55.4914 35.4494C55.6128 35.5136 55.7245 35.5952 55.8302 35.6847C56.0359 35.8636 56.2024 36.0988 56.3552 36.3419L56.412 36.4332L56.4413 36.4838L56.4903 36.5654L56.5647 36.6821C56.5647 36.6821 56.5784 36.7016 56.5843 36.7113L56.5706 36.7268L56.5197 36.789C56.4727 36.8396 56.4355 36.8863 56.4041 36.9465C56.3845 36.9757 56.3708 36.999 56.3591 37.0321C56.3591 37.036 56.3571 37.0321 56.3552 37.0399L56.3238 37.2401V37.2362L56.3258 37.2304V37.2187C56.3258 37.2187 56.3297 37.2032 56.3297 37.1954C56.3297 37.1798 56.3277 37.1662 56.3238 37.1546C56.3199 37.0924 56.3042 37.0126 56.2749 36.9543C56.2709 36.9465 56.267 36.9407 56.2631 36.929L56.2494 36.8863C56.2396 36.859 56.2298 36.8299 56.2181 36.8046L56.2004 36.7638L56.1965 36.754C56.2024 36.7677 56.1377 36.6218 56.1652 36.6841L56.1671 36.6821L56.1769 36.6743L56.2181 36.6432C56.4472 36.4663 56.692 36.2291 56.9193 36.058C56.978 36.0074 57.0309 35.9763 57.0877 35.9413C57.1406 35.9083 57.1993 35.8655 57.2503 35.8402C57.3502 35.7916 57.4559 35.7313 57.5401 35.708C57.7262 35.638 57.8751 35.6166 58.0278 35.6069C58.0651 35.6069 58.1023 35.6069 58.1395 35.6069L58.2511 35.6225C58.3295 35.6341 58.4137 35.6477 58.5116 35.6672C58.5449 35.6789 58.5861 35.7022 58.6233 35.7177L58.6507 35.7313L58.6644 35.7372C58.6644 35.7372 58.6722 35.7275 58.6585 35.7508L58.6624 35.7527L58.6683 35.7566L58.7232 35.7916C58.7956 35.8383 58.8524 35.883 58.8994 35.9394C58.9895 36.0502 59.0601 36.1727 59.1149 36.3166C59.1697 36.4585 59.207 36.6238 59.2305 36.8046C59.252 36.9796 59.2598 37.1973 59.252 37.3704C59.2403 37.5473 59.2324 37.7243 59.207 37.9148C59.1717 38.1073 59.1051 38.3095 59.0307 38.5097C58.9562 38.71 58.874 38.9064 58.7937 39.1008L58.7623 39.1728L58.7408 39.2194L58.7016 39.303L58.6213 39.4683C58.6017 39.513 58.5821 39.5597 58.5606 39.6063C58.541 39.653 58.5214 39.7016 58.5018 39.7522C58.4588 39.863 58.4137 39.9796 58.3667 40.1002C58.2707 40.3413 58.163 40.5979 58.0396 40.841C57.7928 41.3329 57.4971 41.7237 57.3247 41.8442C57.0975 42.0386 57.0172 41.9861 56.9604 41.8909C57.1621 41.6362 57.3658 41.3698 57.5499 41.0801C57.734 40.7904 57.8907 40.4852 58.0278 40.1818C58.0964 40.0302 58.161 39.8766 58.2198 39.7249L58.3961 39.2855L58.4881 39.0561L58.6115 38.7353C58.6918 38.5214 58.7682 38.3037 58.8191 38.0956C58.872 37.8817 58.8916 37.6873 58.9132 37.4832C58.921 37.2712 58.9073 37.0496 58.8818 36.859C58.8544 36.6666 58.8093 36.4916 58.7388 36.336C58.7016 36.2583 58.6644 36.1805 58.5959 36.1202C58.5802 36.1047 58.5606 36.0891 58.541 36.0735C58.5214 36.058 58.496 36.0522 58.4823 36.0288C58.4392 36.0133 58.3922 35.988 58.351 35.9783C58.0886 35.9472 57.9103 35.9724 57.6968 36.0502C57.4892 36.1241 57.2522 36.2349 56.9702 36.441C56.8292 36.548 56.6842 36.6666 56.5334 36.7871C56.459 36.8435 56.3826 36.9096 56.3101 36.9504L56.2866 36.966H56.2807L56.2729 36.9699C56.2709 36.9563 56.2846 36.9913 56.2925 37.0146C56.3003 37.0399 56.3062 37.0651 56.3101 37.0904L56.316 37.1312C56.316 37.1468 56.316 37.1604 56.3199 37.1604C56.3219 37.1701 56.3238 37.1798 56.3258 37.1896C56.3258 37.2012 56.3258 37.2129 56.3258 37.2246L56.3219 37.244L56.3532 37.0437C56.3532 37.0437 56.3552 37.0379 56.3552 37.0399C56.3571 37.0321 56.3708 36.9971 56.3806 36.9815C56.3865 36.9718 56.3943 36.9621 56.3963 36.9563V36.9504C56.3963 36.9504 56.3924 36.9504 56.3865 36.9388C56.3767 36.9232 56.365 36.9115 56.3454 36.8824L56.3826 36.9407C56.3885 36.9524 56.3885 36.9465 56.3904 36.9543C56.3904 36.9621 56.3982 36.9543 56.3806 36.9796C56.3689 36.9971 56.3591 37.0243 56.3532 37.0418C56.3532 37.0418 56.3532 37.0418 56.3512 37.0437V37.0476C56.3806 36.8688 56.3121 37.2907 56.3199 37.2479V37.2362C56.3219 37.2246 56.3238 37.2129 56.3219 37.2012C56.3219 37.1721 56.314 37.1798 56.3101 37.1099C56.3062 37.0826 56.3003 37.0574 56.2944 37.0321C56.2886 37.0107 56.2749 36.9738 56.2768 36.9874C56.2729 36.9913 56.2807 36.9874 56.2827 36.9874H56.2886C56.2886 36.9874 56.2925 36.9854 56.3042 36.9776C56.3767 36.9368 56.4511 36.8765 56.5256 36.8202C56.6744 36.7054 56.8174 36.5868 56.9565 36.4818C57.2366 36.2777 57.4716 36.163 57.6792 36.0872C57.8927 36.0074 58.0729 35.9724 58.3373 36.0035C58.3784 36.0133 58.4255 36.0366 58.4685 36.0522C58.4823 36.0735 58.5077 36.0813 58.5273 36.0969L58.5802 36.1416C58.6487 36.2019 58.686 36.2796 58.7232 36.3555C58.7937 36.5091 58.8387 36.6802 58.8681 36.8707C58.8955 37.0574 58.9112 37.2771 58.9053 37.489C58.8857 37.6931 58.8681 37.8856 58.8191 38.1014C58.7663 38.3114 58.686 38.5272 58.6037 38.7392L58.4783 39.0561L58.3824 39.2836L58.1982 39.7152C58.1356 39.8649 58.069 40.0127 57.9985 40.1624C57.8574 40.4599 57.6968 40.7554 57.5127 41.0334C57.3286 41.3134 57.123 41.572 56.9193 41.817C56.8762 41.7256 56.8292 41.6342 56.7116 41.642C56.7116 41.642 56.4727 41.9473 56.3532 42.1009C55.7029 42.5772 55.5756 42.2428 55.6422 41.7976C55.6677 41.6926 55.6971 41.572 55.7343 41.4437L55.7382 41.4476Z" fill="white"></path>
<path d="M51.1354 48.6785C51.1412 48.6474 51.1452 48.6163 51.151 48.5852C51.2157 48.0194 51.1608 47.4459 51.3293 46.8392C51.4683 46.4232 51.5388 45.9449 51.6662 45.5385C51.4762 46.0051 51.3489 46.5126 51.2568 47.0317C51.1608 47.5489 51.106 48.0816 51.0159 48.5988C50.9003 48.5113 50.8044 48.3947 50.7926 48.2469C50.8083 47.8892 50.8357 47.5353 50.8807 47.1911C50.9258 47.195 51.012 47.2009 51.0551 47.2028C51.0257 46.7167 51.1628 46.2598 51.3234 45.836C51.484 45.4043 51.6622 45.0135 51.7093 44.5702C51.676 44.5916 51.6485 44.5625 51.625 44.545C51.6035 44.5314 51.5839 44.5275 51.5663 44.578C51.5859 44.5275 51.6035 44.5314 51.625 44.545C51.4977 44.9494 51.3508 45.3518 51.2176 45.7913C51.0844 46.2229 50.9689 46.6701 50.8866 47.1503C50.9865 46.4095 51.1667 45.6921 51.3861 45.0427C51.5976 44.3972 51.8307 43.8003 51.9619 43.2714C51.9756 43.2248 51.9933 43.1373 52.003 43.0926C52.1676 42.9429 52.2361 42.764 52.242 42.5851C52.3517 42.6123 52.5182 42.5851 52.6435 42.5929C52.7708 42.6026 52.859 42.6609 52.7943 42.8709C52.8374 42.8748 52.9256 42.8845 52.9687 42.8904C53.1019 42.6823 53.3095 42.5229 53.5151 42.4743C53.7188 42.4296 53.9206 42.4996 53.995 42.7912C54.0635 43.114 54.0009 43.4873 53.8971 43.8372C53.7933 44.1892 53.6522 44.5177 53.5837 44.8347C53.4622 45.2896 53.3486 45.7057 53.1489 46.0635C53.0059 46.3046 52.9158 46.5768 52.8433 46.849C52.7708 47.1231 52.7121 47.3953 52.622 47.6656C52.573 47.8658 52.7297 48.2041 52.6122 48.3188C52.5573 48.3986 52.4653 48.4141 52.3595 48.4141C52.3341 48.0641 52.3262 47.7219 52.3654 47.3875C52.4379 46.9773 52.5632 46.5787 52.7552 46.2054C52.5338 46.5612 52.4144 46.9695 52.3654 47.3875C52.3047 47.7219 52.2812 48.0622 52.2733 48.4141C52.1832 48.4122 52.0873 48.4083 52.003 48.4413C52.003 48.4413 52.0168 48.5522 52.0246 48.6085C51.8385 48.8613 51.5251 48.8574 51.2901 48.768C51.2411 48.7446 51.1863 48.7155 51.1314 48.6844L51.1354 48.6785Z" fill="white"></path>
<path d="M56.2396 49.5495C56.2455 49.5184 56.2514 49.4873 56.2572 49.4562C56.3278 48.8885 56.222 48.3382 56.2396 47.7141C56.2788 47.2728 56.1809 46.7867 56.1319 46.3551C56.1652 47.3855 56.316 48.4549 56.1221 49.4698C56.0085 49.3823 55.9125 49.2735 55.8969 49.1354C55.9008 48.799 55.8929 48.4685 55.8753 48.1399C55.9204 48.136 56.0065 48.1263 56.0496 48.1205C55.8146 47.2125 56.0692 46.3103 55.748 45.4121C55.7284 45.4471 55.6912 45.4315 55.6618 45.4276C55.6364 45.4237 55.6168 45.4296 55.6246 45.4879C55.6187 45.4296 55.6364 45.4237 55.6618 45.4276C55.8068 46.3317 55.8577 47.1853 55.8753 48.101C55.8009 46.6837 55.5639 45.3343 55.4033 43.8916C55.3974 43.8294 55.3817 43.7069 55.3759 43.6447C55.4797 43.3842 55.4953 43.1334 55.4679 42.8864C55.6932 42.9234 56.1045 42.6298 56.0712 43.1314C56.1143 43.1275 56.2024 43.1178 56.2455 43.112C56.41 42.5948 57.0015 42.344 57.2327 42.8164C57.4697 43.3511 57.3776 44.1094 57.5402 44.7763C57.6381 45.2643 57.738 45.7523 57.7047 46.254C57.6479 46.9461 57.7752 47.6791 57.6753 48.3752C57.6596 48.626 57.8379 49.0421 57.7204 49.1801C57.6675 49.2754 57.5735 49.289 57.4697 49.2871C57.4403 48.8807 57.3991 48.4763 57.3737 48.0758C57.3678 47.58 57.3678 47.0861 57.4011 46.5864C57.3345 47.0783 57.3423 47.5741 57.3737 48.0758C57.3776 48.4782 57.3854 48.8807 57.3835 49.2832C57.2934 49.2793 57.1974 49.2754 57.1132 49.3084C57.1132 49.3084 57.1269 49.4309 57.1328 49.4932C56.9408 49.7634 56.6274 49.7362 56.3944 49.637C56.3473 49.6098 56.2925 49.5807 56.2377 49.5476L56.2396 49.5495Z" fill="white"></path>
<path d="M70.8198 48.2528C70.8844 48.1847 70.951 48.1147 71.0157 48.0467C71.3075 47.7278 71.5602 47.4264 71.7619 47.0959C71.9676 46.7654 72.134 46.396 72.2966 45.9915C72.371 45.8088 72.4474 45.626 72.5219 45.4413C72.5591 45.3558 72.5963 45.2683 72.6315 45.173C72.6492 45.1263 72.6668 45.0777 72.6805 45.0272C72.6942 44.9766 72.6903 44.9222 72.6981 44.8677C72.706 44.7569 72.7197 44.6383 72.7079 44.5119C72.706 44.4769 72.7001 44.44 72.6844 44.4089C72.6668 44.3778 72.6355 44.37 72.608 44.3603C72.4651 44.3447 72.3495 44.4614 72.2281 44.5586C72.1673 44.6111 72.1066 44.6675 72.042 44.72C72.0106 44.7472 71.9754 44.7725 71.9401 44.7958L71.8853 44.8288L71.8481 44.8483C71.8167 44.8619 71.7893 44.8755 71.7541 44.8872C71.6757 44.9105 71.6013 44.93 71.5171 44.9436C71.425 44.9494 71.3192 44.9494 71.2389 44.9338C71.0822 44.9047 70.9334 44.8425 70.8159 44.7627C70.5789 44.6033 70.4476 44.4244 70.338 44.2747C70.2694 44.1736 70.2009 44.0745 70.1323 43.9753C70.0853 43.9111 70.0363 43.8509 69.9717 43.8061C70.0363 43.8567 70.0833 43.9228 70.1264 43.9889L70.1871 44.09C70.2204 44.1425 70.2733 44.2281 70.3242 44.3019C70.432 44.4555 70.5632 44.6383 70.808 44.8036C70.8648 44.8444 70.9412 44.8775 71.0098 44.9105C71.0822 44.9397 71.1645 44.9591 71.2409 44.9786C71.331 44.9922 71.4348 44.9922 71.5308 44.9863C71.613 44.9727 71.6933 44.9533 71.7717 44.93C71.805 44.9183 71.8344 44.9047 71.8657 44.8911L71.901 44.8755L71.9499 44.8483C71.9813 44.8288 72.0106 44.8075 72.04 44.7861C72.0988 44.7414 72.1517 44.6947 72.2046 44.648C72.3123 44.5625 72.4141 44.4536 72.5532 44.4536C72.5787 44.4575 72.6061 44.4614 72.6257 44.4828C72.6452 44.5042 72.6511 44.5314 72.659 44.5586C72.6707 44.613 72.6707 44.6714 72.6707 44.7258C72.6668 44.8366 72.6648 44.9455 72.6453 45.0486C72.6139 45.1497 72.5708 45.243 72.5316 45.3324L72.469 45.4588L72.3377 45.7543L72.1889 46.0907C72.1419 46.1957 72.0949 46.2987 72.0439 46.3998C71.9441 46.6001 71.8402 46.7906 71.7266 46.9676C71.5014 47.3175 71.2272 47.6247 70.9079 47.9592C71.0157 47.652 71.1547 47.337 71.3369 47.0376C71.5778 46.6798 71.7639 46.291 71.9597 45.8146L72.1086 45.4607L72.1438 45.3733C72.1517 45.3538 72.1478 45.3655 72.1517 45.3596L72.1615 45.348C72.1732 45.3324 72.1869 45.313 72.1987 45.2896C72.2535 45.2644 72.3632 45.2158 72.418 45.1924C72.422 45.136 72.3985 45.0816 72.3945 45.0311C72.3906 45.0058 72.3848 44.9786 72.3769 44.9513C72.373 44.9241 72.3495 44.8988 72.3182 44.9008C72.2418 44.9066 72.1928 44.9591 72.136 44.998C72.1086 45.0194 72.0792 45.0408 72.0459 45.0622C72.0302 45.0719 72.0106 45.0816 71.9911 45.0894C71.9754 45.0972 71.9871 45.0933 71.8833 45.136C71.803 45.1672 71.6875 45.1924 71.5876 45.2119C71.4759 45.2274 71.3349 45.2235 71.2135 45.208C71.1155 45.1866 71.0117 45.1594 70.9216 45.1224C70.7395 45.0447 70.5847 44.9358 70.477 44.8327C70.2537 44.6208 70.1421 44.4303 70.0422 44.2767L70.0069 44.2183L69.9991 44.2028L69.9815 44.1697C69.9697 44.1483 69.956 44.125 69.9404 44.1036C69.911 44.0609 69.8718 44.022 69.8209 44.0045C69.7504 43.9792 69.674 44.0103 69.6172 44.0531C69.5858 44.0764 69.5643 44.0978 69.531 44.1289L69.4487 44.2086L69.3077 44.3447C69.2098 44.438 69.0864 44.543 68.9395 44.6461C68.7789 44.7472 68.5889 44.86 68.3205 44.9066C68.1932 44.9358 68.0561 44.9319 67.919 44.9241C67.8505 44.9202 67.7878 44.9027 67.7232 44.8891C67.6566 44.8755 67.5958 44.8561 67.5371 44.8308C67.4137 44.7861 67.3158 44.7277 67.2178 44.6675L67.1552 44.6228L67.1238 44.5994H67.1199L67.1003 44.5878C67.1042 44.6247 67.0729 44.6422 67.0553 44.6636L67.0651 44.6714C67.1042 44.7005 67.1414 44.7355 67.1963 44.7666C67.2472 44.7997 67.3001 44.8308 67.353 44.8619C67.4117 44.8911 67.4744 44.9183 67.5371 44.9436C67.5978 44.9708 67.6683 44.9863 67.7369 45.0038C67.8054 45.0213 67.874 45.0349 67.9484 45.0388C68.0209 45.0447 68.0953 45.0466 68.1678 45.0447C68.2402 45.0427 68.3088 45.0291 68.3793 45.0174C68.5262 44.9941 68.6339 44.9474 68.7515 44.8988C68.8533 44.8502 68.9493 44.7958 69.0315 44.7414C69.1882 44.6344 69.3155 44.5275 69.4135 44.4342C69.5153 44.3428 69.625 44.2339 69.625 44.2339C69.6466 44.2125 69.6583 44.2028 69.6759 44.1892C69.7092 44.1639 69.7523 44.1464 69.7915 44.1581C69.8209 44.1658 69.8444 44.1892 69.864 44.2125C69.8738 44.2242 69.8816 44.2378 69.8894 44.2494L69.9012 44.2689L69.9051 44.2767L69.9423 44.335C70.0461 44.4905 70.1656 44.685 70.4046 44.9086C70.5221 45.0174 70.6886 45.1322 70.8864 45.2158C70.9843 45.2546 71.096 45.2819 71.2037 45.3052C71.3369 45.3208 71.4896 45.3246 71.6091 45.3052C71.7149 45.2858 71.8402 45.2566 71.9245 45.2216C72.0342 45.1749 72.0165 45.1808 72.0283 45.1749C72.04 45.1691 72.0518 45.1633 72.0616 45.1574L72.1184 45.1185C72.1536 45.0972 72.183 45.0719 72.2183 45.0836C72.2496 45.0933 72.2379 45.1497 72.232 45.1788C72.2241 45.2138 72.2163 45.2449 72.2046 45.2702C72.2124 45.2469 72.2163 45.2197 72.2202 45.1905C72.2202 45.1672 72.2281 45.1205 72.1987 45.1166C72.1654 45.1127 72.1399 45.1399 72.1105 45.1613L72.0674 45.1963C72.0674 45.1963 72.0518 45.208 72.042 45.2119C72.0283 45.2197 72.0557 45.2119 71.9421 45.2585C71.9068 45.276 71.8422 45.2935 71.7874 45.3071C71.7306 45.3227 71.6738 45.3344 71.617 45.346C71.4936 45.3655 71.333 45.3635 71.1959 45.346C71.0842 45.3246 70.9706 45.2955 70.8668 45.2566C70.6611 45.173 70.4888 45.0544 70.3673 44.9436C70.1186 44.7161 69.9972 44.5178 69.8894 44.3622L69.8405 44.2883C69.8405 44.2883 69.8287 44.2728 69.8228 44.265C69.8091 44.2494 69.7935 44.2378 69.7739 44.2319C69.7464 44.2242 69.721 44.2378 69.6994 44.2553C69.6603 44.2883 69.7327 44.2261 69.4722 44.4711C69.4233 44.5178 69.3704 44.5644 69.3038 44.6189C69.247 44.6675 69.1726 44.7239 69.0942 44.7764C69.0276 44.8288 68.916 44.8872 68.8239 44.9358C68.775 44.9611 68.7084 44.9863 68.6496 45.0077C68.5869 45.0291 68.534 45.0524 68.4596 45.0661C68.1854 45.1341 67.8603 45.1205 67.5919 45.0349C67.4646 44.9902 67.3275 44.9319 67.2296 44.8677C67.1787 44.8366 67.1199 44.8016 67.0807 44.7686L67.018 44.718C67.018 44.718 67.018 44.718 67.018 44.7161C66.9828 44.6889 66.9612 44.6422 66.9162 44.6403C66.8711 44.6403 66.8418 44.6927 66.8476 44.7336C66.8476 44.7647 66.8574 44.7939 66.8653 44.823L66.9142 45.0155L66.9789 45.2508C67.0259 45.4063 67.0729 45.5618 67.1258 45.7174C67.1787 45.8865 67.306 46.221 67.3726 46.3862C67.5175 47.0978 67.8172 47.7686 68.2069 48.3772C68.064 48.3597 67.9993 48.5619 67.8799 48.6124C67.7663 48.6591 67.5684 48.5541 67.2413 47.8658C67.2022 47.8872 67.1238 47.9281 67.0866 47.9475C67.353 48.6766 67.4979 49.2327 67.4137 49.4738C67.3706 49.5885 67.2766 49.6332 67.1219 49.5574C66.9691 49.4835 66.7517 49.2988 66.501 48.9644C66.0622 48.3655 65.6685 47.617 65.361 46.7848C65.2063 46.3687 65.0751 45.9352 64.9634 45.4899L64.9243 45.3227L64.8929 45.1905L64.8596 45.0408C64.8224 44.8405 64.7813 44.6383 64.748 44.44C64.697 44.0434 64.7205 43.6778 64.8146 43.3628C64.9164 43.0245 65.0966 42.729 65.3552 42.4879C65.6078 42.2488 65.9467 42.0796 66.2875 42.031C66.5519 41.996 66.7948 42.0271 67.0239 42.0991C67.2531 42.1729 67.4881 42.2993 67.731 42.521L67.9112 42.7018L68.0875 42.904C68.1482 42.972 68.2011 43.044 68.2677 43.1062L68.3068 43.1451C68.3068 43.1451 68.3127 43.1393 68.3049 43.1529C68.2873 43.1762 68.2618 43.217 68.252 43.2267C68.2402 43.2423 68.2285 43.2579 68.2167 43.2734C68.1952 43.3065 68.1737 43.3395 68.156 43.3765C68.1404 43.4076 68.1345 43.4134 68.1247 43.4348C68.1169 43.4503 68.1071 43.4815 68.1051 43.4873C68.1051 43.4892 68.1031 43.4931 68.1012 43.497V43.5048L68.0973 43.5242C68.0973 43.5242 68.0973 43.5281 68.0973 43.532C68.0973 43.5592 68.0973 43.5048 68.0894 43.4795L68.0836 43.4601L68.0796 43.4503L68.0738 43.4231C68.064 43.3881 68.0522 43.3531 68.0385 43.322L67.9347 43.1101C67.9347 43.1101 67.9347 43.1101 67.9367 43.1101L67.9523 43.0965C67.9621 43.0887 67.9758 43.0809 67.9974 43.0615C68.0326 43.0343 68.0836 42.9876 68.1364 42.939L68.3969 42.6998C68.6496 42.4763 68.9356 42.2663 69.2411 42.1632C69.5447 42.0504 69.8738 42.0504 70.1891 42.1049C70.3203 42.1516 70.4516 42.1924 70.573 42.2546C70.6944 42.3188 70.8061 42.4004 70.9118 42.4899C71.1175 42.6687 71.284 42.904 71.4368 43.147L71.4936 43.2384L71.5229 43.289L71.5719 43.3706L71.6463 43.4873C71.6463 43.4873 71.66 43.5067 71.6659 43.5164L71.6522 43.532L71.6013 43.5942C71.5543 43.6448 71.5171 43.6914 71.4857 43.7517C71.4661 43.7809 71.4524 43.8042 71.4407 43.8373C71.4407 43.8411 71.4387 43.8373 71.4368 43.845L71.4054 44.0453V44.0414L71.4074 44.0356V44.0239C71.4074 44.0239 71.4113 44.0084 71.4113 44.0006C71.4113 43.985 71.4093 43.9714 71.4054 43.9597C71.4015 43.8975 71.3858 43.8178 71.3565 43.7595C71.3525 43.7517 71.3486 43.7459 71.3447 43.7342L71.331 43.6914C71.3212 43.6642 71.3114 43.6351 71.2997 43.6098L71.282 43.5689L71.2781 43.5592C71.284 43.5728 71.2194 43.427 71.2468 43.4892L71.2487 43.4873L71.2585 43.4795L71.2997 43.4484C71.5288 43.2715 71.7737 43.0343 72.0009 42.8632C72.0596 42.8126 72.1125 42.7815 72.1693 42.7465C72.2222 42.7135 72.2809 42.6707 72.3319 42.6454C72.4318 42.5968 72.5375 42.5365 72.6217 42.5132C72.8078 42.4432 72.9567 42.4218 73.1095 42.4121C73.1467 42.4121 73.1839 42.4121 73.2211 42.4121L73.3327 42.4276C73.4111 42.4393 73.4953 42.4529 73.5932 42.4724C73.6265 42.484 73.6677 42.5074 73.7049 42.5229L73.7323 42.5365L73.746 42.5424C73.746 42.5424 73.7538 42.5326 73.7401 42.556L73.7441 42.5579L73.7499 42.5618L73.8048 42.5968C73.8772 42.6435 73.934 42.6882 73.9811 42.7446C74.0711 42.8554 74.1417 42.9779 74.1965 43.1218C74.2513 43.2637 74.2886 43.429 74.3121 43.6098C74.3336 43.7848 74.3414 44.0025 74.3336 44.1756C74.3219 44.3525 74.314 44.5294 74.2886 44.72C74.2533 44.9125 74.1867 45.1147 74.1123 45.3149C74.0379 45.5152 73.9556 45.7116 73.8753 45.906L73.8439 45.9779L73.8224 46.0246L73.7832 46.1082L73.7029 46.2735C73.6833 46.3182 73.6637 46.3648 73.6422 46.4115C73.6226 46.4582 73.603 46.5068 73.5834 46.5573C73.5404 46.6682 73.4953 46.7848 73.4483 46.9054C73.3523 47.1464 73.2446 47.4031 73.1212 47.6461C72.8744 48.138 72.5787 48.5288 72.4063 48.6494C72.1791 48.8438 72.0988 48.7913 72.042 48.6961C72.2437 48.4414 72.4474 48.175 72.6315 47.8853C72.8157 47.5956 72.9723 47.2903 73.1095 46.987C73.178 46.8354 73.2426 46.6818 73.3014 46.5301L73.4777 46.0907L73.5697 45.8613L73.6931 45.5405C73.7734 45.3266 73.8498 45.1088 73.9007 44.9008C73.9536 44.6869 73.9732 44.4925 73.9948 44.2883C74.0026 44.0764 73.9889 43.8548 73.9634 43.6642C73.936 43.4717 73.891 43.2967 73.8204 43.1412C73.7832 43.0634 73.746 42.9857 73.6775 42.9254C73.6618 42.9098 73.6422 42.8943 73.6226 42.8787C73.603 42.8632 73.5776 42.8573 73.5639 42.834C73.5208 42.8184 73.4738 42.7932 73.4326 42.7834C73.1702 42.7523 72.9919 42.7776 72.7784 42.8554C72.5708 42.9293 72.3338 43.0401 72.0518 43.2462C71.9108 43.3531 71.7658 43.4717 71.615 43.5923C71.5406 43.6487 71.4642 43.7148 71.3917 43.7556L71.3682 43.7712H71.3623L71.3545 43.775C71.3525 43.7614 71.3663 43.7964 71.3741 43.8198C71.3819 43.845 71.3878 43.8703 71.3917 43.8956L71.3976 43.9364C71.3976 43.952 71.3976 43.9656 71.4015 43.9656C71.4035 43.9753 71.4054 43.985 71.4074 43.9947C71.4074 44.0064 71.4074 44.0181 71.4074 44.0297L71.4035 44.0492L71.4348 43.8489C71.4348 43.8489 71.4368 43.8431 71.4368 43.845C71.4387 43.8373 71.4524 43.8023 71.4622 43.7867C71.4681 43.777 71.4759 43.7673 71.4779 43.7614V43.7556C71.4779 43.7556 71.474 43.7556 71.4681 43.7439C71.4583 43.7284 71.4466 43.7167 71.427 43.6875L71.4642 43.7459C71.4701 43.7575 71.4701 43.7517 71.472 43.7595C71.472 43.7673 71.4799 43.7595 71.4622 43.7848C71.4505 43.8023 71.4407 43.8295 71.4348 43.847C71.4348 43.847 71.4348 43.847 71.4328 43.8489V43.8528C71.4622 43.6739 71.3937 44.0958 71.4015 44.0531V44.0414C71.4035 44.0297 71.4054 44.0181 71.4035 44.0064C71.4035 43.9772 71.3956 43.985 71.3917 43.915C71.3878 43.8878 71.3819 43.8625 71.376 43.8373C71.3702 43.8159 71.3565 43.7789 71.3584 43.7925C71.3545 43.7964 71.3623 43.7925 71.3643 43.7925H71.3702C71.3702 43.7925 71.3741 43.7906 71.3858 43.7828C71.4583 43.742 71.5327 43.6817 71.6072 43.6253C71.756 43.5106 71.899 43.392 72.0381 43.287C72.3182 43.0829 72.5532 42.9682 72.7608 42.8923C72.9743 42.8126 73.1545 42.7776 73.4189 42.8087C73.46 42.8184 73.5071 42.8418 73.5501 42.8573C73.5639 42.8787 73.5893 42.8865 73.6089 42.9021L73.6618 42.9468C73.7303 43.007 73.7676 43.0848 73.8048 43.1606C73.8753 43.3142 73.9203 43.4853 73.9497 43.6759C73.9771 43.8625 73.9928 44.0822 73.9869 44.2942C73.9673 44.4983 73.9497 44.6908 73.9007 44.9066C73.8479 45.1166 73.7676 45.3324 73.6853 45.5443L73.5599 45.8613L73.464 46.0888L73.2799 46.5204C73.2172 46.6701 73.1506 46.8179 73.0801 46.9676C72.939 47.2651 72.7784 47.5606 72.5943 47.8386C72.4102 48.1186 72.2046 48.3772 72.0009 48.6222C71.9578 48.5308 71.9108 48.4394 71.7932 48.4472C71.7932 48.4472 71.5543 48.7524 71.4348 48.906C70.7845 49.3824 70.6572 49.048 70.7238 48.6027C70.7493 48.4977 70.7787 48.3772 70.8159 48.2489L70.8198 48.2528Z" fill="white"></path>
<path d="M66.217 54.5111C66.2228 54.4799 66.2268 54.4488 66.2326 54.4177C66.2973 53.8519 66.2424 53.2784 66.4109 52.6718C66.5499 52.2557 66.6205 51.7774 66.7478 51.371C66.5578 51.8376 66.4305 52.3451 66.3384 52.8642C66.2424 53.3814 66.1876 53.9142 66.0975 54.4313C65.9819 54.3438 65.886 54.2272 65.8742 54.0794C65.8899 53.7217 65.9173 53.3678 65.9623 53.0237C66.0074 53.0276 66.0936 53.0334 66.1367 53.0353C66.1073 52.5493 66.2444 52.0924 66.405 51.6685C66.5656 51.2369 66.7438 50.8461 66.7909 50.4028C66.7576 50.4241 66.7301 50.395 66.7066 50.3775C66.6851 50.3639 66.6655 50.36 66.6479 50.4105C66.6675 50.36 66.6851 50.3639 66.7066 50.3775C66.5793 50.7819 66.4324 51.1844 66.2992 51.6238C66.166 52.0554 66.0505 52.5026 65.9682 52.9828C66.0681 52.2421 66.2483 51.5246 66.4677 50.8752C66.6792 50.2297 66.9123 49.6328 67.0435 49.104C67.0572 49.0573 67.0749 48.9698 67.0847 48.9251C67.2492 48.7754 67.3177 48.5965 67.3236 48.4176C67.4333 48.4449 67.5998 48.4176 67.7251 48.4254C67.8524 48.4351 67.9406 48.4935 67.8759 48.7034C67.919 48.7073 68.0072 48.7171 68.0503 48.7229C68.1835 48.5148 68.3911 48.3554 68.5967 48.3068C68.8004 48.2621 69.0022 48.3321 69.0766 48.6237C69.1452 48.9465 69.0825 49.3198 68.9787 49.6698C68.8749 50.0217 68.7338 50.3503 68.6653 50.6672C68.5438 51.1221 68.4302 51.5382 68.2305 51.896C68.0875 52.1371 67.9974 52.4093 67.9249 52.6815C67.8524 52.9556 67.7937 53.2278 67.7036 53.4981C67.6546 53.6983 67.8113 54.0366 67.6938 54.1514C67.639 54.2311 67.5469 54.2466 67.4411 54.2466C67.4157 53.8967 67.4078 53.5545 67.447 53.22C67.5195 52.8098 67.6448 52.4112 67.8368 52.0379C67.6154 52.3937 67.496 52.802 67.447 53.22C67.3863 53.5545 67.3628 53.8947 67.3549 54.2466C67.2648 54.2447 67.1689 54.2408 67.0847 54.2739C67.0847 54.2739 67.0984 54.3847 67.1062 54.4411C66.9201 54.6938 66.6067 54.6899 66.3717 54.6005C66.3227 54.5772 66.2679 54.548 66.2131 54.5169L66.217 54.5111Z" fill="white"></path>
<path d="M71.3212 55.3821C71.3271 55.351 71.333 55.3198 71.3389 55.2887C71.4094 54.721 71.3036 54.1708 71.3212 53.5466C71.3604 53.1053 71.2625 52.6192 71.2135 52.1876C71.2468 53.2181 71.3976 54.2874 71.2037 55.3023C71.0901 55.2149 70.9941 55.106 70.9785 54.9679C70.9824 54.6316 70.9745 54.301 70.9569 53.9724C71.002 53.9686 71.0881 53.9588 71.1312 53.953C70.8962 53.045 71.1508 52.1429 70.8296 51.2446C70.81 51.2796 70.7728 51.264 70.7434 51.2602C70.718 51.2563 70.6984 51.2621 70.7062 51.3204C70.7003 51.2621 70.718 51.2563 70.7434 51.2602C70.8884 52.1643 70.9393 53.0178 70.9569 53.9336C70.8825 52.5162 70.6455 51.1668 70.4849 49.7242C70.479 49.6619 70.4633 49.5395 70.4575 49.4772C70.5613 49.2167 70.5769 48.9659 70.5495 48.719C70.7748 48.7559 71.1861 48.4623 71.1528 48.9639C71.1959 48.9601 71.284 48.9503 71.3271 48.9445C71.4916 48.4273 72.0831 48.1765 72.3143 48.649C72.5513 49.1836 72.4592 49.9419 72.6218 50.6088C72.7197 51.0968 72.8196 51.5849 72.7863 52.0865C72.7295 52.7787 72.8568 53.5116 72.7569 54.2077C72.7412 54.4585 72.9195 54.8746 72.802 55.0126C72.7491 55.1079 72.6551 55.1215 72.5513 55.1196C72.5219 54.7132 72.4807 54.3088 72.4553 53.9083C72.4494 53.4125 72.4494 52.9186 72.4827 52.419C72.4161 52.9109 72.4239 53.4067 72.4553 53.9083C72.4592 54.3108 72.467 54.7132 72.4651 55.1157C72.375 55.1118 72.279 55.1079 72.1948 55.141C72.1948 55.141 72.2085 55.2635 72.2144 55.3257C72.0224 55.5959 71.709 55.5687 71.476 55.4696C71.4289 55.4423 71.3741 55.4132 71.3193 55.3801L71.3212 55.3821Z" fill="white"></path>
<path d="M61.7101 49.7066C61.6357 49.5161 61.5554 49.3294 61.4692 49.1506C61.24 48.6917 61.0109 48.2212 60.7915 47.7526C60.578 47.2879 60.3665 46.8213 60.153 46.3547C59.9434 45.9016 59.7279 45.5186 59.442 45.1434L59.2089 44.8478C59.1364 44.7564 59.064 44.6553 58.9876 44.5795L58.8759 44.457L58.7545 44.3423C58.6761 44.2626 58.586 44.1945 58.4999 44.1226C57.7889 43.5626 56.8585 43.236 55.8635 43.1038C54.8685 42.9735 53.8011 43.0163 52.7571 43.2302C52.3928 43.3021 52.0265 43.4032 51.6896 43.5354C51.3802 43.6599 51.0296 43.8757 50.7123 44.0915C50.0679 44.5367 49.4803 45.0986 48.9632 45.7208C47.9251 46.9729 47.1514 48.4564 46.6128 49.8836C46.9419 49.0378 47.3395 48.2134 47.8154 47.4318C48.2855 46.6482 48.83 45.9075 49.4548 45.2542C49.7662 44.9275 50.1012 44.6242 50.4557 44.354C50.6339 44.2198 50.8141 44.0896 51.0022 43.971C51.0962 43.9126 51.1882 43.8523 51.2862 43.7999L51.4311 43.7182L51.5623 43.6521C51.9286 43.481 52.3634 43.3527 52.7982 43.2593C53.235 43.166 53.6835 43.1019 54.1321 43.0746C55.0272 43.0182 55.9301 43.0805 56.7567 43.3138C57.5813 43.5452 58.3295 43.9457 58.8603 44.527C58.9249 44.6048 58.9915 44.667 59.0542 44.7545L59.25 45.0131L59.3558 45.1511L59.4479 45.2795C59.5105 45.3631 59.5634 45.4506 59.6202 45.5361C59.8337 45.8783 60.008 46.2594 60.1902 46.6774C60.5506 47.5193 60.9423 48.3864 61.3458 49.205C60.9031 48.6081 60.4115 47.8265 59.9806 46.9049C59.8553 46.6288 59.7358 46.3663 59.6143 46.133C59.4929 45.8977 59.3656 45.6897 59.2167 45.4817C59.1776 45.4272 59.1462 45.3806 59.0992 45.3222L58.9601 45.1453L58.8407 44.9898L58.7819 44.912L58.7232 44.8478C58.5743 44.669 58.3961 44.5173 58.2119 44.3695C57.4598 43.7921 56.4296 43.4985 55.368 43.4227C55.3699 43.3779 55.3758 43.2924 55.3797 43.2496C54.6061 43.2185 53.8206 43.2846 53.0685 43.4363C52.6925 43.5102 52.3262 43.6113 51.9913 43.7337C51.8248 43.7979 51.674 43.8621 51.5369 43.9379L51.2959 44.0759L51.0609 44.2237C49.8172 45.0461 48.7987 46.2399 47.9917 47.5718C47.1769 48.9036 46.5756 50.3716 46.2191 51.9076C46.0389 52.6756 45.9292 53.463 45.8822 54.2582C45.8391 55.0534 45.8509 55.8584 45.9763 56.6225C45.9743 56.4008 46.0252 56.5272 46.0585 56.568C46.0585 56.5836 46.0624 56.5972 46.0644 56.6108C46.0644 56.5972 46.0605 56.5817 46.0585 56.568C46.0899 56.605 46.0996 56.5797 46.0664 56.1986C46.0996 56.5797 46.0918 56.605 46.0585 56.568C45.9606 55.8214 45.9645 55.0359 46.0154 54.2602C46.0683 53.4863 46.178 52.7183 46.3523 51.9698C46.699 50.4707 47.2611 49.032 48.0368 47.7176C48.8065 46.4052 49.7741 45.2153 50.9728 44.3948C51.2685 44.1945 51.5995 43.9923 51.864 43.8873C52.1715 43.7649 52.524 43.6638 52.8844 43.5879C53.6091 43.4363 54.373 43.3721 55.1192 43.4071C54.5395 43.3838 53.948 43.4188 53.3702 43.5102C52.8002 43.5996 52.2146 43.7493 51.7601 43.9535C51.7014 43.9787 51.6603 44.004 51.6035 44.0312L51.4193 44.1362C51.2979 44.2082 51.1784 44.284 51.0609 44.3637C50.8239 44.5212 50.6006 44.6981 50.3793 44.8828C49.9425 45.2581 49.539 45.6819 49.1689 46.1408C48.4324 47.0624 47.8193 48.1181 47.3297 49.2128C46.8459 50.3132 46.4933 51.472 46.2798 52.6542C46.1721 53.2452 46.1016 53.8441 46.0683 54.4449C46.037 55.0457 46.0311 55.6484 46.084 56.2297C46.1349 56.8111 46.2387 57.371 46.415 57.896C46.4346 57.9621 46.462 58.0263 46.4835 58.0904C46.507 58.1526 46.5286 58.1993 46.5521 58.2557C46.6011 58.3587 46.652 58.4579 46.7147 58.5493C46.8361 58.732 46.983 58.8973 47.1749 59.0567C47.363 59.2162 47.5902 59.3678 47.8468 59.5195C47.9741 59.5953 48.1073 59.6711 48.2444 59.747C48.3815 59.8209 48.4931 59.8831 48.6224 59.9414C49.1218 60.1767 49.6409 60.3244 50.205 60.3905C50.4851 60.4255 50.7769 60.4411 51.0766 60.443C51.3802 60.445 51.672 60.4314 52.0265 60.4177C52.7081 60.3925 53.3819 60.3905 54.0537 60.3886C54.5081 60.3886 55.417 60.3886 55.8714 60.3886C56.7763 60.4508 57.6596 60.478 58.5527 60.4469C59.0111 60.4314 59.4616 60.4197 59.869 60.3789C60.2783 60.338 60.6563 60.2583 61.0579 60.1339C60.8894 60.2991 61.24 60.3653 61.2283 60.4994C61.2204 60.5655 61.1205 60.6588 60.8013 60.7736C60.482 60.8902 59.9493 61.001 59.0405 61.0263C59.0424 61.0691 59.0483 61.1566 59.0522 61.2013C59.5086 61.2013 59.9277 61.2013 60.3097 61.178C60.6916 61.1546 61.0344 61.106 61.3301 61.0652C61.479 61.0399 61.6102 61.0321 61.7591 60.9913C61.9001 60.9544 62.0254 60.9019 62.1312 60.8494C62.3467 60.7424 62.4936 60.6394 62.5974 60.5888C62.6894 60.5519 62.7482 60.5597 62.7658 60.6161C62.7736 60.6452 62.7776 60.6802 62.758 60.7405C62.7364 60.8047 62.6973 60.8883 62.6326 60.9874C62.566 61.0866 62.472 61.2013 62.3329 61.3218C62.2644 61.3821 62.1821 61.4424 62.0881 61.5007C62.0411 61.5299 61.9902 61.5571 61.9373 61.5843C61.9099 61.5979 61.8844 61.6096 61.855 61.6232L61.7826 61.6543C61.4848 61.7865 61.0931 61.9382 60.5839 62.0529C60.0061 62.1812 59.4322 62.2259 58.8877 62.2707C58.7506 62.2823 58.6135 62.292 58.4744 62.3037C58.3295 62.3134 58.1845 62.3232 58.0376 62.3348C57.7458 62.3523 57.4481 62.3659 57.1504 62.3757C55.9575 62.4145 54.7275 62.3932 53.4896 62.3951C53.1821 62.397 52.8727 62.4009 52.5612 62.4029C52.2498 62.4107 51.9345 62.4204 51.6211 62.4282C50.9434 62.4476 50.2246 62.4282 49.492 62.2901C48.7615 62.156 48.0368 61.8974 47.3963 61.5493C47.0946 61.388 46.8106 61.2305 46.5012 61.0341C46.1976 60.8397 45.8842 60.6161 45.5924 60.3361C45.1654 59.9297 44.8148 59.3951 44.6032 58.8506C44.4093 58.3568 44.2742 57.8591 44.1782 57.3574C43.9921 56.3542 43.9706 55.3704 44.0176 54.4118C44.1214 52.485 44.566 50.5777 45.3417 48.8161C45.608 48.2115 45.9097 47.6126 46.2505 47.0313C46.5893 46.4499 46.9615 45.8764 47.3845 45.3281C48.2248 44.2315 49.2648 43.2088 50.5419 42.4855C50.6868 42.4 50.8964 42.293 51.0727 42.2191C51.2548 42.1414 51.4331 42.0772 51.6093 42.0208C51.9638 41.9081 52.3125 41.8225 52.665 41.7545C53.3662 41.6242 54.0714 41.5561 54.7765 41.5659C55.4816 41.5736 56.1887 41.6495 56.8801 41.8244C57.2248 41.9119 57.5675 42.0189 57.8986 42.1608C58.2296 42.2989 58.5508 42.4622 58.8524 42.6605C59.2912 42.9385 59.8043 43.3352 60.2156 43.8407C60.3097 43.9573 60.4056 44.074 60.5036 44.1926C60.5956 44.3054 60.7014 44.4395 60.7934 44.5698C60.9834 44.8342 61.1558 45.1181 61.2988 45.3864C61.5847 45.9289 61.7982 46.4052 61.9882 46.8096C62.1763 47.2121 62.3232 47.5407 62.3976 47.7526C62.6365 48.3476 62.5699 48.4137 62.4309 48.3748C62.0842 47.7234 61.763 47.0682 61.4516 46.3974C61.2949 46.063 61.1362 45.7189 60.9482 45.3728C60.7621 45.0267 60.5349 44.6845 60.292 44.3812L59.9316 43.9301C59.7945 43.7785 59.6555 43.6268 59.5007 43.4907C59.1971 43.2146 58.8622 42.9774 58.5077 42.7791C57.7967 42.3844 57.023 42.155 56.2494 42.0286C55.2994 41.8731 54.3377 41.8731 53.3937 41.9858C52.9197 42.0422 52.4496 42.1336 51.9815 42.2619C51.7464 42.328 51.5134 42.4 51.2783 42.4952C51.1608 42.5438 51.0433 42.5944 50.9218 42.6566C50.8004 42.7169 50.7064 42.7752 50.5967 42.8355C49.7545 43.3216 49.0102 43.9496 48.3599 44.6456C47.7097 45.3436 47.1475 46.1077 46.6598 46.9088C47.1436 46.1291 47.6999 45.3806 48.3423 44.6903C48.9847 44.0021 49.7212 43.376 50.5556 42.8841L50.8748 42.7052C50.9943 42.643 51.1118 42.5886 51.2294 42.538C51.4644 42.4408 51.6975 42.363 51.9325 42.295C52.4026 42.1628 52.8746 42.0675 53.3506 42.0053C54.3044 41.8828 55.2759 41.875 56.2455 42.0267C57.0152 42.1589 57.785 42.3922 58.4842 42.7869C58.8328 42.9852 59.1638 43.2205 59.4616 43.4927C59.534 43.5626 59.6104 43.6307 59.679 43.7026L59.8827 43.9262L60.2372 44.3754C60.4703 44.6728 60.6955 45.0092 60.8757 45.3495C61.0598 45.6917 61.2126 46.0319 61.3634 46.3644C61.665 47.0293 61.9726 47.6807 62.3055 48.3262C62.1763 48.2737 62.045 48.227 62.0509 48.4234C62.0509 48.4234 62.1567 48.6237 62.2899 48.8745C62.4211 49.1292 62.5601 49.4422 62.6444 49.6541C62.8735 50.5446 62.8167 50.9082 62.6973 50.9451C62.5699 50.984 62.3506 50.7002 62.1018 50.3327C61.9863 50.1402 61.8511 49.9322 61.6983 49.7086L61.7101 49.7066Z" fill="white"></path>
<path d="M78.0551 52.2441C78.1863 52.4385 78.3117 52.6388 78.4331 52.841C78.7151 53.3038 78.9658 53.7957 79.1715 54.3167C79.3752 54.8359 79.5319 55.3958 79.5848 55.9772C79.6964 57.1146 79.5103 58.287 78.9698 59.3427C78.6956 59.8677 78.3352 60.3635 77.871 60.7698C77.4146 61.184 76.8623 61.4912 76.3021 61.7031C75.738 61.915 75.1641 62.0395 74.6 62.1347C74.0359 62.2261 73.4855 62.302 72.9117 62.3681C71.3154 62.5372 69.5741 62.6675 67.8231 62.51C66.076 62.3603 64.3386 61.9073 62.8579 61.2015C63.7334 61.6234 64.6618 61.9598 65.6216 62.195C66.5793 62.4303 67.5665 62.5664 68.5497 62.615C70.526 62.7161 72.4788 62.4905 74.3846 62.195C74.8684 62.1172 75.3619 62.0259 75.8614 61.8762C76.3589 61.7303 76.8623 61.5203 77.3265 61.2268C77.7887 60.9312 78.2039 60.5501 78.533 60.1185C78.866 59.6869 79.1225 59.2105 79.3106 58.7147C79.6866 57.7192 79.7865 56.6577 79.6377 55.6116C79.4751 54.5539 79.0462 53.6207 78.5545 52.7846C78.8111 53.0879 79.0736 53.4457 79.3125 53.8773C79.5495 54.309 79.7669 54.8184 79.8942 55.4191C80.0274 56.1541 80.0333 56.8657 79.9275 57.5793C79.8179 58.287 79.5985 58.983 79.244 59.6247C79.0677 59.9455 78.862 60.2527 78.6172 60.5346C78.5016 60.6785 78.3645 60.8087 78.2333 60.9429C78.0923 61.0654 77.9532 61.1937 77.8024 61.3045C77.2031 61.7575 76.5175 62.0492 75.8673 62.2339C75.8555 62.1911 75.83 62.1095 75.8183 62.0667C75.3678 62.2067 74.9232 62.3039 74.4942 62.3836C74.0653 62.4614 73.6501 62.5294 73.227 62.5897C72.3828 62.7141 71.5328 62.8075 70.6768 62.8502C68.9669 62.9377 67.2218 62.8327 65.5393 62.3992C64.699 62.1833 63.8803 61.8936 63.091 61.5417C62.8932 61.4484 62.7032 61.3667 62.4975 61.2637C62.2899 61.1568 62.096 61.0459 61.904 60.9254C61.5241 60.6862 61.1617 60.4257 60.8111 60.1185C60.6368 59.963 60.4644 59.7996 60.2999 59.6072C60.2176 59.508 60.1373 59.4088 60.059 59.2922C59.9826 59.1814 59.9023 59.0453 59.8475 58.9189C59.6144 58.3998 59.5497 57.9331 59.5008 57.4665C59.4577 57.0018 59.4577 56.5449 59.4929 56.086C59.5321 55.6233 59.5889 55.1664 59.7456 54.6648C59.632 54.9408 59.6496 54.7639 59.6418 54.6939C59.6496 54.6745 59.6555 54.655 59.6614 54.6356C59.6555 54.655 59.6477 54.6745 59.6418 54.6939C59.6418 54.6298 59.587 54.6667 59.4714 55.1547C59.5889 54.6686 59.6438 54.6298 59.6418 54.6939C59.4871 55.1897 59.4185 55.6447 59.3735 56.1055C59.3323 56.5643 59.3284 57.0193 59.3676 57.4859C59.3852 57.7192 59.4185 57.9564 59.4675 58.1995C59.5204 58.4445 59.585 58.6914 59.7084 58.9636C59.7632 59.0958 59.8455 59.2358 59.9238 59.3544C60.0041 59.4749 60.0864 59.5799 60.1687 59.681C60.3371 59.8774 60.5095 60.0466 60.6858 60.2041C61.0383 60.5132 61.4007 60.7776 61.7806 61.0168C61.9706 61.1354 62.1645 61.2481 62.3702 61.357L62.5269 61.4367L62.6738 61.5028L62.9676 61.637C63.751 61.987 64.5658 62.2747 65.3983 62.4886C67.069 62.9086 68.7946 63.0272 70.4868 62.9572C71.333 62.9202 72.1732 62.8405 73.0096 62.7375C73.4287 62.6869 73.844 62.6247 74.2612 62.5644C74.6823 62.5003 75.1191 62.4264 75.5715 62.3156C74.8664 62.4906 74.2102 62.578 73.5639 62.6753C72.9117 62.7666 72.2555 62.8522 71.5935 62.9066C70.2714 63.0291 68.9199 63.0486 67.5685 62.9183C66.2189 62.7744 64.8694 62.473 63.6002 61.9695C63.279 61.8509 62.9695 61.7109 62.6601 61.569C62.5112 61.5048 62.3349 61.4173 62.1783 61.3298C62.0196 61.2423 61.8649 61.1529 61.7141 61.0576C61.4124 60.8671 61.1225 60.6629 60.8405 60.4315C60.5584 60.2002 60.2803 59.9416 60.0159 59.6091C59.9493 59.5294 59.8847 59.4302 59.822 59.3369C59.7593 59.2319 59.6966 59.125 59.6516 59.018L59.5811 58.8567L59.5282 58.7031C59.491 58.5981 59.4636 58.5009 59.4401 58.4017C59.3421 58.0089 59.301 57.6395 59.2814 57.274C59.2462 56.5449 59.2971 55.8469 59.4616 55.1081C59.4812 55.0167 59.5067 54.9214 59.5341 54.8261C59.5595 54.7328 59.5928 54.6336 59.63 54.5345C59.6673 54.4256 59.6986 54.3634 59.7319 54.2778L59.8337 54.0368C59.9748 53.7179 60.1295 53.4029 60.3019 53.0938C60.6446 52.4774 61.054 51.8902 61.5241 51.3517C62.4623 50.2707 63.6433 49.4074 64.9067 48.7794C65.224 48.6219 65.5393 48.4761 65.8821 48.338C66.2229 48.2078 66.5676 48.0872 66.9201 47.9939C67.6253 47.7994 68.3519 47.6906 69.0864 47.6478C69.3371 47.6381 69.7132 47.6264 70.0892 47.6478C70.4653 47.6614 70.8394 47.71 71.0882 47.7431C71.3349 47.7975 71.5778 47.8578 71.8187 47.9258C72.0577 47.9939 72.2868 48.0658 72.518 48.1455C72.9802 48.303 73.4346 48.48 73.8812 48.686C74.7704 49.0963 75.6263 49.6154 76.3785 50.2784C76.118 50.2007 76.2923 50.5623 76.1571 50.6167C76.0905 50.6459 75.9593 50.5934 75.6577 50.397C75.3561 50.2045 74.884 49.8623 74.0594 49.4365C74.0398 49.4754 74.0007 49.5551 73.983 49.594C74.7822 50.0373 75.358 50.5565 75.7223 50.9959C76.0905 51.4353 76.2472 51.7989 76.2747 51.9797C76.2903 52.0769 76.2688 52.1313 76.21 52.1352C76.1493 52.1372 76.0553 52.0983 75.928 52.0205C75.6675 51.863 75.2679 51.5208 74.5863 51.1028C73.8244 50.6265 72.9077 50.2318 71.8814 49.9576C71.3604 49.8157 70.859 49.7185 70.3204 49.6718C69.7857 49.6232 69.2372 49.6271 68.6868 49.6854C68.1365 49.7418 67.5861 49.8585 67.0514 50.0296C66.783 50.1151 66.5245 50.2143 66.262 50.3309C65.9937 50.4495 65.7332 50.5778 65.4766 50.7139C64.4542 51.2622 63.5571 51.9875 62.8794 52.8527C62.3839 53.4807 61.9726 54.1729 61.6651 54.9253L61.5515 55.2033C61.528 55.2714 61.5045 55.3414 61.4829 55.425C61.4398 55.5864 61.4046 55.7691 61.3791 55.9558C61.3262 56.331 61.3067 56.7257 61.3243 57.1029C61.338 57.4762 61.3948 57.8534 61.4849 58.0964C61.528 58.2092 61.5554 58.2617 61.6494 58.3823C61.7376 58.495 61.857 58.6195 61.9902 58.7419C62.2625 58.9869 62.5837 59.2261 62.9147 59.4341C63.0831 59.5391 63.2418 59.6324 63.4142 59.718L63.9802 59.9902C65.032 60.4607 66.1661 60.8068 67.3608 60.9701C68.5517 61.1451 69.7935 61.1529 71.0451 61.0712C71.6718 61.0226 72.3006 60.9662 72.9293 60.8807C73.5561 60.799 74.2024 60.7135 74.7802 60.6007C75.3619 60.486 75.8908 60.3265 76.3432 60.0835C76.5685 59.961 76.7741 59.8152 76.9641 59.6519C77.1502 59.4827 77.3206 59.2961 77.4753 59.09C77.6908 58.7867 77.8866 58.3725 78.012 57.9078C78.1315 57.4412 78.1824 56.9279 78.1491 56.4457C78.108 55.493 77.6947 54.6803 77.5635 54.2837C77.3343 53.7334 77.3813 53.6654 77.5243 53.6907C77.8905 54.2934 78.1843 54.9311 78.3371 55.5844C78.4899 56.2299 78.4958 56.926 78.3704 57.5812C78.247 58.2384 77.9904 58.8703 77.5987 59.3894C77.2089 59.9124 76.6958 60.3129 76.0866 60.5696C75.3384 60.8846 74.4805 61.0129 73.5952 61.1354C72.7138 61.2579 71.8344 61.3551 70.9569 61.4056C69.2039 61.5087 67.4549 61.4056 65.8076 60.9487C67.4157 61.4095 69.1491 61.5301 70.906 61.4309C71.7854 61.3823 72.6707 61.2831 73.56 61.1568C74.4531 61.0284 75.3286 60.8962 76.0886 60.5696C76.6977 60.3188 77.2148 59.9241 77.6105 59.4069C78.0081 58.8936 78.2705 58.2675 78.4057 57.6143C78.5428 56.9629 78.5447 56.2688 78.4115 55.6214C78.2784 54.9661 77.9924 54.3264 77.6477 53.7218C77.7769 53.7626 77.9082 53.8073 77.8964 53.6109C77.8964 53.6109 77.867 53.5643 77.82 53.4865C77.773 53.4087 77.7064 53.3037 77.6281 53.1871C77.4753 52.9538 77.2775 52.6835 77.1404 52.5066C76.6762 51.7347 76.5234 51.4061 76.6272 51.3147C76.7232 51.2272 77.0581 51.3925 77.4401 51.6861C77.6281 51.8416 77.8337 52.0263 78.057 52.2422L78.0551 52.2441Z" fill="white"></path>
<path d="M66.2875 35.5677C66.3286 35.5891 66.4246 35.6105 66.55 35.6221C66.6988 35.6338 66.8888 35.6416 67.0573 35.6513L67.5763 35.6746L68.6203 35.7077C69.3175 35.7252 70.0207 35.731 70.7317 35.733C71.4446 35.7291 72.1654 35.7271 72.9019 35.7233C73.2701 35.7194 73.6422 35.7174 74.0183 35.7135C74.4022 35.7096 74.7626 35.7155 75.0584 35.6669C75.4697 35.6144 75.8066 35.3888 75.8575 35.1225C75.8967 34.9766 75.8771 34.7667 75.8105 34.5372C75.7458 34.3097 75.6381 34.0512 75.5265 33.8062C75.2993 33.3123 75.0153 32.8146 74.743 32.3149C74.4708 31.8172 74.2044 31.3291 73.9458 30.8567C74.2416 31.4205 74.5393 31.9883 74.839 32.5599C75.1406 33.1315 75.4383 33.6837 75.6479 34.2398C75.7537 34.5139 75.8203 34.7705 75.8144 34.9669C75.8046 35.1652 75.7576 35.2605 75.6205 35.3849C75.5519 35.4433 75.4658 35.4977 75.3659 35.5405C75.2699 35.5833 75.1582 35.6124 75.0329 35.6358C74.7841 35.6805 74.4884 35.6844 74.1613 35.6883C72.8647 35.7058 71.572 35.7019 70.2988 35.6708C69.6623 35.6552 69.0296 35.6319 68.4048 35.6027C68.0934 35.5852 67.782 35.5697 67.4705 35.5522L67.0063 35.523C66.8575 35.5113 66.6871 35.5016 66.5578 35.4899C66.6597 35.4666 66.8026 35.4433 66.9358 35.4219C67.0729 35.4005 67.214 35.383 67.3628 35.3674C67.6586 35.3363 67.9798 35.3188 68.3226 35.3188C69.9796 35.3655 71.617 35.3752 73.2388 35.3577C73.2388 35.4024 73.2427 35.488 73.2427 35.5308C73.5306 35.5172 73.8185 35.5035 74.1045 35.488C74.3963 35.4744 74.6588 35.4666 74.8684 35.4335C74.9741 35.418 75.0681 35.3986 75.1504 35.3713C75.2288 35.348 75.2953 35.3169 75.3541 35.2819C75.4129 35.2469 75.4579 35.21 75.4893 35.1769C75.5186 35.1419 75.5323 35.1225 75.5461 35.0933C75.5696 35.0466 75.5852 34.9183 75.5461 34.7336C75.5284 34.6422 75.499 34.5411 75.4618 34.4322C75.4227 34.3214 75.3776 34.2009 75.3306 34.0862C75.1387 33.6195 74.8899 33.1432 74.6314 32.6454C73.6089 30.6661 72.5748 28.6927 71.38 26.7173C71.4368 26.8728 71.3604 26.8048 71.3173 26.7873C72.4161 28.7704 73.4621 30.6992 74.4943 32.6338C74.7548 33.1218 75.0074 33.5884 75.2033 34.0414C75.2993 34.267 75.3933 34.5042 75.4364 34.6811C75.4853 34.8639 75.4814 35 75.4638 35.0447C75.4579 35.0641 75.4481 35.0777 75.4344 35.0933C75.4187 35.1108 75.3913 35.138 75.3482 35.1672C75.2562 35.2275 75.1406 35.2722 74.9565 35.3033C74.7763 35.3344 74.5432 35.3422 74.2671 35.3441C73.987 35.3461 73.7049 35.3499 73.4209 35.3519L74.079 35.3422C74.3023 35.3383 74.5119 35.3344 74.6842 35.3227C74.8605 35.3111 75.0035 35.2858 75.1171 35.2527C75.219 35.2236 75.3091 35.173 75.36 35.1302C75.4168 35.0816 75.4207 35.07 75.4285 35.0466C75.4364 35.0272 75.4481 34.9553 75.4285 34.8367C75.3952 34.6072 75.2366 34.2184 75.0701 33.8664C74.8997 33.5087 74.6999 33.1393 74.4903 32.7563L73.8695 31.613C73.4542 30.8508 73.039 30.0906 72.6237 29.3265C72.2066 28.5644 71.7894 27.8002 71.3702 27.0361L71.0549 26.4606L70.9001 26.1787L70.8688 26.1243C70.8688 26.1243 70.8649 26.1204 70.8649 26.1165L70.8551 26.1029C70.8316 26.0659 70.7787 26.0582 70.7434 26.0795C70.716 26.099 70.7434 26.0659 70.6279 26.1865C70.5397 26.2856 70.4379 26.4295 70.3184 26.6084C70.0814 26.9661 69.8483 27.3278 69.6211 27.6953C69.1687 28.4302 68.7417 29.1885 68.3421 29.9662C68.2031 30.2306 67.9406 30.7653 67.8153 31.0375C67.1865 32.0621 66.693 33.1626 66.3032 34.2961C66.2483 34.1192 66.0172 34.2786 65.9095 34.2028C65.8057 34.1289 65.8057 33.8042 66.2895 32.6824C66.2483 32.6668 66.1661 32.6338 66.1249 32.6182C65.5726 33.7187 65.1221 34.4653 64.8518 34.6247C64.7206 34.7025 64.6344 34.6383 64.6227 34.3992C64.6109 34.1581 64.6697 33.744 64.844 33.1354C65.2436 31.7705 65.9036 30.2384 66.7263 28.7063C67.1376 27.9402 67.59 27.1722 68.066 26.4217C68.1874 26.2351 68.303 26.0445 68.4264 25.8598C68.5517 25.6712 68.6614 25.4963 68.8024 25.2921C68.9454 25.088 69.1158 24.8566 69.3646 24.6291C69.6681 24.3491 70.0442 24.143 70.4399 24.0555C71.0157 23.9233 71.6444 24.0555 72.091 24.4463C72.3162 24.6349 72.5004 24.8896 72.6433 25.1424L72.8784 25.5604C73.1761 26.099 73.4758 26.6356 73.7735 27.1722C74.365 28.2494 74.9408 29.3362 75.4873 30.4367C75.8731 31.2047 76.2649 31.9844 76.6605 32.7699C76.7624 32.9798 76.8603 33.1957 76.9543 33.4212C77.0013 33.534 77.0464 33.6487 77.0875 33.7673C77.1326 33.8898 77.1757 34.0181 77.2129 34.1581C77.2873 34.4342 77.3461 34.755 77.3186 35.1264C77.2951 35.4958 77.1424 35.9216 76.8897 36.2288C76.6429 36.5379 76.3432 36.744 76.0396 36.8859C75.7302 37.0318 75.4207 37.0998 75.1426 37.1387C74.8625 37.1756 74.6079 37.1815 74.3767 37.1854C74.1535 37.1854 73.9321 37.1873 73.7108 37.1892C72.8274 37.1892 71.9539 37.1756 71.0999 37.1426C69.8581 37.1173 67.684 37.2437 67.0651 37.1037C66.6205 37.0357 66.6029 36.9423 66.6734 36.8393C68.7104 36.8801 70.7415 36.8743 72.7491 36.8509L73.6736 36.8471C73.985 36.8432 74.2808 36.8471 74.6098 36.8373C74.9389 36.8257 75.3012 36.7965 75.6792 36.6682C76.0533 36.536 76.4274 36.3143 76.6977 35.9293C76.8329 35.7388 76.923 35.5094 76.9661 35.2838C77.0072 35.0602 77.0052 34.8425 76.9817 34.6461C76.9328 34.2495 76.8094 33.917 76.6958 33.6156C76.4568 33.0012 76.163 32.4413 75.8967 31.8969C76.1513 32.4316 76.4333 32.9857 76.6684 33.5923C76.782 33.8917 76.9014 34.2145 76.9563 34.6014C76.9817 34.7939 76.9896 35.0039 76.9563 35.2236C76.923 35.4433 76.8388 35.6727 76.7134 35.8652C76.4549 36.2579 76.0886 36.4893 75.7165 36.6293C75.3384 36.7673 74.9741 36.8023 74.6412 36.8159C74.3082 36.8276 74.0085 36.8276 73.6912 36.8334C73.3778 36.8373 73.0664 36.8412 72.7511 36.8451C70.7474 36.8471 68.7417 36.8198 66.74 36.7498C66.8144 36.6604 66.8849 36.569 66.7654 36.4815C66.7654 36.4815 66.6126 36.4815 66.4129 36.4737C66.215 36.466 65.9604 36.4193 65.8096 36.3279C65.5197 36.0946 65.5334 35.8107 65.6 35.7096C65.6725 35.5988 65.7587 35.6221 65.8116 35.6513C65.8409 35.6669 65.8684 35.6883 65.8977 35.7019L65.9212 35.7116H65.9252C65.9252 35.7116 65.9389 35.7174 65.9467 35.7174C65.9702 35.7213 66.0153 35.7194 66.0662 35.7058L66.1034 35.6941L66.123 35.6863C66.1367 35.6805 66.1484 35.6766 66.1622 35.6688C66.17 35.6649 66.1837 35.6552 66.1896 35.6513C66.1817 35.6591 66.168 35.6746 66.1504 35.698L66.1387 35.7174L66.2072 35.6027L66.2092 35.6008L66.2131 35.5969L66.2307 35.5852C66.2444 35.5774 66.2562 35.5697 66.2758 35.5599L66.2875 35.5677Z" fill="white"></path>
<path d="M70.1284 31.7008C70.1343 31.6833 70.1401 31.6677 70.146 31.6522C70.2263 31.3567 70.1401 31.0922 70.1911 30.7792C70.2518 30.5575 70.1832 30.3223 70.1676 30.1104C70.1245 30.6217 70.2244 31.1369 70.0109 31.6755C69.8992 31.6444 69.8072 31.5997 69.7954 31.5297C69.8072 31.3567 69.8111 31.1875 69.8072 31.0203C69.8502 31.0145 69.9364 31.0028 69.9815 30.997C69.7876 30.5478 70.101 30.0909 69.86 29.6437C69.8365 29.6612 69.8013 29.6534 69.7719 29.6515C69.7464 29.6496 69.7269 29.6515 69.7288 29.6807C69.7288 29.6515 69.7464 29.6496 69.7719 29.6515C69.8365 30.1065 69.8307 30.5342 69.8072 31.0028C69.7954 30.2853 69.6642 29.6068 69.6701 28.8718C69.6701 28.8407 69.6701 28.7785 69.6701 28.7474C69.8052 28.6249 69.8522 28.5024 69.8581 28.3799C70.0775 28.4188 70.5221 28.3177 70.4241 28.551C70.4672 28.551 70.5554 28.5549 70.6004 28.5569C70.8296 28.3255 71.4485 28.2808 71.617 28.5063C71.7834 28.7552 71.6032 29.0779 71.7012 29.3774C71.7521 29.5932 71.8069 29.8051 71.7364 30.0268C71.6287 30.3359 71.709 30.6567 71.5797 30.9814C71.5523 31.0981 71.7149 31.2672 71.5954 31.343C71.5406 31.3936 71.4485 31.4111 71.3447 31.4247C71.3271 31.24 71.3016 31.0553 71.2957 30.8725C71.3134 30.6431 71.3427 30.4156 71.4093 30.1881C71.3075 30.4137 71.2879 30.6431 71.2957 30.8725C71.284 31.0572 71.2722 31.2361 71.2605 31.4344C71.1704 31.4441 71.0764 31.4539 70.9941 31.4791C70.9941 31.4791 71.0039 31.5355 71.0098 31.5647C70.8139 31.7183 70.5064 31.7513 70.2792 31.73C70.2322 31.7222 70.1793 31.7125 70.1264 31.7047L70.1284 31.7008Z" fill="white"></path>
<path d="M71.4584 34.5181C71.4584 34.5181 71.4446 34.4986 71.4368 34.4908C71.3095 34.3606 71.1822 34.4034 71.0412 34.3159C70.9432 34.2284 70.8296 34.2711 70.7317 34.2711C70.9648 34.3509 71.2116 34.3217 71.4368 34.625C71.4133 34.7281 71.3878 34.8097 71.3545 34.8097C71.2782 34.7689 71.2037 34.7397 71.1293 34.7203V34.5472C70.9178 34.6794 70.7199 34.3295 70.5084 34.5472C70.5162 34.5706 70.5123 34.6056 70.5084 34.6347C70.5084 34.66 70.5084 34.6794 70.5202 34.6794C70.5064 34.6794 70.5064 34.66 70.5084 34.6347C70.716 34.592 70.9099 34.6347 71.1195 34.7183C70.7963 34.6367 70.4869 34.7222 70.1558 34.7222H70.099C70.0422 34.592 69.9854 34.5472 69.9306 34.5472C69.9443 34.3295 69.8875 33.8901 70.0011 33.9776V33.8026C69.8875 33.5848 69.8464 32.9704 69.958 32.7954C70.0853 32.6204 70.2538 32.7954 70.4085 32.7079C70.5221 32.6652 70.6338 32.6204 70.7474 32.7079C70.9021 32.8401 71.0725 32.7954 71.2272 32.9704C71.284 33.0132 71.382 32.8829 71.4113 33.0132C71.4309 33.0754 71.4329 33.1687 71.429 33.2737C71.3369 33.2582 71.2449 33.2543 71.1528 33.2348C71.0412 33.1862 70.9295 33.1318 70.8159 33.0443C70.9256 33.1648 71.0372 33.2115 71.1528 33.2348C71.2449 33.2757 71.335 33.3107 71.427 33.3573C71.4231 33.4468 71.4211 33.5401 71.427 33.6256H71.4701C71.5269 33.8434 71.5132 34.1506 71.4838 34.3703C71.476 34.415 71.4681 34.4656 71.4603 34.5142L71.4584 34.5181Z" fill="white"></path>
</g>
<defs>
<clipPath id="clip0_5454_3434">
<rect width="36" height="40" fill="white" transform="translate(44 23)"></rect>
</clipPath>
</defs>
</svg>