<svg width="125" height="125" viewBox="0 0 125 125" fill="none" xmlns="http://www.w3.org/2000/svg">
<rect width="125" height="125" rx="20" fill="#1C415A"></rect>
<path d="M41.8672 98L38.6406 92.7344L37.1172 94.8984V98H35.5547V86.5547H37.1172V92.7812L41.3672 86.5547H43.1094L39.6875 91.5156L43.5938 98H41.8672ZM43.6094 93.7969C43.6094 92.5052 43.9557 91.4635 44.6484 90.6719C45.3464 89.875 46.263 89.4766 47.3984 89.4766C48.5964 89.4766 49.526 89.8594 50.1875 90.625C50.849 91.3854 51.1797 92.4427 51.1797 93.7969C51.1797 95.1458 50.8411 96.2109 50.1641 96.9922C49.487 97.7682 48.5651 98.1562 47.3984 98.1562C46.2057 98.1562 45.276 97.763 44.6094 96.9766C43.9427 96.1901 43.6094 95.1302 43.6094 93.7969ZM45.1719 93.7969C45.1719 95.8958 45.9141 96.9453 47.3984 96.9453C48.0911 96.9453 48.6328 96.6641 49.0234 96.1016C49.4193 95.5391 49.6172 94.7708 49.6172 93.7969C49.6172 91.724 48.8776 90.6875 47.3984 90.6875C46.7214 90.6875 46.1797 90.9635 45.7734 91.5156C45.3724 92.0677 45.1719 92.8281 45.1719 93.7969ZM57.8984 98V93.1328C57.8984 92.2422 57.763 91.6198 57.4922 91.2656C57.2266 90.9062 56.7786 90.7266 56.1484 90.7266C55.8099 90.7266 55.4557 90.8281 55.0859 91.0312C54.7161 91.2344 54.4323 91.4844 54.2344 91.7812V98H52.75V89.6328H53.7656L54.2344 90.7109C54.724 89.888 55.5234 89.4766 56.6328 89.4766C58.4661 89.4766 59.3828 90.5911 59.3828 92.8203V98H57.8984ZM62.0312 90.8047H61.0625V89.6328H62.0312V87.8828L63.5156 87.3125V89.6328H65.8125V90.8047H63.5156V94.9609C63.5156 95.6641 63.6328 96.1641 63.8672 96.4609C64.1068 96.7578 64.4896 96.9062 65.0156 96.9062C65.3958 96.9062 65.7891 96.8099 66.1953 96.6172L66.4141 97.9219C65.7995 98.0781 65.125 98.1562 64.3906 98.1562C63.7292 98.1562 63.1693 97.9115 62.7109 97.4219C62.2578 96.9271 62.0312 96.3047 62.0312 95.5547V90.8047ZM72.5703 97.0391C71.9766 97.7839 71.0677 98.1562 69.8438 98.1562C69.1875 98.1562 68.6172 97.9193 68.1328 97.4453C67.6536 96.9661 67.4141 96.3724 67.4141 95.6641C67.4141 94.8151 67.7839 94.099 68.5234 93.5156C69.2682 92.9271 70.2161 92.6328 71.3672 92.6328C71.6797 92.6328 72.0339 92.7005 72.4297 92.8359C72.4297 91.4818 71.8255 90.8047 70.6172 90.8047C69.6901 90.8047 68.9766 91.0547 68.4766 91.5547L67.8516 90.3125C68.1328 90.0833 68.5208 89.888 69.0156 89.7266C69.5156 89.5599 69.9922 89.4766 70.4453 89.4766C71.6589 89.4766 72.5391 89.7526 73.0859 90.3047C73.638 90.8568 73.9141 91.7344 73.9141 92.9375V95.9375C73.9141 96.6719 74.1328 97.1615 74.5703 97.4062V98.1484C73.9661 98.1484 73.513 98.0625 73.2109 97.8906C72.9141 97.7188 72.7005 97.4349 72.5703 97.0391ZM72.4297 93.8906C71.9609 93.7865 71.6328 93.7344 71.4453 93.7344C70.6953 93.7344 70.0833 93.9271 69.6094 94.3125C69.1354 94.6979 68.8984 95.1536 68.8984 95.6797C68.8984 96.5495 69.4115 96.9844 70.4375 96.9844C71.1875 96.9844 71.8516 96.6276 72.4297 95.9141V93.8906ZM81.6562 98L79.0312 93.8125L77.7344 95.1484V98H76.25V86.2031H77.7344V93.5234L80.9375 89.6328H82.6719L79.9922 92.8125L83.2656 98H81.6562ZM84.8594 90.8047H83.8906V89.6328H84.8594V87.8828L86.3438 87.3125V89.6328H88.6406V90.8047H86.3438V94.9609C86.3438 95.6641 86.4609 96.1641 86.6953 96.4609C86.9349 96.7578 87.3177 96.9062 87.8438 96.9062C88.224 96.9062 88.6172 96.8099 89.0234 96.6172L89.2422 97.9219C88.6276 98.0781 87.9531 98.1562 87.2188 98.1562C86.5573 98.1562 85.9974 97.9115 85.5391 97.4219C85.0859 96.9271 84.8594 96.3047 84.8594 95.5547V90.8047Z" fill="white"></path>
<path d="M76.8301 59.6899C77.3571 59.8398 77.8716 59.9896 78.3861 60.1395L79.0637 60.3269L79.3021 60.4019L79.7538 60.5392L79.666 60.0021L79.5656 59.4026L79.415 58.5657C79.2143 57.4539 79.0135 56.3422 78.8127 55.218C78.5994 54.0564 78.3861 52.8822 78.1728 51.708C78.1728 51.6831 78.1728 51.6456 78.1602 51.6206L78.1853 51.5332L78.2355 51.3708L78.3108 51.0835L78.4237 50.6713C78.499 50.3965 78.5743 50.1217 78.637 49.8344C78.7876 49.2848 78.9257 48.7227 79.0637 48.1606C79.6033 45.9247 80.0299 43.6513 80.1303 41.3279C80.1428 40.7409 80.1554 40.1788 80.1052 39.6167C80.0676 39.0421 79.9672 38.48 79.8542 37.9054C79.6033 36.7687 79.2268 35.6445 78.6998 34.5702C78.2982 33.7333 77.8214 32.9214 77.2567 32.147C76.6921 31.3725 76.0395 30.673 75.3243 29.9735C73.8938 28.5995 72.2499 27.4128 70.443 26.5635C68.636 25.7016 66.6785 25.2019 64.7084 25.0395C62.6881 24.8647 60.718 24.7647 58.8483 24.9271C60.9439 24.7522 63.1147 24.9021 65.2731 25.127C67.3686 25.3643 69.414 26.0263 71.2712 27.0631C73.1283 28.0874 74.8098 29.4614 76.2654 31.0353C77.6834 32.5842 78.7625 34.4578 79.4276 36.4564C79.7538 37.4557 79.9923 38.48 80.0801 39.5042C80.1679 40.5285 80.1177 41.5902 80.0299 42.652C79.8291 44.7755 79.3648 46.874 78.8253 48.9475C78.6872 49.4721 78.5492 49.9843 78.4112 50.5089L78.1728 51.3833C78.0724 51.5956 78.1728 51.8205 78.1979 52.0453L78.2731 52.4575C78.4614 53.5193 78.6496 54.581 78.8378 55.6302C79.026 56.6795 79.2017 57.7288 79.3899 58.778L79.528 59.5649L79.5907 59.9022V59.9896L79.6409 60.3144L79.3523 60.2145L79.2143 60.1645L78.5492 59.9772C78.7625 60.0146 78.9633 60.0646 79.1892 60.1021C79.2645 60.1146 79.2519 60.1021 79.2645 60.1021H79.2896C79.2896 60.1021 79.3147 60.1021 79.3272 60.0896C79.3648 60.0771 79.3899 60.0521 79.3899 60.0396C79.3523 59.9771 79.3272 59.9522 79.3147 59.9397V59.9147L79.2896 59.8023C79.2645 59.6524 79.2268 59.5025 79.2017 59.3401C79.139 59.0278 79.0762 58.7155 79.0135 58.3908C78.75 56.9293 78.4865 55.4679 78.2229 54.0189L78.0222 52.9322L77.9218 52.3826L77.8716 52.0828L77.8214 51.8205L77.7963 51.6831C77.7963 51.6831 77.7712 51.5956 77.7963 51.5457C78.0096 50.7587 78.2104 49.9718 78.4237 49.1723C79.1515 46.3619 79.7413 43.5763 79.7789 40.8158C79.8291 40.8158 79.9421 40.8158 79.9923 40.8158C79.9923 38.9047 79.528 37.006 78.7625 35.2573C78.3735 34.3829 77.9092 33.546 77.3697 32.7715C77.2442 32.5717 77.0936 32.3843 76.9556 32.1969C76.8175 32.0096 76.667 31.8222 76.5164 31.6473C76.2152 31.2851 75.889 30.9478 75.5502 30.5981C74.1824 29.2365 72.6515 28.0499 70.9826 27.163C69.3011 26.2762 67.4816 25.6766 65.6119 25.4268C65.3734 25.4018 65.1476 25.3643 64.8966 25.3393L64.1563 25.2769C63.6669 25.2394 63.1649 25.1894 62.6756 25.1644C61.6968 25.102 60.718 25.0895 59.7518 25.127C57.8193 25.2144 55.9371 25.5891 54.218 26.3761C52.4737 27.1755 50.8425 28.2747 49.4245 29.5988C48.7218 30.2608 48.0693 30.9853 47.5046 31.7722C47.2285 32.1595 46.965 32.5717 46.7392 32.9839C46.5133 33.3961 46.3125 33.8208 46.1243 34.283C46.3753 33.7833 46.2874 34.1081 46.2623 34.2205C46.2498 34.258 46.2372 34.2954 46.2121 34.3204C46.2247 34.283 46.2372 34.258 46.2623 34.2205C46.2623 34.2705 46.2623 34.283 46.3251 34.183C46.3502 34.1331 46.4004 34.0456 46.4631 33.9082C46.4004 34.0331 46.3627 34.1206 46.3251 34.183C46.2623 34.2954 46.2623 34.283 46.2623 34.2205C46.3627 33.9957 46.4505 33.7708 46.5635 33.571C46.6639 33.3586 46.7643 33.1588 46.8897 32.9589C47.0027 32.759 47.1282 32.5592 47.2536 32.3718C47.3791 32.172 47.5046 31.9846 47.6552 31.7972C48.2073 31.0478 48.8473 30.3483 49.5374 29.6987C50.9178 28.4121 52.5239 27.3379 54.218 26.551C55.8994 25.764 57.719 25.3893 59.5887 25.2894C60.5298 25.2394 61.4835 25.2519 62.4371 25.2894C62.914 25.3143 63.4034 25.3393 63.8802 25.3893L64.608 25.4517L64.9719 25.4892L65.3107 25.5267C66.2267 25.6266 67.1428 25.814 68.0211 26.0763C68.8995 26.3386 69.7654 26.6884 70.5936 27.1131C72.2499 27.95 73.7808 29.0617 75.1361 30.3732C75.8262 31.0353 76.4411 31.7098 76.9932 32.4593C77.5453 33.2087 78.0222 34.0081 78.4237 34.8451C79.2268 36.5189 79.7287 38.3675 79.7789 40.2037C79.7538 39.4917 79.666 38.7797 79.5154 38.0678C79.3648 37.3558 79.1515 36.6688 78.888 35.9817C78.637 35.2947 78.3108 34.6452 77.9594 34.0081C77.5955 33.3711 77.2065 32.759 76.7548 32.1844C75.8764 31.0602 74.7722 30.011 73.6177 29.0867C73.0405 28.637 72.4382 28.1998 71.8107 27.8251C71.497 27.6252 71.1708 27.4628 70.8571 27.2754C70.5308 27.1131 70.2046 26.9382 69.8658 26.8008C68.5356 26.2012 67.1177 25.814 65.6746 25.6141C64.9719 25.5267 64.1688 25.4642 63.4159 25.4018C62.6505 25.3518 61.8976 25.3143 61.1447 25.3143C59.6514 25.3143 58.1707 25.4143 56.7653 25.7515C56.0626 25.9139 55.3724 26.1263 54.7199 26.4136C54.0548 26.6884 53.4023 27.0256 52.7624 27.4004C51.495 28.1498 50.3154 29.0367 49.2614 30.061C48.7343 30.5731 48.2575 31.1227 47.8183 31.6848C47.3791 32.2594 46.9901 32.859 46.6639 33.496C46.5007 33.7958 46.3502 34.1455 46.1996 34.4828C46.049 34.8201 45.9235 35.1698 45.7855 35.5196C45.66 35.8693 45.5471 36.2191 45.4216 36.5813C45.3212 36.9436 45.2083 37.2933 45.1204 37.6555C44.7565 39.1045 44.5432 40.5785 44.493 42.0649C44.3926 45.0378 45.0451 48.0232 46.3 50.7712C46.4505 51.121 46.6388 51.4457 46.8144 51.783L47.078 52.2826L47.3666 52.7448C47.7556 53.3569 48.1948 53.9439 48.6967 54.4686C48.9351 54.7434 49.2112 54.9932 49.4747 55.2555C49.7633 55.4928 50.0268 55.7427 50.328 55.9675C50.9178 56.4297 51.5452 56.8419 52.2102 57.2291C52.662 57.4914 53.3521 57.8537 54.0674 58.1909C54.7952 58.5157 55.523 58.8155 56.0375 58.9904C56.2884 59.0903 56.5269 59.1902 56.7778 59.2777L57.1543 59.4151C57.2798 59.465 57.3927 59.49 57.5182 59.54C57.7566 59.6149 57.995 59.7023 58.246 59.7523C58.497 59.8148 58.7354 59.8897 58.9989 59.9272C60.0153 60.127 61.0568 60.2395 62.0983 60.2395C64.1939 60.2395 66.3146 59.9022 68.2847 59.1902C67.8329 59.4775 68.6486 59.4151 68.5733 59.5899C68.5607 59.6399 68.4854 59.7023 68.3098 59.7898C68.1341 59.8772 67.8831 60.0021 67.4941 60.1395C66.7161 60.4143 65.3734 60.7891 63.2026 60.9265C63.2026 60.9764 63.2026 61.0889 63.2151 61.1388C65.4236 61.0514 67.2682 60.6767 68.6611 60.2894C70.054 59.9147 70.97 59.5025 71.4092 59.4026C71.6225 59.3526 71.7104 59.3651 71.6727 59.4525C71.6476 59.5025 71.5974 59.5649 71.5096 59.6399C71.4092 59.7273 71.2837 59.8273 71.108 59.9522C71.0202 60.0146 70.9198 60.0771 70.8194 60.152C70.7065 60.2145 70.5936 60.2894 70.4555 60.3644C70.3175 60.4393 70.1795 60.5143 70.0289 60.6017C69.8783 60.6891 69.7026 60.7516 69.5269 60.839C68.8117 61.1763 67.8957 61.5136 66.7663 61.8133C65.4864 62.1381 64.1312 62.3505 62.7132 62.4129C61.2952 62.4754 59.8145 62.4129 58.3087 62.1256C57.9323 62.0382 57.5558 61.9757 57.1794 61.8633C56.8029 61.7509 56.4139 61.651 56.0751 61.5261C55.3599 61.2887 54.6572 61.0264 53.9419 60.7266C52.5239 60.127 51.0934 59.4151 49.7508 58.4907C49.0731 58.041 48.4332 57.5164 47.8183 56.9668C47.216 56.3922 46.6262 55.7926 46.1243 55.1181C45.9863 54.9557 45.8733 54.7809 45.7478 54.606C45.6349 54.4311 45.4969 54.2687 45.3965 54.0814C45.1706 53.7191 44.9447 53.3569 44.7691 52.9946L44.2044 51.9079L43.715 50.7837C43.1001 49.2598 42.6359 47.6859 42.3723 46.0746C42.021 44.5381 41.9457 42.9018 42.0335 41.303C42.159 38.9671 42.6735 36.6688 43.4891 34.4953C43.6021 34.2205 43.6899 33.9457 43.8028 33.6834L44.1542 32.8839C44.2922 32.6091 44.4303 32.3343 44.5683 32.072C44.7189 31.8097 44.8695 31.5474 45.0326 31.2851C45.6851 30.2608 46.4505 29.349 47.2913 28.4996C48.132 27.6627 49.0355 26.9007 50.0017 26.2387C50.9679 25.5642 51.9844 24.9771 53.0761 24.4774C54.1678 23.9778 55.3348 23.6031 56.5018 23.3657C57.6813 23.1409 58.8609 23.0285 60.0279 23.0035C61.6215 22.9785 63.2151 23.0909 64.7711 23.2408L65.0597 23.2658L65.3734 23.3033L65.9883 23.3782C66.4024 23.4532 66.8165 23.5156 67.2181 23.6155C68.0337 23.7904 68.8368 24.0402 69.6273 24.3275C71.2084 24.9146 72.6891 25.7265 74.0569 26.7009C74.7345 27.188 75.387 27.7126 76.0019 28.2747C76.3031 28.562 76.6168 28.8368 76.9054 29.1366L77.3446 29.5863L77.7712 30.061C78.888 31.3475 79.804 32.784 80.4817 34.3329C81.1718 35.8693 81.6235 37.5057 81.7992 39.192L81.8494 39.829C81.862 40.0414 81.8494 40.2537 81.862 40.466C81.862 40.6784 81.862 40.8783 81.862 41.0906C81.862 41.2905 81.862 41.5028 81.8369 41.7027C81.7992 42.5146 81.7114 43.314 81.5985 44.101C81.3726 45.6748 81.0338 47.2112 80.6448 48.6977C80.5193 49.1848 80.3813 49.7095 80.2432 50.2716C80.1679 50.5464 80.0927 50.8337 80.0174 51.121C79.9797 51.2709 79.9421 51.4083 79.9044 51.5581L79.8793 51.6706C79.8793 51.6706 79.8793 51.7205 79.8793 51.733C80.1052 52.9072 80.3436 54.1438 80.582 55.343C80.8205 56.5796 81.0463 57.7912 81.2596 58.8654C81.3977 59.6024 81.5232 60.3019 81.6361 60.939C81.7741 61.7134 81.8996 62.4004 82 63C81.4604 62.8501 81.0338 62.7127 80.6824 62.6128C77.9845 61.8133 78.4112 61.8133 78.5868 61.7259C79.5907 62.0007 80.582 62.263 81.5734 62.5253C80.9208 59.0278 80.2683 55.5428 79.6158 52.0703L79.5656 51.808C79.5656 51.808 79.528 51.6956 79.5656 51.6456L79.7037 51.1459L80.0048 49.9718C80.2056 49.1848 80.4064 48.3979 80.582 47.5985C80.9459 46.0121 81.222 44.4007 81.3726 42.7644C81.4228 42.2023 81.4604 41.6527 81.473 41.0781C81.473 40.8033 81.473 40.516 81.473 40.2287C81.473 39.9414 81.4353 39.6541 81.4228 39.3668C81.3224 38.2177 81.0589 37.1059 80.7075 36.0192C79.9797 33.8583 78.8253 31.8347 77.2944 30.1359C75.7635 28.4621 74.0067 27.0006 71.999 25.8764C70.0038 24.7522 67.7827 23.9903 65.4864 23.703C67.72 23.9903 69.9159 24.7273 71.886 25.839C73.8687 26.9507 75.6254 28.3996 77.1689 30.0485C78.7249 31.7473 79.9044 33.7583 80.6573 35.9318C81.0212 37.0185 81.2973 38.1552 81.4102 39.3044C81.4604 39.879 81.4855 40.4785 81.473 41.0406C81.473 41.6152 81.4228 42.1773 81.3851 42.7519C81.2346 44.4007 80.9334 46.0246 80.5695 47.611C80.3813 48.4104 80.193 49.1973 79.9797 49.9843L79.666 51.1584L79.528 51.6581C79.528 51.6581 79.528 51.7205 79.528 51.7455V51.833L79.5907 52.1078L81.4604 62.3879L78.8629 61.6759C79.0511 61.6759 79.2017 61.651 79.2519 61.6135C79.3021 61.576 79.2394 61.5011 79.0135 61.3886C79.0135 61.3886 76.8677 60.8141 75.7886 60.5268C71.5723 59.1278 72.7519 59.0653 74.9478 59.3776C75.5125 59.4775 76.1399 59.5774 76.8301 59.7023V59.6899Z" fill="white"></path>
<path d="M55.2539 34.2685C55.1678 34.344 55.094 34.4195 55.0078 34.4951C54.934 34.5832 54.8479 34.6587 54.7863 34.7468C54.4541 35.1622 54.1957 35.6405 54.0235 36.1691C53.9742 36.295 53.9496 36.4335 53.9127 36.5593C53.8881 36.6978 53.8512 36.8237 53.8389 36.9621C53.7897 37.2516 53.7774 37.5411 53.7651 37.8306C53.7404 38.9886 53.9865 40.1718 54.4541 41.3047C54.6879 41.8711 54.9709 42.4375 55.2785 42.9913C55.5984 43.5452 55.9307 44.0864 56.2998 44.6151C57.0381 45.6724 57.9117 46.6668 58.8961 47.5982C60.2496 48.9073 61.9353 50.103 63.7564 50.9464C64.6669 51.3618 65.6144 51.6764 66.5619 51.8401C67.0294 51.9282 67.5093 51.9659 67.9769 51.9785C68.2107 51.9785 68.4445 51.9785 68.666 51.9534C68.7767 51.9534 68.8874 51.9282 68.9982 51.9156C69.0474 51.9156 69.1212 51.903 69.1458 51.8904C69.1827 51.8904 69.195 51.8904 69.2443 51.8652C69.195 51.8904 69.1704 51.8778 69.1335 51.8904L68.9367 51.9156C68.8013 51.9282 68.6783 51.9408 68.5429 51.9534C68.4076 51.9534 68.2722 51.9534 68.1492 51.9659C68.0138 51.9659 67.8785 51.9659 67.7431 51.9659C67.2017 51.9408 66.6726 51.8652 66.1435 51.7394C65.073 51.4876 64.0394 51.0597 63.0427 50.5436C61.0494 49.4737 59.2283 48.0388 57.7025 46.3521C56.9396 45.5088 56.2629 44.6025 55.6723 43.6333C55.3893 43.155 55.1186 42.6515 54.8725 42.148C54.6264 41.6445 54.4172 41.141 54.2572 40.625C53.9373 39.5928 53.802 38.5355 53.8881 37.516C53.9127 37.2642 53.9373 36.9999 53.9988 36.7733C54.0358 36.5468 54.1219 36.3202 54.1957 36.0936C54.368 35.6531 54.6018 35.2377 54.8848 34.8853C54.7125 35.2125 54.5526 35.5901 54.4418 36.0055C54.3803 36.2069 54.3311 36.4335 54.2942 36.66C54.2695 36.874 54.2326 37.1383 54.208 37.4153C54.085 38.7117 54.3557 40.046 54.8725 41.2921C54.934 41.4431 55.0078 41.6068 55.0816 41.7578C55.1555 41.9214 55.2293 42.0725 55.3031 42.2361C55.4631 42.5508 55.6231 42.8529 55.8076 43.155C56.1522 43.7592 56.5582 44.3382 56.9766 44.892C56.9396 44.9172 56.8658 44.9801 56.8289 45.0053C57.8256 46.2514 58.9453 47.3717 60.1635 48.3409C60.7664 48.8318 61.4062 49.2723 62.0584 49.6877C62.7105 50.103 63.3873 50.4681 64.0763 50.7828C65.4544 51.3995 66.9064 51.8023 68.346 51.7645C68.5306 51.752 68.7029 51.752 68.8874 51.7268H69.0228C69.0228 51.7268 69.1089 51.7016 69.1212 51.7016C69.1335 51.7016 69.1458 51.7016 69.1704 51.689L69.2566 51.6513C69.5396 51.5254 69.8718 51.3366 70.1671 51.1226C70.4747 50.9086 70.7823 50.6821 71.053 50.4429C71.1146 50.38 71.1884 50.317 71.2499 50.2667L71.3361 50.1786L71.373 50.1408C71.373 50.1408 71.4591 50.0401 71.4714 49.9772C71.4837 49.9142 71.4468 49.8513 71.4222 49.7884C71.4222 49.7758 71.4099 49.7632 71.3976 49.7506L71.3607 49.7003C71.3114 49.6247 71.2622 49.5492 71.2007 49.4737C70.9792 49.1716 70.7208 48.8695 70.4501 48.58C69.9087 48.001 69.3058 47.4346 68.6906 46.9563C68.8874 47.1577 68.7398 47.0821 68.6783 47.0696C68.666 47.0696 68.6536 47.0444 68.6413 47.0318C68.6536 47.0318 68.666 47.057 68.6783 47.0696C68.6167 47.0696 68.629 47.0821 68.9982 47.4094C68.6413 47.0947 68.629 47.057 68.6783 47.0696C69.2689 47.5605 69.8472 48.1269 70.3763 48.7059C70.6347 48.9954 70.8931 49.2975 71.1023 49.587C71.1515 49.6625 71.2007 49.7254 71.2499 49.801C71.2745 49.8261 71.2745 49.8387 71.2868 49.8513C71.2991 49.8891 71.3237 49.9142 71.3114 49.952C71.3114 49.9898 71.2745 50.0149 71.2499 50.0401V50.0653L71.1515 50.1408C71.09 50.2037 71.0284 50.2541 70.9669 50.317C70.7085 50.5436 70.4132 50.7702 70.1179 50.9716C69.8226 51.173 69.5027 51.3743 69.2443 51.4876C69.2074 51.5128 69.1827 51.5128 69.1581 51.5254C69.1335 51.5254 69.1089 51.5506 69.1089 51.538C69.1089 51.538 69.1089 51.538 69.0966 51.538H69.072L68.949 51.5506C68.7767 51.5757 68.6044 51.5883 68.4322 51.6009C67.0417 51.6638 65.6267 51.3114 64.2732 50.7324C63.5964 50.4429 62.9443 50.0779 62.2922 49.6877C61.64 49.2975 61.0248 48.8569 60.4342 48.3912C59.2406 47.4472 58.1455 46.3647 57.1857 45.1311C57.6656 45.7353 58.1701 46.3017 58.7115 46.843C59.2529 47.3842 59.8189 47.8877 60.4219 48.3534C61.0248 48.8192 61.64 49.2597 62.2922 49.6373C62.9443 50.0275 63.5964 50.38 64.2732 50.6695C65.6267 51.2485 67.054 51.6009 68.4322 51.5254C68.6044 51.5254 68.7767 51.5002 68.949 51.475H69.072C69.072 51.475 69.0966 51.4625 69.0966 51.4499C69.0966 51.4499 69.1212 51.4499 69.1458 51.4373C69.1704 51.4373 69.1951 51.4247 69.232 51.3995C69.4904 51.2736 69.8103 51.0848 70.1056 50.8834C70.4009 50.6821 70.6839 50.4555 70.9423 50.2289C71.0038 50.166 71.0654 50.1156 71.1269 50.0527L71.2007 49.9772C71.2007 49.9772 71.2253 49.9268 71.2376 49.9017C71.2376 49.8765 71.2253 49.8387 71.213 49.8135L71.1638 49.738L71.0654 49.5996C70.9915 49.5115 70.93 49.4108 70.8439 49.3101C70.5363 48.9324 70.1917 48.5423 69.8349 48.1772C69.4781 47.8122 69.0966 47.4598 68.7152 47.1325C68.6167 47.057 68.5306 46.9815 68.4322 46.9059L68.2968 46.8052L68.223 46.7549C68.223 46.7549 68.1738 46.7171 68.1492 46.7297L67.8292 46.9059C67.5831 47.0444 67.3247 47.1703 67.054 47.2961C66.5003 47.5227 65.8851 47.7493 65.1222 47.7115C64.9377 47.7115 64.7408 47.6737 64.5439 47.636C64.4455 47.6108 64.347 47.573 64.2486 47.5353L64.1009 47.4849C64.1009 47.4849 64.0271 47.4472 63.9902 47.4346C63.7318 47.3087 63.4734 47.1828 63.2273 47.0318C62.7351 46.7423 62.2675 46.415 61.8369 46.0752C61.6154 45.9115 61.4062 45.7227 61.197 45.5591L60.5941 45.043C60.1881 44.6906 59.782 44.3004 59.3883 43.8724C58.9945 43.4319 58.6254 42.9788 58.3055 42.3998C58.1455 42.1102 57.9978 41.783 57.8994 41.4305C57.801 41.0907 57.7518 40.7257 57.7394 40.3984C57.7394 40.2222 57.7394 40.0082 57.7394 39.7816C57.7394 39.7313 57.7394 39.6684 57.7394 39.6054V39.5173L57.7641 39.3914C57.7887 39.2152 57.8256 39.0642 57.8625 38.9257C58.0225 38.3719 58.2439 37.9565 58.3793 37.6796C58.49 37.4908 58.6131 37.302 58.7238 37.1258L58.8961 36.8614L58.933 36.7985L58.9699 36.7481H58.9822C58.9822 36.7481 59.0314 36.6852 59.056 36.66C59.056 36.66 59.056 36.6474 59.0683 36.6349C59.0683 36.6349 59.0683 36.6223 59.0683 36.6097L59.0437 36.5719L59.0191 36.5342C59.0191 36.5342 59.0191 36.5342 58.9945 36.509L58.8961 36.4083L58.5269 36.0055C58.2809 35.7412 58.0348 35.4769 57.801 35.2125C57.3211 34.6839 56.8412 34.1678 56.349 33.6643C56.6197 33.7776 56.4598 33.3496 56.6074 33.3119C56.7551 33.2615 57.198 33.5888 58.7115 35.2503C58.7484 35.2125 58.8099 35.1496 58.8469 35.1118C58.1209 34.2685 57.5303 33.5133 57.0996 32.9343C56.6689 32.3553 56.3859 31.9273 56.3121 31.7007C56.2383 31.4742 56.349 31.4364 56.7182 31.663C57.075 31.8769 57.6656 32.3553 58.4654 33.1357C58.8223 33.4881 59.1791 33.8405 59.5482 34.2056C59.7328 34.3944 59.9174 34.5706 60.1019 34.7594C60.3849 35.0363 60.6556 35.3006 60.9386 35.5775L61.0125 35.6531L61.0494 35.7286L61.1355 35.8796L61.2955 36.1943C61.3447 36.4335 61.3201 36.66 61.234 36.9118C61.1478 37.1635 61.0002 37.4027 60.8648 37.6544C60.7787 37.8055 60.6926 37.9565 60.5941 38.1201C60.4588 38.3593 60.3234 38.611 60.2004 38.8376C60.0896 39.0768 59.9789 39.3033 59.9297 39.4921C59.9174 39.5425 59.9051 39.5802 59.8928 39.618C59.8928 39.6306 59.8928 39.6558 59.8928 39.6684C59.8928 39.6684 59.8928 39.6935 59.8928 39.7187C59.8928 39.8446 59.8681 39.9704 59.8681 40.0963C59.8681 40.3355 59.8805 40.5494 59.9297 40.7383C59.9666 40.9271 60.0527 41.1159 60.1635 41.3173C60.2742 41.5187 60.4219 41.7326 60.5941 41.9466C60.9263 42.3746 61.3201 42.7774 61.7631 43.1801C62.206 43.5703 62.6982 43.9983 63.1412 44.3507C63.5964 44.7032 64.0763 45.0305 64.5562 45.2822C64.6793 45.3451 64.8023 45.4081 64.9253 45.4584C64.9623 45.4836 64.9746 45.471 64.9869 45.4836C64.9992 45.4836 65.0115 45.4836 65.0238 45.4962C65.0484 45.5088 65.0853 45.5088 65.1099 45.5213C65.233 45.5465 65.4052 45.5465 65.6021 45.4836C65.8605 45.4207 66.1681 45.3074 66.4634 45.1563C66.6111 45.0808 66.771 44.9927 66.931 44.892L67.3247 44.6654C67.4109 44.6151 67.497 44.5773 67.5831 44.5396C67.6693 44.5018 67.7554 44.464 67.8415 44.4389C67.9031 44.4263 67.9646 44.4263 68.0261 44.4137C68.0876 44.4389 68.1492 44.4137 68.2107 44.4137C68.3337 44.4137 68.4568 44.4389 68.5798 44.4766C68.8259 44.5521 69.0474 44.6906 69.2812 44.8291C69.3427 44.8668 69.3919 44.9046 69.4411 44.9423L69.5396 45.0179L69.7241 45.1563C69.8472 45.2444 69.9579 45.3451 70.0687 45.4332C70.5239 45.8109 70.9423 46.2011 71.3361 46.6038C71.7421 47.0192 72.1236 47.4346 72.505 47.9003C72.6034 48.0136 72.6896 48.1395 72.788 48.2653L72.9234 48.4667L72.9972 48.5674C72.9972 48.5674 73.071 48.6807 73.0956 48.7311C73.1571 48.8443 73.231 48.9702 73.2802 49.0835L73.3663 49.2723C73.3663 49.2723 73.4032 49.3982 73.4278 49.4611C73.4524 49.524 73.4648 49.587 73.4648 49.6499C73.4648 49.7129 73.4894 49.7758 73.4894 49.8387C73.4894 49.9646 73.4894 50.103 73.4771 50.2289C73.4278 50.4051 73.354 50.5688 73.2925 50.7324C73.2556 50.8079 73.194 50.8834 73.1448 50.959C73.0956 51.0345 73.0464 51.11 72.9849 51.1855L72.8003 51.3995L72.7142 51.5002L72.6403 51.5632C72.5542 51.6387 72.4804 51.7268 72.3943 51.7897C72.0743 52.0792 71.7544 52.331 71.4099 52.5575C71.0777 52.7967 70.7331 53.0107 70.3394 53.2121C70.1302 53.3128 69.9456 53.4135 69.6011 53.5142L69.4658 53.5393H69.4042L69.355 53.5645H69.1951C69.0966 53.5897 68.9859 53.6023 68.8874 53.6148C67.1525 53.7407 65.4421 53.3505 63.8795 52.7212C62.3168 52.0792 60.8894 51.2107 59.5482 50.2037C56.8781 48.1898 54.6756 45.5213 53.3713 42.5382C53.1252 42.0096 52.8545 41.3298 52.633 40.5998C52.4239 39.8697 52.2639 39.0642 52.227 38.2964C52.2024 37.9062 52.2147 37.5285 52.227 37.1635C52.227 36.9873 52.2639 36.8111 52.2885 36.6475C52.3131 36.4838 52.35 36.3076 52.3746 36.144C52.5223 35.502 52.7438 35.0237 52.916 34.7594C53.1498 34.3566 53.3221 34.193 53.4205 34.13C53.519 34.0671 53.5436 34.13 53.5559 34.2056C53.2729 34.6209 53.0514 35.0866 52.8914 35.5524C52.7192 36.0181 52.6207 36.5468 52.5838 37.0251C52.4854 38.0069 52.5592 39.0012 52.7684 39.9453C52.9776 40.8893 53.3221 41.8082 53.7404 42.6515C54.1588 43.4948 54.6264 44.313 55.1555 45.0808C56.4475 46.9689 58.0471 48.6304 59.8681 50.0024C60.7787 50.6946 61.7385 51.2988 62.7474 51.8401C63.7687 52.3687 64.8392 52.8093 65.9835 53.0736C64.8638 52.7967 63.8056 52.3687 62.7966 51.8527C61.8 51.324 60.8402 50.7198 59.9297 50.0401C58.1086 48.6807 56.4721 47.0192 55.1432 45.0934C54.6264 44.3256 54.1588 43.5074 53.7527 42.6641C53.3467 41.8333 53.0022 40.9271 52.8053 39.983C52.5961 39.0516 52.5346 38.0698 52.633 37.1132C52.6822 36.6349 52.7684 36.144 52.9283 35.6782C53.0883 35.2125 53.2975 34.772 53.5682 34.3566C53.5682 34.5328 53.5928 34.6965 53.7897 34.5454C53.7897 34.5454 53.8266 34.4825 53.8881 34.3818C53.9619 34.2937 54.0481 34.1552 54.1588 34.0167C54.3803 33.7272 54.6879 33.4377 54.9217 33.2615C55.4139 32.9594 55.7953 32.8713 56.0414 32.8461C56.2875 32.8461 56.3982 32.8839 56.4105 32.9468C56.4475 33.0979 56.1152 33.3119 55.783 33.6391C55.6107 33.8028 55.4262 33.9916 55.2539 34.2307V34.2685Z" fill="white"></path>
</svg>