<svg width="125" height="125" viewBox="0 0 125 125" fill="none" xmlns="http://www.w3.org/2000/svg">
<rect width="125" height="125" rx="20" fill="#077446"></rect>
<path d="M29.1484 98L28.3594 95.5859H24.1016L23.2578 98H21.5078L26.1562 86.3984H26.5703L30.8828 98H29.1484ZM26.2891 89.3984L24.5156 94.4375H27.9141L26.2891 89.3984ZM37.375 98L34.75 93.8125L33.4531 95.1484V98H31.9688V86.2031H33.4531V93.5234L36.6562 89.6328H38.3906L35.7109 92.8125L38.9844 98H37.375ZM40.5781 90.8047H39.6094V89.6328H40.5781V87.8828L42.0625 87.3125V89.6328H44.3594V90.8047H42.0625V94.9609C42.0625 95.6641 42.1797 96.1641 42.4141 96.4609C42.6536 96.7578 43.0365 96.9062 43.5625 96.9062C43.9427 96.9062 44.3359 96.8099 44.7422 96.6172L44.9609 97.9219C44.3464 98.0781 43.6719 98.1562 42.9375 98.1562C42.276 98.1562 41.7161 97.9115 41.2578 97.4219C40.8047 96.9271 40.5781 96.3047 40.5781 95.5547V90.8047ZM47.7969 89.6328V94.9688C47.7969 96.2604 48.3568 96.9062 49.4766 96.9062C49.9661 96.9062 50.4141 96.7656 50.8203 96.4844C51.2266 96.2031 51.4948 95.8776 51.625 95.5078V89.6328H53.1094V98H51.625V96.8438C51.4583 97.1719 51.1224 97.474 50.6172 97.75C50.1172 98.0208 49.6276 98.1562 49.1484 98.1562C48.2318 98.1562 47.5286 97.8932 47.0391 97.3672C46.5547 96.8411 46.3125 96.0938 46.3125 95.125V89.6328H47.7969ZM59.8672 97.0391C59.2734 97.7839 58.3646 98.1562 57.1406 98.1562C56.4844 98.1562 55.9141 97.9193 55.4297 97.4453C54.9505 96.9661 54.7109 96.3724 54.7109 95.6641C54.7109 94.8151 55.0807 94.099 55.8203 93.5156C56.5651 92.9271 57.513 92.6328 58.6641 92.6328C58.9766 92.6328 59.3307 92.7005 59.7266 92.8359C59.7266 91.4818 59.1224 90.8047 57.9141 90.8047C56.987 90.8047 56.2734 91.0547 55.7734 91.5547L55.1484 90.3125C55.4297 90.0833 55.8177 89.888 56.3125 89.7266C56.8125 89.5599 57.2891 89.4766 57.7422 89.4766C58.9557 89.4766 59.8359 89.7526 60.3828 90.3047C60.9349 90.8568 61.2109 91.7344 61.2109 92.9375V95.9375C61.2109 96.6719 61.4297 97.1615 61.8672 97.4062V98.1484C61.263 98.1484 60.8099 98.0625 60.5078 97.8906C60.2109 97.7188 59.9974 97.4349 59.8672 97.0391ZM59.7266 93.8906C59.2578 93.7865 58.9297 93.7344 58.7422 93.7344C57.9922 93.7344 57.3802 93.9271 56.9062 94.3125C56.4323 94.6979 56.1953 95.1536 56.1953 95.6797C56.1953 96.5495 56.7083 96.9844 57.7344 96.9844C58.4844 96.9844 59.1484 96.6276 59.7266 95.9141V93.8906ZM63.6641 95.6328V86.2031H65.1484V95.3828C65.1484 95.8307 65.276 96.1849 65.5312 96.4453C65.7917 96.7005 66.1302 96.8281 66.5469 96.8281V98.1562C64.625 98.1562 63.6641 97.3151 63.6641 95.6328ZM73.4141 98V93.1328C73.4141 92.2422 73.2786 91.6198 73.0078 91.2656C72.7422 90.9062 72.2943 90.7266 71.6641 90.7266C71.3255 90.7266 70.9714 90.8281 70.6016 91.0312C70.2318 91.2344 69.9479 91.4844 69.75 91.7812V98H68.2656V89.6328H69.2812L69.75 90.7109C70.2396 89.888 71.0391 89.4766 72.1484 89.4766C73.9818 89.4766 74.8984 90.5911 74.8984 92.8203V98H73.4141ZM76.4688 93.7969C76.4688 92.5052 76.8151 91.4635 77.5078 90.6719C78.2057 89.875 79.1224 89.4766 80.2578 89.4766C81.4557 89.4766 82.3854 89.8594 83.0469 90.625C83.7083 91.3854 84.0391 92.4427 84.0391 93.7969C84.0391 95.1458 83.7005 96.2109 83.0234 96.9922C82.3464 97.7682 81.4245 98.1562 80.2578 98.1562C79.0651 98.1562 78.1354 97.763 77.4688 96.9766C76.8021 96.1901 76.4688 95.1302 76.4688 93.7969ZM78.0312 93.7969C78.0312 95.8958 78.7734 96.9453 80.2578 96.9453C80.9505 96.9453 81.4922 96.6641 81.8828 96.1016C82.2786 95.5391 82.4766 94.7708 82.4766 93.7969C82.4766 91.724 81.737 90.6875 80.2578 90.6875C79.5807 90.6875 79.0391 90.9635 78.6328 91.5156C78.2318 92.0677 78.0312 92.8281 78.0312 93.7969ZM85.0625 97.5L85.5859 96.0938C86.4141 96.6354 87.0807 96.9062 87.5859 96.9062C88.5026 96.9062 88.9609 96.5208 88.9609 95.75C88.9609 95.1979 88.5182 94.724 87.6328 94.3281C86.9505 94.0156 86.4896 93.7786 86.25 93.6172C86.0156 93.4557 85.8099 93.2734 85.6328 93.0703C85.4609 92.862 85.3307 92.6432 85.2422 92.4141C85.1589 92.1797 85.1172 91.9297 85.1172 91.6641C85.1172 90.9766 85.3672 90.4401 85.8672 90.0547C86.3672 89.6693 87.0208 89.4766 87.8281 89.4766C88.4375 89.4766 89.2057 89.6693 90.1328 90.0547L89.7109 91.4297C89.1224 90.9609 88.5312 90.7266 87.9375 90.7266C87.5833 90.7266 87.2839 90.8099 87.0391 90.9766C86.7995 91.1432 86.6797 91.3542 86.6797 91.6094C86.6797 92.1458 86.9844 92.5521 87.5938 92.8281L88.6562 93.3125C89.3073 93.6094 89.7812 93.9479 90.0781 94.3281C90.375 94.7083 90.5234 95.1849 90.5234 95.7578C90.5234 96.5078 90.2604 97.0964 89.7344 97.5234C89.2083 97.9453 88.4792 98.1562 87.5469 98.1562C86.6667 98.1562 85.8385 97.9375 85.0625 97.5ZM89.6641 85.3594L87.8984 87.9609H86.8047L88.125 85.3594H89.6641ZM98.4062 90.3125L97.6719 91.3594C97.5208 91.2083 97.2526 91.0651 96.8672 90.9297C96.487 90.7943 96.112 90.7266 95.7422 90.7266C94.9349 90.7266 94.2943 91.0104 93.8203 91.5781C93.3464 92.1406 93.1094 92.9141 93.1094 93.8984C93.1094 94.8776 93.3516 95.625 93.8359 96.1406C94.3203 96.651 94.9922 96.9062 95.8516 96.9062C96.5182 96.9062 97.1901 96.6484 97.8672 96.1328L98.4531 97.3828C97.6562 97.8984 96.6693 98.1562 95.4922 98.1562C94.3516 98.1562 93.4089 97.7734 92.6641 97.0078C91.9193 96.2422 91.5469 95.2057 91.5469 93.8984C91.5469 92.5651 91.9323 91.4948 92.7031 90.6875C93.4792 89.8802 94.5391 89.4766 95.8828 89.4766C96.3151 89.4766 96.7839 89.5677 97.2891 89.75C97.7943 89.9323 98.1667 90.1198 98.4062 90.3125ZM101.547 86.4688C101.802 86.4688 102.018 86.5599 102.195 86.7422C102.378 86.9193 102.469 87.1328 102.469 87.3828C102.469 87.638 102.378 87.8568 102.195 88.0391C102.018 88.2161 101.802 88.3047 101.547 88.3047C101.297 88.3047 101.081 88.2161 100.898 88.0391C100.721 87.8568 100.633 87.638 100.633 87.3828C100.633 87.1276 100.721 86.9115 100.898 86.7344C101.076 86.5573 101.292 86.4688 101.547 86.4688ZM100.734 98V90.8828H99.5859V89.6328H102.219V98H100.734Z" fill="white"></path>
<g clip-path="url(#clip0_5454_3410)">
<path d="M54.8404 37.3061C55.0143 37.3146 55.1883 37.3232 55.3622 37.3317C56.9596 37.3935 58.555 37.4063 60.1975 37.4127C60.6076 37.4127 61.0199 37.4148 61.4364 37.417C61.6468 37.417 61.8551 37.417 62.0677 37.4191C62.291 37.4212 62.5379 37.4276 62.8106 37.4745C62.8793 37.4852 62.9501 37.5022 63.021 37.5193L63.1412 37.5534L63.2593 37.596C63.4161 37.6557 63.5664 37.7346 63.7016 37.8326C63.9743 38.0288 64.1761 38.3123 64.2942 38.6256C64.3221 38.7045 64.3479 38.7834 64.3694 38.8687C64.3887 38.9433 64.3994 39.0136 64.4102 39.084C64.4316 39.2247 64.4381 39.359 64.4424 39.4869C64.4488 39.7448 64.4273 39.9814 64.4123 40.1967C64.3114 41.4268 64.2427 42.7463 64.1847 44.0659C64.159 44.7267 64.131 45.3854 64.1053 46.0335C64.0924 46.3575 64.0795 46.6794 64.0688 46.997C64.0623 47.1654 64.0516 47.3402 64.0258 47.5235C64.013 47.6152 63.9958 47.709 63.9743 47.8071C63.9507 47.903 63.9163 48.0245 63.8734 48.129C63.9829 47.8582 64.0172 47.6408 64.0473 47.4276C64.0731 47.2187 64.0838 47.0141 64.0945 46.8371C64.1139 46.4705 64.1353 46.1017 64.1547 45.735C64.1933 44.9974 64.2341 44.2577 64.2728 43.5159C64.3114 42.774 64.3522 42.0322 64.3908 41.2882L64.4531 40.1733C64.4703 39.8088 64.5132 39.376 64.3973 38.8687C64.3286 38.5788 64.1998 38.308 64.0108 38.0821C63.8197 37.8561 63.5706 37.6856 63.2937 37.5768C63.2228 37.5513 63.1562 37.5257 63.079 37.5044C63.0124 37.4852 62.9523 37.4724 62.89 37.4575C62.7676 37.4319 62.6495 37.417 62.5357 37.4063C62.3124 37.385 62.102 37.3828 61.9174 37.3807C61.1766 37.3658 60.438 37.353 59.7037 37.3381C58.2372 37.304 56.79 37.2528 55.375 37.1803C55.9462 37.0631 56.629 36.9672 57.4234 36.9629C58.381 36.9757 59.3322 36.9885 60.2769 37.0013C60.7493 37.0055 61.2217 37.0098 61.6919 37.0141H62.0483C62.1772 37.0183 62.3146 37.0204 62.4649 37.0311C62.6152 37.0418 62.7762 37.0567 62.9544 37.0929C63.1155 37.1228 63.3602 37.191 63.5578 37.2827C63.5363 37.3253 63.4955 37.4106 63.474 37.4553C63.7424 37.5683 63.9829 37.741 64.174 37.9605C64.3629 38.1801 64.5025 38.4402 64.5884 38.7173C64.6099 38.7941 64.627 38.8559 64.6399 38.9134C64.6528 38.9731 64.6657 39.0328 64.6721 39.0882C64.6914 39.2034 64.7 39.3121 64.7086 39.4165C64.7215 39.6254 64.7172 39.8152 64.7108 39.99C64.6872 40.6444 64.6571 41.2882 64.6227 41.932C64.5562 43.2174 64.4724 44.4922 64.3951 45.767L64.3372 46.7241C64.3157 47.0268 64.3114 47.3935 64.2169 47.8199C64.1933 47.9179 64.1547 48.0629 64.1031 48.1865C64.0537 48.3123 63.9915 48.4338 63.9206 48.5489C63.7768 48.777 63.5814 48.971 63.3516 49.1138C63.1219 49.2566 62.8599 49.3419 62.5894 49.3824C62.525 49.3931 62.4455 49.4016 62.394 49.4059L62.233 49.4144C62.1299 49.4165 62.0333 49.4165 61.9431 49.4144C60.6248 49.3675 59.3322 49.3419 57.9967 49.3526C58.1856 49.3846 58.0718 49.4208 58.031 49.4485C58.0182 49.4485 58.0053 49.4485 57.9924 49.4485C58.0053 49.4485 58.016 49.4485 58.031 49.4485C59.3429 49.489 60.6334 49.5295 61.9131 49.57C62.0032 49.5721 62.0999 49.5743 62.2029 49.57C62.2545 49.57 62.3081 49.5657 62.364 49.5615L62.452 49.5551L62.5593 49.5423C62.8471 49.5039 63.1283 49.4187 63.3753 49.2758C63.8777 48.9987 64.2126 48.4679 64.3415 47.9264C64.4531 47.4788 64.4531 47.0972 64.4703 46.7966L64.5175 45.8544C64.5841 44.6009 64.6507 43.3453 64.7194 42.0791C64.7559 41.4459 64.7924 40.8128 64.8289 40.1733C64.846 39.8621 64.8804 39.4677 64.8074 38.9902C64.7967 38.9284 64.7859 38.8665 64.7709 38.8047C64.7559 38.745 64.7322 38.6512 64.7086 38.5851C64.6635 38.4381 64.5991 38.2974 64.524 38.1631C64.3737 37.8945 64.1611 37.6621 63.9099 37.4809C64.3071 37.7559 64.5927 38.1716 64.7301 38.632C64.7687 38.7578 64.7902 38.8559 64.8074 38.9497C64.8246 39.0456 64.8375 39.1373 64.8439 39.2247C64.8611 39.4016 64.8632 39.5636 64.8611 39.7128C64.8546 40.0219 64.8375 40.2458 64.8267 40.5016L64.7902 41.252C64.743 42.2517 64.6957 43.2473 64.6507 44.2407C64.6056 45.2468 64.5605 46.2488 64.5154 47.2528C64.5046 47.3999 64.4875 47.5598 64.4574 47.7303C64.4402 47.8199 64.4231 47.8987 64.3951 48.0032C64.3651 48.114 64.3264 48.227 64.2813 48.3336C64.1031 48.7663 63.7854 49.1373 63.3753 49.3611C63.1713 49.472 62.9458 49.5487 62.7139 49.5935C62.656 49.6041 62.598 49.6148 62.54 49.6212L62.452 49.6318L62.3811 49.6382C62.291 49.6446 62.2072 49.6489 62.1256 49.6489C61.8014 49.6489 61.5845 49.634 61.3247 49.6276C59.3193 49.5615 57.3096 49.4954 55.2784 49.4293L54.5098 49.4037C54.2349 49.3931 53.93 49.3739 53.5951 49.3142C53.2623 49.2524 52.8844 49.1479 52.5 48.9092C52.1157 48.6811 51.7636 48.276 51.5897 47.8582C51.4093 47.4404 51.3664 47.0567 51.3492 46.7348C51.3342 46.4044 51.3492 46.1379 51.3535 45.8885C51.3664 45.3769 51.3814 44.861 51.3943 44.3451C51.405 43.9934 51.4243 43.2899 51.4329 42.9382C51.6176 41.5333 51.7035 40.1264 51.7421 38.7194C51.974 39.0776 52.4957 37.6813 52.3218 40.4973C52.3691 40.4973 52.4657 40.5016 52.5151 40.5016C52.835 37.6898 53.5393 36.6517 53.6552 39.4762C53.7089 41.0622 53.6552 42.9104 53.5908 44.8482C53.5736 45.33 53.5586 45.8181 53.5414 46.3063C53.535 46.5301 53.5393 46.7156 53.5586 46.8435C53.5801 46.9757 53.608 47.0226 53.6187 47.0354C53.6273 47.0439 53.6359 47.0524 53.6531 47.0673C53.6745 47.0801 53.7046 47.0972 53.7518 47.1164C53.8484 47.1526 54.003 47.1889 54.192 47.2059C54.3831 47.2251 54.5913 47.2294 54.8469 47.2358C55.0938 47.24 55.3385 47.2443 55.5833 47.2485C57.0026 47.2763 58.4218 47.304 59.8411 47.3487C60.5453 47.3722 61.2711 47.3999 61.956 47.4319C62.0312 47.434 62.0977 47.4361 62.1514 47.4361H62.2244C62.2459 47.4319 62.2308 47.4361 62.2373 47.4361C62.2394 47.4383 62.2437 47.4425 62.2502 47.4425C62.2566 47.4425 62.263 47.4425 62.2695 47.4425C62.2738 47.4425 62.2759 47.4383 62.2802 47.4361C62.2802 47.4361 62.291 47.4127 62.2952 47.3892C62.3017 47.3679 62.3081 47.3445 62.3124 47.3168C62.3446 47.1675 62.3618 46.9757 62.3811 46.7156C62.3983 46.4705 62.4155 46.2253 62.4348 45.9802C62.467 45.4856 62.4992 44.9889 62.5314 44.4901C62.5894 43.4882 62.6495 42.4777 62.7096 41.4673C62.7397 40.962 62.7698 40.4568 62.7998 39.9516C62.8149 39.715 62.8191 39.5167 62.8041 39.3696C62.7998 39.3334 62.7955 39.3014 62.7912 39.2737C62.7869 39.2545 62.7891 39.2524 62.7848 39.2375C62.7784 39.214 62.7698 39.1906 62.7547 39.1692C62.7247 39.1266 62.686 39.0946 62.6281 39.0754C62.5121 39.0392 62.3232 39.0179 62.0999 39.0094C61.606 38.9923 61.1165 38.9753 60.6291 38.9582C59.2098 38.9198 56.7256 39.0818 56.0149 38.9411C55.5039 38.8751 55.4846 38.7727 55.5619 38.6598C56.7277 38.6598 57.8936 38.6576 59.0531 38.6555C59.6328 38.6555 60.2125 38.6555 60.7901 38.6555H61.6554C61.9453 38.6555 62.2351 38.6491 62.4649 38.6725C62.6066 38.6875 62.744 38.7216 62.8149 38.7514C62.9007 38.7877 62.978 38.841 63.036 38.9113C63.0961 38.9816 63.1305 39.0669 63.152 39.1522C63.1734 39.2439 63.1927 39.3867 63.1927 39.5295C63.197 39.813 63.1605 40.1797 63.1412 40.5293L63.0725 41.5781C62.978 42.9765 62.8793 44.3728 62.7719 45.7691C62.8964 44.4048 63.0017 43.0213 63.0961 41.6207C63.1176 41.2711 63.1412 40.9194 63.1627 40.5698C63.182 40.2223 63.2142 39.8493 63.2121 39.5572C63.2121 39.4101 63.1949 39.2673 63.1691 39.1628C63.1498 39.0754 63.109 38.9859 63.051 38.9134C62.9909 38.841 62.9115 38.7855 62.8234 38.7493C62.7504 38.7194 62.613 38.6875 62.467 38.6747C62.2373 38.647 61.9496 38.6534 61.6597 38.647L60.7987 38.6363L59.0767 38.615C57.9301 38.6001 56.7814 38.583 55.6349 38.5681C55.7186 38.47 55.798 38.3677 55.6585 38.2739C55.6585 38.2739 54.9499 38.2782 54.5935 38.2803C53.1721 38.0501 53.5264 37.7111 54.2328 37.4681C54.4131 37.4191 54.615 37.3615 54.8426 37.3061H54.8404Z" fill="white"></path>
<path d="M76.5865 41.0429C76.55 41.0323 76.5135 41.0216 76.477 41.0131C75.8071 40.8639 75.1351 40.9044 74.39 40.8021C73.8683 40.7019 73.2714 40.7445 72.7496 40.7381C73.9864 40.8383 75.2875 40.817 76.4749 41.1602C76.3547 41.2732 76.2086 41.3606 76.0412 41.3606C75.6397 41.3115 75.2424 41.2774 74.8474 41.2519C74.8474 41.2028 74.8474 41.109 74.8474 41.0621C73.7266 41.1964 72.6852 40.8021 71.5644 41.0323C71.6031 41.0579 71.5794 41.0962 71.5708 41.1282C71.5687 41.1282 71.5644 41.1282 71.5623 41.1282C71.5644 41.1282 71.5666 41.1282 71.5708 41.1282C71.5623 41.1559 71.5666 41.1772 71.6374 41.1772C71.5687 41.1772 71.5644 41.1559 71.5708 41.1282C72.6723 41.092 73.7008 41.1474 74.8001 41.2519C73.0932 41.1453 71.4463 41.2241 69.6964 41.2071C69.6213 41.2071 69.4731 41.2071 69.398 41.205C69.1016 41.0579 68.8032 41.0067 68.5047 41.0046C68.582 40.7658 68.2879 40.284 68.8848 40.3842C68.8848 40.3373 68.8848 40.2414 68.8848 40.1924C68.29 39.9472 68.0732 39.2736 68.6722 39.0881C69.3464 38.9027 70.2396 39.1031 71.0598 39.0135C71.6567 38.9709 72.2558 38.9283 72.8505 39.0306C73.6707 39.1819 74.5661 39.1414 75.3841 39.3418C75.6826 39.393 76.2065 39.2544 76.3547 39.3994C76.462 39.4697 76.4642 39.572 76.447 39.685C75.9574 39.6637 75.4679 39.6531 74.9848 39.6275C74.3922 39.5678 73.7996 39.5038 73.207 39.4015C73.7867 39.5379 74.3814 39.5955 74.9848 39.6275C75.4679 39.6765 75.9488 39.7191 76.4319 39.7767C76.4126 39.8748 76.3954 39.9771 76.4234 40.0709C76.4234 40.0709 76.5715 40.0709 76.6467 40.0709C76.943 40.3139 76.8657 40.6486 76.7132 40.8873C76.6746 40.9364 76.6316 40.9897 76.5822 41.0451L76.5865 41.0429Z" fill="white"></path>
<path d="M76.4298 48.4615C76.3911 48.453 76.3546 48.4423 76.3181 48.4338C75.6375 48.3016 74.9655 48.3464 74.2225 48.2441C73.7029 48.1439 73.1082 48.1844 72.5907 48.178C73.8189 48.2782 75.1093 48.2697 76.3181 48.5809C76.1979 48.696 76.0541 48.7877 75.8823 48.7898C75.4743 48.7493 75.0728 48.7173 74.6777 48.6939C74.6777 48.6449 74.6777 48.5511 74.6777 48.5042C73.5569 48.6406 72.5242 48.2398 71.4163 48.4722C71.4549 48.4978 71.4313 48.5361 71.4227 48.5681C71.4141 48.5958 71.4205 48.6171 71.4893 48.6171C71.4205 48.6171 71.4163 48.5958 71.4227 48.5681C72.5113 48.5276 73.5312 48.5916 74.6305 48.6918C72.9214 48.5894 71.2982 48.6491 69.5762 48.664C69.5032 48.664 69.3572 48.6662 69.282 48.6662C68.9878 48.5255 68.6915 48.4828 68.3974 48.4871C68.4661 48.2462 68.1612 47.7708 68.7538 47.8561C68.7538 47.8092 68.7517 47.7133 68.7517 47.6643C68.1569 47.4362 67.9121 46.7689 68.509 46.5664C69.1811 46.3618 70.0829 46.5472 70.9031 46.4534C71.5021 46.4065 72.099 46.3639 72.6916 46.4662C73.5076 46.6197 74.3943 46.5835 75.1995 46.7753C75.4936 46.8243 76.0047 46.6751 76.1507 46.818C76.2559 46.8862 76.2623 46.9864 76.2494 47.1015C75.7663 47.0929 75.2854 47.0866 74.8066 47.0652C74.2204 47.0077 73.6321 46.9416 73.0438 46.8393C73.6192 46.9778 74.2097 47.0354 74.8066 47.0652C75.2811 47.1079 75.7513 47.1505 76.2366 47.1953C76.2215 47.2933 76.2065 47.3957 76.2366 47.4895C76.2366 47.4895 76.3847 47.4873 76.4577 47.4852C76.7583 47.7197 76.696 48.0565 76.55 48.2995C76.5135 48.3485 76.4706 48.404 76.4234 48.4615H76.4298Z" fill="white"></path>
<path d="M75.5494 32.7802C75.4464 32.7781 75.3433 32.7759 75.2424 32.7738C73.3637 32.7631 71.4978 32.9209 69.4151 32.9081C67.9572 32.8719 66.2975 32.9699 64.8417 32.9891C68.2943 33.0275 71.9122 32.8271 75.2446 32.9209C74.9182 33.0595 74.5231 33.1767 74.0572 33.2065C72.9257 33.2364 71.8177 33.2684 70.7205 33.2982C70.7184 33.2492 70.7141 33.1554 70.712 33.1085C67.5943 33.4005 64.6721 33.0808 61.5523 33.3195C61.664 33.3451 61.5974 33.3835 61.5738 33.4155C61.5523 33.4432 61.5652 33.4645 61.7606 33.4623C61.5652 33.4623 61.5523 33.441 61.5738 33.4155C64.6485 33.3771 67.5084 33.343 70.5939 33.3046C65.8272 33.4325 61.2302 33.5753 56.3412 33.4304C56.1329 33.424 55.7164 33.4112 55.5081 33.4048C54.6793 33.23 53.8506 33.1511 53.0175 33.1106C53.2365 32.8804 52.4292 32.3645 54.0846 32.535C54.0846 32.4881 54.091 32.3922 54.0932 32.3432C52.4442 32.0277 51.8666 31.3285 53.522 31.2134C55.3815 31.1068 57.8464 31.3754 60.1137 31.2986C61.7627 31.2667 63.4074 31.2112 65.0564 31.2773C67.3259 31.3818 69.7951 31.2475 72.0689 31.3114C72.8956 31.3157 74.3277 31.0769 74.7486 31.192C75.0492 31.2389 75.0685 31.3391 75.032 31.4564C73.675 31.5353 72.3223 31.6141 70.9846 31.6568C69.3421 31.6823 67.6974 31.6866 66.0548 31.6269C67.6609 31.7228 69.312 31.7122 70.9846 31.6568C72.3223 31.6376 73.6578 31.5928 74.9955 31.5502C74.9547 31.6504 74.9139 31.757 75.0019 31.8444C75.0019 31.8444 75.4142 31.8145 75.6203 31.7996C76.4641 31.9787 76.2859 32.3283 75.8887 32.5969C75.7856 32.6523 75.6718 32.7162 75.543 32.7802H75.5494Z" fill="white"></path>
<path d="M75.9252 55.9224C75.82 55.9139 75.7148 55.9032 75.6117 55.8947C73.6814 55.7604 71.7533 55.8179 69.6083 55.7327C68.1075 55.6431 66.3919 55.7007 64.8932 55.7071C68.4489 55.7774 72.187 55.7263 75.6031 56.0418C75.2574 56.1569 74.8452 56.2486 74.3642 56.2507C73.2091 56.2123 72.0668 56.1867 70.9353 56.1697C70.9353 56.1207 70.9353 56.0269 70.9353 55.98C67.721 56.1398 64.7172 55.771 61.5051 56.0269C61.6189 56.0524 61.5523 56.0908 61.5287 56.1228C61.5072 56.1505 61.5201 56.1718 61.7219 56.1697C61.5222 56.1697 61.5094 56.1505 61.5287 56.1228C64.6914 56.061 67.648 56.0929 70.8064 56.1697C65.9024 56.1036 61.1744 56.2208 56.148 56.2443C55.9333 56.2443 55.506 56.2464 55.2913 56.2486C54.4324 56.1079 53.5736 56.0652 52.7169 56.0695C52.9273 55.8286 52.062 55.3532 53.7797 55.4406C53.7797 55.3937 53.7797 55.2978 53.7775 55.2488C52.0577 55.0164 51.405 54.3492 53.1184 54.1488C55.0465 53.9484 57.6252 54.1275 59.9827 54.0188C61.6983 53.9633 63.416 53.9058 65.1337 53.9932C67.4956 54.1253 70.07 54.0657 72.4297 54.2447C73.2885 54.2895 74.7893 54.1381 75.2188 54.2788C75.528 54.347 75.5387 54.4472 75.4915 54.5623C74.0808 54.5538 72.6766 54.5474 71.2852 54.5389C69.5804 54.4941 67.8734 54.443 66.1686 54.3556C67.8369 54.4792 69.5482 54.5218 71.2852 54.5389C72.6723 54.5773 74.0572 54.6156 75.4485 54.654C75.397 54.7521 75.3497 54.8544 75.4335 54.9482C75.4335 54.9482 75.8629 54.9482 76.0776 54.9461C76.9365 55.1827 76.7196 55.5195 76.2923 55.7604C76.1828 55.8094 76.0604 55.8648 75.923 55.9203L75.9252 55.9224Z" fill="white"></path>
<path d="M45.6206 32.4949C45.5025 32.4714 45.408 32.4586 45.335 32.4565C45.2406 32.4565 45.1203 32.4693 45.0022 32.4885C44.7253 32.5354 44.429 32.6291 44.1713 32.7443C44.0425 32.804 43.9222 32.87 43.8256 32.9361C43.7762 32.9702 43.7354 33.0022 43.7011 33.032L43.656 33.0747L43.6045 33.1365C43.3296 33.4755 43.2115 34.083 43.1621 34.7716C43.0505 36.1977 42.9517 37.643 42.868 39.1032C42.7048 42.0237 42.606 45.021 42.634 48.1738C42.6447 50.3823 42.7671 52.7464 42.9925 55.1041C43.0505 55.6946 43.1106 56.2872 43.1686 56.8756C43.2266 57.4597 43.2953 58.031 43.394 58.581C43.4971 59.1267 43.6324 59.6596 43.8363 60.103C43.86 60.1606 43.8922 60.2054 43.9179 60.2587C43.9459 60.3077 43.9716 60.3631 44.0038 60.4015L44.094 60.5294C44.1262 60.5614 44.1584 60.5933 44.1885 60.6253C44.2164 60.6658 44.2529 60.6722 44.2808 60.6978L44.3237 60.7319L44.3967 60.7681C44.444 60.7937 44.4955 60.815 44.547 60.8364C44.5986 60.8598 44.6523 60.879 44.7081 60.896C44.5771 60.8534 44.4569 60.798 44.3474 60.7383C44.298 60.7085 44.2765 60.6829 44.2357 60.6594C44.1992 60.636 44.167 60.5848 44.1305 60.5507C43.9888 60.3823 43.8621 60.1371 43.7569 59.8707C43.5594 59.3207 43.4348 58.6982 43.3489 58.063C43.2609 57.4277 43.2094 56.7733 43.145 56.0996C43.0849 55.4388 43.0204 54.7758 42.9711 54.1128C42.8637 52.7869 42.7843 51.4567 42.7327 50.1265C42.679 48.7963 42.6554 47.4661 42.664 46.1359C42.6726 43.4797 42.8036 40.8342 42.9904 38.225C43.0398 37.5727 43.0913 36.9225 43.1407 36.2744C43.1686 35.9504 43.1965 35.6264 43.2244 35.3045C43.2523 34.9805 43.2759 34.6564 43.3167 34.375C43.3554 34.0894 43.4112 33.8293 43.4885 33.6161C43.5658 33.4072 43.6753 33.2346 43.7827 33.1386C43.8686 33.0576 44.0833 32.9276 44.3066 32.8402C44.532 32.7485 44.7854 32.6739 45.0216 32.6355C44.8391 32.7038 44.6415 32.7912 44.4547 32.8956C44.2679 32.9979 44.0876 33.1237 43.9866 33.2282C43.8707 33.3561 43.714 33.6865 43.6453 34.2706C43.6195 34.4433 43.6002 34.633 43.5851 34.8355L43.5357 35.4686C43.5035 35.8928 43.4735 36.3171 43.4413 36.7391C43.379 37.5854 43.3253 38.4275 43.2738 39.2674C43.1729 40.9472 43.0999 42.6142 43.0655 44.2749C43.0161 44.2749 42.9217 44.2749 42.8744 44.2727C42.883 46.6347 42.926 48.9519 43.0484 51.2478C43.1042 52.3968 43.1858 53.5394 43.2738 54.6799C43.3232 55.2512 43.3726 55.8225 43.422 56.3938C43.4735 56.9779 43.5186 57.5279 43.5937 58.0715C43.6667 58.613 43.7633 59.1438 43.9179 59.6106C43.9888 59.8515 44.0876 60.0519 44.1842 60.2309C44.2379 60.2992 44.2851 60.3887 44.3345 60.4271L44.3688 60.4676C44.3796 60.4804 44.3903 60.4804 44.401 60.4889C44.4118 60.4953 44.4204 60.5038 44.429 60.5102L44.4418 60.523C44.4418 60.523 44.4633 60.5337 44.474 60.54C44.8176 60.7255 45.3179 60.8385 45.7516 60.8321C45.9706 60.83 46.1767 60.7959 46.3313 60.7362C46.4945 60.668 46.546 60.6232 46.5976 60.5443C46.6104 60.5251 46.619 60.5059 46.6276 60.474C46.6405 60.4356 46.6598 60.3972 46.6727 60.3375L46.7156 60.1713L46.7521 59.9858C46.7994 59.7342 46.8337 59.4614 46.8617 59.1864C46.9153 58.6343 46.9432 58.0651 46.9583 57.4917C46.9712 56.9182 46.9733 56.3426 46.9561 55.7628C46.9389 55.1723 46.9196 54.5797 46.9003 53.9849C46.8767 54.3239 46.8359 54.1235 46.8037 54.0532C46.7758 53.9892 46.7543 54.0297 46.7607 54.6223C46.7543 54.0297 46.7758 53.9913 46.8037 54.0532C46.8123 54.6394 46.8187 55.2214 46.8273 55.8033C46.8359 56.3704 46.8273 56.9353 46.8101 57.4981C46.7908 58.0587 46.7607 58.6172 46.7071 59.1565C46.6791 59.4251 46.6448 59.6895 46.6018 59.9325C46.5782 60.0519 46.5568 60.1734 46.5267 60.2693L46.5074 60.3461C46.5009 60.3695 46.4923 60.3823 46.4859 60.4015C46.473 60.4356 46.473 60.4463 46.4644 60.4569C46.4322 60.5081 46.4236 60.5187 46.297 60.5805C46.1789 60.6317 45.9964 60.668 45.7988 60.6765C45.4038 60.6935 44.9292 60.6019 44.5986 60.4399C44.5664 60.4207 44.5041 60.3972 44.5084 60.3866C44.4977 60.3738 44.4848 60.3738 44.4676 60.3588C44.4504 60.3354 44.4311 60.3162 44.4118 60.297C44.3903 60.28 44.3688 60.2352 44.3474 60.2075L44.313 60.1606C44.3023 60.1414 44.2915 60.118 44.2808 60.0988L44.2121 59.973C44.1734 59.8685 44.1241 59.7811 44.0876 59.6682C43.933 59.2333 43.8256 58.7217 43.744 58.1994C43.6624 57.6729 43.6109 57.1314 43.5594 56.5665C43.5078 56.0037 43.4542 55.4409 43.4026 54.8781C43.3103 53.7568 43.2244 52.6334 43.1686 51.5057C43.0484 49.2482 43.0161 46.9715 43.0634 44.6564C43.0011 48.2527 43.1514 51.8084 43.4928 55.3493L43.6238 56.6859C43.6667 57.1293 43.7118 57.5577 43.7719 57.9756C43.8321 58.3934 43.9051 58.8005 44.0038 59.1779C44.1004 59.5509 44.2314 59.909 44.3753 60.1308C44.4461 60.2288 44.5127 60.3162 44.5406 60.3205C44.532 60.3269 44.6093 60.3631 44.6673 60.393C44.7338 60.4207 44.8026 60.4484 44.8777 60.4718C45.174 60.5678 45.5261 60.6189 45.8246 60.5976C45.9749 60.5912 46.1123 60.5656 46.2111 60.5294C46.239 60.523 46.2626 60.5145 46.2798 60.5038C46.297 60.4931 46.3249 60.4889 46.3335 60.4782C46.3635 60.459 46.37 60.459 46.3785 60.4484C46.3871 60.4399 46.3957 60.4292 46.4 60.4164C46.4043 60.4143 46.4043 60.4015 46.4086 60.3887C46.4172 60.3588 46.4279 60.3482 46.4387 60.3034C46.4795 60.1542 46.5203 59.9709 46.5503 59.7747C46.6749 58.9839 46.7178 58.0971 46.7436 57.2273C46.7543 56.7903 46.7607 56.349 46.7564 55.9163L46.7414 54.5648C46.7199 52.7613 46.7006 50.9536 46.6791 49.1374C46.6405 45.5027 46.6018 41.8361 46.5632 38.1141C46.5568 37.481 46.546 36.2105 46.5396 35.5752C46.6598 33.0342 46.6856 30.4931 46.662 27.9564C46.9089 28.5874 47.3684 26.0442 47.319 31.1241C47.3662 31.1241 47.4628 31.1241 47.5122 31.1241C47.7055 26.0421 48.3646 24.132 48.6051 29.2098C48.852 34.9208 48.7297 42.5396 48.8907 49.5211L48.9594 53.3305L48.9895 55.2341C49.0002 55.8587 49.0088 56.5302 48.9895 57.1783C48.9723 57.8327 48.9444 58.485 48.8821 59.1565C48.852 59.4912 48.8091 59.8323 48.7511 60.1883C48.7382 60.2757 48.7168 60.3716 48.6974 60.4633C48.6803 60.555 48.6609 60.6466 48.6309 60.7511L48.5901 60.9024L48.5686 60.9771L48.5364 61.0645C48.4956 61.1732 48.4462 61.3267 48.3646 61.461C48.2895 61.5995 48.2079 61.736 48.0984 61.8511C47.9996 61.9747 47.8794 62.0792 47.757 62.1794C47.6346 62.2838 47.5015 62.352 47.3813 62.4266C47.2589 62.4863 47.1343 62.5439 47.0141 62.5887C46.5267 62.7592 46.0758 62.8018 45.6507 62.7954C45.2234 62.7848 44.8154 62.7208 44.4118 62.6078C44.2099 62.5524 44.0081 62.4778 43.8063 62.3883C43.7054 62.3456 43.6002 62.2859 43.4992 62.2348C43.3769 62.158 43.2459 62.0664 43.1278 61.9726C43.0462 61.9086 42.9904 61.8404 42.9238 61.7743C42.8637 61.7061 42.7907 61.6358 42.7435 61.5675C42.6511 61.4354 42.5416 61.2904 42.4751 61.1604C42.3248 60.8918 42.2153 60.6317 42.1272 60.378C41.9512 59.8707 41.846 59.3868 41.7644 58.9114C41.6033 57.9606 41.5432 57.0333 41.4638 56.1508C41.2984 54.3367 41.1653 52.4991 41.0902 50.6552C40.9313 46.9694 41.0193 43.2793 41.2813 39.7811C41.3629 38.5064 41.438 36.7562 41.5303 35.1681C41.5539 34.7758 41.569 34.3772 41.6248 33.9594C41.6828 33.5458 41.7794 33.1237 41.9576 32.7336C42.138 32.3456 42.3849 32.0088 42.6898 31.7637C42.9711 31.5398 43.2051 31.4311 43.3876 31.3565C43.9008 31.1412 44.1777 31.1177 44.3087 31.1263C44.4397 31.1391 44.4247 31.1988 44.3645 31.2755C44.0833 31.3586 43.8106 31.4588 43.5443 31.5931C43.2781 31.7317 43.014 31.8852 42.7649 32.1325C42.2818 32.6292 42.0929 33.2516 41.992 33.8101C41.9426 34.0937 41.9168 34.3687 41.8975 34.6351L41.8438 35.4175C41.8095 35.9376 41.7772 36.4556 41.7429 36.9758C41.6141 39.0521 41.5046 41.1241 41.4487 43.1898C41.3629 45.7244 41.3629 48.2655 41.4573 50.8044C41.511 52.0728 41.5776 53.3412 41.672 54.6074C41.715 55.2405 41.773 55.8737 41.8223 56.5025C41.8717 57.1207 41.9211 57.7709 42.0091 58.4232C41.9275 57.7858 41.8825 57.1463 41.8374 56.5366C41.7901 55.9142 41.7429 55.2917 41.6957 54.665C41.6076 53.4115 41.5389 52.1495 41.4852 50.879C41.3865 48.338 41.3736 45.7713 41.4466 43.1898C41.5132 41.1284 41.6377 39.0734 41.7794 37.0205L41.891 35.4814C41.934 34.9698 41.9512 34.4603 42.0413 33.9082C42.1294 33.3689 42.3076 32.7698 42.7263 32.2881C42.9539 32.0344 43.2094 31.8681 43.4627 31.7296C43.7183 31.5931 43.9824 31.4887 44.2507 31.4034C44.1219 31.5484 44.0231 31.6954 44.3001 31.6976C44.3001 31.6976 44.6072 31.5846 45.0173 31.5206C45.2191 31.4865 45.4617 31.4801 45.6764 31.5142C45.8933 31.5441 46.0908 31.5889 46.2476 31.6315C46.8574 31.8575 47.2438 32.0706 47.4951 32.2156C47.742 32.3627 47.8493 32.4607 47.8322 32.5311C47.8171 32.6014 47.669 32.6398 47.4478 32.6462C47.2267 32.6526 46.9368 32.627 46.6212 32.5908C46.3077 32.5439 45.9513 32.4927 45.6249 32.4927L45.6206 32.4949Z" fill="white"></path>
<path d="M51.1152 23.5628C51.5725 23.5522 52.0298 23.5415 52.4807 23.5309C60.8545 23.3283 69.2412 23.3475 78.5147 24.1086C78.9248 24.1469 79.3156 24.1683 79.7664 24.2258C80.2088 24.2876 80.7047 24.375 81.19 24.6628C81.4305 24.8056 81.6602 25.0018 81.832 25.2405C82.0038 25.4771 82.1218 25.7393 82.1949 25.993C82.3387 26.5025 82.3451 26.9779 82.3473 27.4128C82.3537 29.1118 82.358 30.8385 82.3645 32.5652C82.3881 36.0186 82.4117 39.4699 82.4332 42.6931C82.4289 38.873 82.4246 35.006 82.4203 31.1241C82.4203 30.1542 82.416 29.1821 82.4139 28.21V27.481C82.4117 27.2337 82.4096 26.9715 82.3838 26.6944C82.358 26.4194 82.3086 26.1231 82.2034 25.8225C82.0961 25.5219 81.9179 25.2107 81.6645 24.9613C81.4154 24.7097 81.1105 24.5392 80.8207 24.4241C80.5287 24.3111 80.241 24.2471 79.9683 24.2066C79.4143 24.1256 78.9484 24.1107 78.4546 24.0681C77.4755 23.9892 76.4964 23.9252 75.5194 23.8591C67.7017 23.3475 59.9313 23.2303 52.5086 23.3816C54.003 23.2004 55.7959 23.0555 57.8851 23.0128C62.9136 22.9617 67.8778 23.0704 72.7926 23.3198C72.7904 23.3688 72.7861 23.4626 72.784 23.5095C74.5296 23.5714 76.258 23.663 77.9757 23.7803C78.4052 23.8101 78.8324 23.84 79.2619 23.8698C79.6977 23.9039 80.1937 23.9402 80.7391 24.1128C81.0096 24.1981 81.2995 24.3303 81.57 24.5264C81.8406 24.7182 82.0832 24.9868 82.2485 25.2725C82.5856 25.8545 82.6436 26.4236 82.6758 26.9011C82.6973 27.3893 82.6865 27.7837 82.6887 28.2079C82.6887 28.6279 82.6887 29.0478 82.6887 29.4678C82.6887 30.3055 82.6887 31.1433 82.6887 31.979C82.6865 33.6524 82.6844 35.3215 82.6801 36.9907C82.6694 43.6673 82.6715 50.3439 82.8304 57.2486C82.854 56.7583 82.8948 57.0482 82.927 57.1506C82.9549 57.2422 82.9764 57.1868 82.97 56.3256C82.9743 57.1847 82.9549 57.2422 82.927 57.1506C82.8648 50.3567 82.8283 43.7845 82.8089 37.2124C82.8025 33.9252 82.7982 30.6381 82.7918 27.3232C82.7832 26.8798 82.7789 26.3746 82.5942 25.7905C82.5019 25.5027 82.358 25.1936 82.1369 24.9186C81.9179 24.6436 81.6366 24.4155 81.3532 24.2578C80.7756 23.9465 80.2302 23.8591 79.7579 23.8016C79.5195 23.7739 79.2984 23.759 79.0923 23.7419L78.461 23.6929C76.7733 23.5564 75.075 23.4499 73.3616 23.3497C74.0272 23.388 74.6906 23.4264 75.3541 23.4648C76.0176 23.5095 76.681 23.5522 77.3423 23.5948C78.0037 23.6438 78.665 23.6929 79.3263 23.7419C79.6698 23.7696 80.052 23.8037 80.4686 23.9018C80.883 23.9998 81.3618 24.1746 81.7912 24.5306C82.0038 24.7054 82.1927 24.925 82.3344 25.1552C82.4783 25.3855 82.577 25.6264 82.6436 25.8545C82.7767 26.3107 82.8046 26.7221 82.8175 27.0887C82.8261 27.4597 82.824 27.7645 82.8261 28.0949L82.8304 29.0734C82.8368 30.378 82.8433 31.6784 82.8476 32.9809C82.8798 38.1866 82.9098 43.3752 82.9421 48.581C82.9614 51.1838 82.9786 53.7909 82.9979 56.4066C83.0022 57.0653 83.0065 57.724 83.0108 58.3848C83.0086 58.7344 82.9957 59.1096 82.9378 59.5104C82.8798 59.909 82.7724 60.3418 82.5642 60.7639C82.358 61.1902 82.0488 61.5739 81.6903 61.8766C81.3317 62.1815 80.928 62.3989 80.533 62.5524C79.7364 62.8594 78.9742 62.9404 78.2484 62.9851C77.8877 63.0022 77.5291 63.0043 77.192 63.0043L76.1958 63.0001C75.5302 62.9979 74.8645 62.9937 74.1968 62.9915C72.8634 62.9851 71.5258 62.9787 70.1838 62.9723C67.502 62.9596 64.8031 62.9446 62.0827 62.9297C61.1573 62.9254 59.3022 62.9148 58.3746 62.9084C54.6665 62.7443 50.9541 62.6739 47.2482 62.6547C48.1757 62.4202 44.4676 61.9193 51.8881 62.0578C51.8881 62.0109 51.8881 61.915 51.8881 61.866C44.4676 61.5846 41.6893 60.8982 49.1119 60.7468C53.2859 60.6743 58.1534 60.702 63.255 60.7425C65.8058 60.7617 68.4146 60.783 71.0212 60.8022C72.3245 60.8086 73.6299 60.8129 74.9268 60.8193C75.5752 60.8193 76.2215 60.8193 76.8657 60.8193H77.3466C77.4991 60.8193 77.6494 60.8172 77.7975 60.8108C78.0938 60.8022 78.3794 60.783 78.6542 60.7511C79.0493 60.7042 79.4165 60.6232 79.7192 60.5038C80.0284 60.3887 80.2388 60.2267 80.3956 60.0497C80.4364 60.005 80.4643 59.9517 80.5029 59.9048C80.533 59.8536 80.5609 59.8024 80.5867 59.7428C80.6382 59.6255 80.679 59.4869 80.709 59.3292C80.7692 59.0094 80.782 58.6172 80.7777 58.1759L80.7262 52.6547C80.7005 48.9711 80.6897 45.2895 80.7176 41.6059C80.7391 39.0734 80.7498 36.4833 80.7541 33.8655C80.7541 32.5567 80.7541 31.2392 80.7563 29.9197V27.4426C80.7563 27.2849 80.7563 27.1356 80.7477 26.9971C80.7348 26.7221 80.694 26.4897 80.6339 26.3426C80.5695 26.1913 80.5201 26.1295 80.4063 26.0506C80.2925 25.9717 80.0885 25.9014 79.8352 25.8545C79.5796 25.8076 79.2833 25.782 78.9441 25.7564L77.9543 25.6797C76.6338 25.5773 75.3176 25.4857 74.0078 25.4047C71.3862 25.2426 68.7925 25.119 66.2524 25.0252C64.4037 24.9655 61.8615 24.974 59.5512 25.0146C57.2409 25.0508 55.1625 25.1211 54.2371 25.0785C52.908 25.0572 52.85 24.9634 53.0497 24.8397C59.1282 24.6074 65.2003 24.6223 71.1908 24.8781C73.0266 24.9698 74.8645 25.0721 76.6982 25.2085C77.6107 25.2725 78.5404 25.3492 79.4379 25.4238C79.8674 25.4665 80.2624 25.5432 80.533 25.6924C80.8014 25.8417 80.9431 26.0357 81.0333 26.3661C81.1213 26.6944 81.1277 27.1079 81.1234 27.562L81.117 28.9348L81.1041 31.6805L81.0698 37.1697C81.0869 35.3791 81.1063 33.5778 81.1234 31.7679C81.1299 30.8619 81.1342 29.9538 81.1406 29.0414C81.1428 28.5852 81.1449 28.129 81.147 27.6728C81.1492 27.2124 81.1535 26.7903 81.0762 26.4407C80.9946 26.089 80.8593 25.8651 80.606 25.7074C80.3505 25.5432 79.9597 25.4558 79.5346 25.4111C79.3241 25.3876 79.0901 25.3706 78.8604 25.3535L78.1668 25.3002C77.7052 25.2661 77.2414 25.232 76.7798 25.1979C74.9268 25.0636 73.0631 24.9655 71.193 24.8781C65.2175 24.5989 59.2227 24.5498 53.2387 24.7396C53.4534 24.633 53.6595 24.5221 53.2902 24.4432C53.2902 24.4432 51.4394 24.5179 50.514 24.569C46.7973 24.5349 47.6991 24.1533 49.5392 23.8037C50.0094 23.7248 50.5397 23.6481 51.1302 23.5628H51.1152Z" fill="white"></path>
</g>
<defs>
<clipPath id="clip0_5454_3410">
<rect width="42" height="40" fill="white" transform="translate(41 23)"></rect>
</clipPath>
</defs>
</svg>