<svg width="125" height="125" viewBox="0 0 125 125" fill="none" xmlns="http://www.w3.org/2000/svg">
<rect width="125" height="125" rx="20" fill="#21365E"></rect>
<path d="M12.0078 93.5938V98H10.4453V86.5547C11.6276 86.5026 12.3411 86.4766 12.5859 86.4766C15.9089 86.4766 17.5703 87.5885 17.5703 89.8125C17.5703 92.3854 16.1016 93.6719 13.1641 93.6719C12.987 93.6719 12.6016 93.6458 12.0078 93.5938ZM12.0078 87.9609V92.1875C12.6693 92.2396 13.0182 92.2656 13.0547 92.2656C14.9922 92.2656 15.9609 91.5026 15.9609 89.9766C15.9609 88.5807 14.9271 87.8828 12.8594 87.8828C12.651 87.8828 12.3672 87.9089 12.0078 87.9609ZM17.9531 93.7969C17.9531 92.5052 18.2995 91.4635 18.9922 90.6719C19.6901 89.875 20.6068 89.4766 21.7422 89.4766C22.9401 89.4766 23.8698 89.8594 24.5312 90.625C25.1927 91.3854 25.5234 92.4427 25.5234 93.7969C25.5234 95.1458 25.1849 96.2109 24.5078 96.9922C23.8307 97.7682 22.9089 98.1562 21.7422 98.1562C20.5495 98.1562 19.6198 97.763 18.9531 96.9766C18.2865 96.1901 17.9531 95.1302 17.9531 93.7969ZM19.5156 93.7969C19.5156 95.8958 20.2578 96.9453 21.7422 96.9453C22.4349 96.9453 22.9766 96.6641 23.3672 96.1016C23.763 95.5391 23.9609 94.7708 23.9609 93.7969C23.9609 91.724 23.2214 90.6875 21.7422 90.6875C21.0651 90.6875 20.5234 90.9635 20.1172 91.5156C19.7161 92.0677 19.5156 92.8281 19.5156 93.7969ZM34.8281 98.1562H34.4375L31.9844 92.4609L29.5391 98.1562H29.1484L26.1562 89.6094H27.7422L29.5312 95.1016L31.7578 89.6094H32.1484L34.4453 95.1016L36.3672 89.6094H37.8281L34.8281 98.1562ZM40.5312 86.4688C40.7865 86.4688 41.0026 86.5599 41.1797 86.7422C41.362 86.9193 41.4531 87.1328 41.4531 87.3828C41.4531 87.638 41.362 87.8568 41.1797 88.0391C41.0026 88.2161 40.7865 88.3047 40.5312 88.3047C40.2812 88.3047 40.0651 88.2161 39.8828 88.0391C39.7057 87.8568 39.6172 87.638 39.6172 87.3828C39.6172 87.1276 39.7057 86.9115 39.8828 86.7344C40.0599 86.5573 40.276 86.4688 40.5312 86.4688ZM39.7188 98V90.8828H38.5703V89.6328H41.2031V98H39.7188ZM48.2891 97.0391C47.6953 97.7839 46.7865 98.1562 45.5625 98.1562C44.9062 98.1562 44.3359 97.9193 43.8516 97.4453C43.3724 96.9661 43.1328 96.3724 43.1328 95.6641C43.1328 94.8151 43.5026 94.099 44.2422 93.5156C44.987 92.9271 45.9349 92.6328 47.0859 92.6328C47.3984 92.6328 47.7526 92.7005 48.1484 92.8359C48.1484 91.4818 47.5443 90.8047 46.3359 90.8047C45.4089 90.8047 44.6953 91.0547 44.1953 91.5547L43.5703 90.3125C43.8516 90.0833 44.2396 89.888 44.7344 89.7266C45.2344 89.5599 45.7109 89.4766 46.1641 89.4766C47.3776 89.4766 48.2578 89.7526 48.8047 90.3047C49.3568 90.8568 49.6328 91.7344 49.6328 92.9375V95.9375C49.6328 96.6719 49.8516 97.1615 50.2891 97.4062V98.1484C49.6849 98.1484 49.2318 98.0625 48.9297 97.8906C48.6328 97.7188 48.4193 97.4349 48.2891 97.0391ZM48.1484 93.8906C47.6797 93.7865 47.3516 93.7344 47.1641 93.7344C46.4141 93.7344 45.8021 93.9271 45.3281 94.3125C44.8542 94.6979 44.6172 95.1536 44.6172 95.6797C44.6172 96.5495 45.1302 96.9844 46.1562 96.9844C46.9062 96.9844 47.5703 96.6276 48.1484 95.9141V93.8906ZM57.2734 97.9922V97.375C56.7578 97.8906 56.0078 98.1484 55.0234 98.1484C53.9766 98.1484 53.1276 97.7734 52.4766 97.0234C51.8255 96.2734 51.5 95.2734 51.5 94.0234C51.5 92.7682 51.875 91.6979 52.625 90.8125C53.375 89.9219 54.2682 89.4766 55.3047 89.4766C56.1693 89.4766 56.8255 89.6797 57.2734 90.0859V86.2031H58.7578V97.9922H57.2734ZM57.2734 91.5703C56.8984 91.0078 56.3854 90.7266 55.7344 90.7266C54.9375 90.7266 54.2917 91.0234 53.7969 91.6172C53.3073 92.2109 53.0625 92.9661 53.0625 93.8828C53.0625 95.8984 53.9792 96.9062 55.8125 96.9062C56.0469 96.9062 56.3281 96.8333 56.6562 96.6875C56.9844 96.5365 57.1901 96.3776 57.2734 96.2109V91.5703ZM60.3438 93.7969C60.3438 92.5052 60.6901 91.4635 61.3828 90.6719C62.0807 89.875 62.9974 89.4766 64.1328 89.4766C65.3307 89.4766 66.2604 89.8594 66.9219 90.625C67.5833 91.3854 67.9141 92.4427 67.9141 93.7969C67.9141 95.1458 67.5755 96.2109 66.8984 96.9922C66.2214 97.7682 65.2995 98.1562 64.1328 98.1562C62.9401 98.1562 62.0104 97.763 61.3438 96.9766C60.6771 96.1901 60.3438 95.1302 60.3438 93.7969ZM61.9062 93.7969C61.9062 95.8958 62.6484 96.9453 64.1328 96.9453C64.8255 96.9453 65.3672 96.6641 65.7578 96.1016C66.1536 95.5391 66.3516 94.7708 66.3516 93.7969C66.3516 91.724 65.612 90.6875 64.1328 90.6875C63.4557 90.6875 62.9141 90.9635 62.5078 91.5156C62.1068 92.0677 61.9062 92.8281 61.9062 93.7969ZM79.1719 98V92.7031C79.1719 91.3854 78.6016 90.7266 77.4609 90.7266C77.1016 90.7266 76.7656 90.8385 76.4531 91.0625C76.1406 91.2812 75.9271 91.5312 75.8125 91.8125V98H74.3281V92.0547C74.3281 91.6432 74.1719 91.3203 73.8594 91.0859C73.5521 90.8464 73.1432 90.7266 72.6328 90.7266C72.3359 90.7266 72.0182 90.8411 71.6797 91.0703C71.3464 91.2995 71.1094 91.5521 70.9688 91.8281V98H69.4844V89.6328H70.4531L70.9453 90.6016C71.5182 89.8516 72.2344 89.4766 73.0938 89.4766C74.2917 89.4766 75.1302 89.849 75.6094 90.5938C75.776 90.276 76.0859 90.0104 76.5391 89.7969C76.9922 89.5833 77.4583 89.4766 77.9375 89.4766C78.8021 89.4766 79.4714 89.7344 79.9453 90.25C80.4193 90.7604 80.6562 91.4792 80.6562 92.4062V98H79.1719ZM84.2969 86.4688C84.5521 86.4688 84.7682 86.5599 84.9453 86.7422C85.1276 86.9193 85.2188 87.1328 85.2188 87.3828C85.2188 87.638 85.1276 87.8568 84.9453 88.0391C84.7682 88.2161 84.5521 88.3047 84.2969 88.3047C84.0469 88.3047 83.8307 88.2161 83.6484 88.0391C83.4714 87.8568 83.3828 87.638 83.3828 87.3828C83.3828 87.1276 83.4714 86.9115 83.6484 86.7344C83.8255 86.5573 84.0417 86.4688 84.2969 86.4688ZM83.4844 98V90.8828H82.3359V89.6328H84.9688V98H83.4844ZM94.375 93.9609H88.3438C88.3438 94.9401 88.612 95.6927 89.1484 96.2188C89.6224 96.6771 90.2318 96.9062 90.9766 96.9062C91.8255 96.9062 92.5339 96.6589 93.1016 96.1641L93.7266 97.2344C93.4974 97.4635 93.1458 97.6615 92.6719 97.8281C92.0781 98.0469 91.4167 98.1562 90.6875 98.1562C89.6354 98.1562 88.7422 97.7995 88.0078 97.0859C87.1901 96.2995 86.7812 95.2422 86.7812 93.9141C86.7812 92.5339 87.2005 91.4271 88.0391 90.5938C88.7891 89.849 89.6771 89.4766 90.7031 89.4766C91.8958 89.4766 92.8307 89.8125 93.5078 90.4844C94.1641 91.1302 94.4922 91.987 94.4922 93.0547C94.4922 93.3828 94.4531 93.6849 94.375 93.9609ZM90.7734 90.7266C90.112 90.7266 89.5573 90.9401 89.1094 91.3672C88.6823 91.7734 88.4401 92.2786 88.3828 92.8828H93.0156C93.0156 92.2839 92.8281 91.7839 92.4531 91.3828C92.0417 90.9453 91.4818 90.7266 90.7734 90.7266ZM101.211 98V93.1328C101.211 92.2422 101.076 91.6198 100.805 91.2656C100.539 90.9062 100.091 90.7266 99.4609 90.7266C99.1224 90.7266 98.7682 90.8281 98.3984 91.0312C98.0286 91.2344 97.7448 91.4844 97.5469 91.7812V98H96.0625V89.6328H97.0781L97.5469 90.7109C98.0365 89.888 98.8359 89.4766 99.9453 89.4766C101.779 89.4766 102.695 90.5911 102.695 92.8203V98H101.211ZM106.344 86.4688C106.599 86.4688 106.815 86.5599 106.992 86.7422C107.174 86.9193 107.266 87.1328 107.266 87.3828C107.266 87.638 107.174 87.8568 106.992 88.0391C106.815 88.2161 106.599 88.3047 106.344 88.3047C106.094 88.3047 105.878 88.2161 105.695 88.0391C105.518 87.8568 105.43 87.638 105.43 87.3828C105.43 87.1276 105.518 86.9115 105.695 86.7344C105.872 86.5573 106.089 86.4688 106.344 86.4688ZM105.531 98V90.8828H104.383V89.6328H107.016V98H105.531ZM114.102 97.0391C113.508 97.7839 112.599 98.1562 111.375 98.1562C110.719 98.1562 110.148 97.9193 109.664 97.4453C109.185 96.9661 108.945 96.3724 108.945 95.6641C108.945 94.8151 109.315 94.099 110.055 93.5156C110.799 92.9271 111.747 92.6328 112.898 92.6328C113.211 92.6328 113.565 92.7005 113.961 92.8359C113.961 91.4818 113.357 90.8047 112.148 90.8047C111.221 90.8047 110.508 91.0547 110.008 91.5547L109.383 90.3125C109.664 90.0833 110.052 89.888 110.547 89.7266C111.047 89.5599 111.523 89.4766 111.977 89.4766C113.19 89.4766 114.07 89.7526 114.617 90.3047C115.169 90.8568 115.445 91.7344 115.445 92.9375V95.9375C115.445 96.6719 115.664 97.1615 116.102 97.4062V98.1484C115.497 98.1484 115.044 98.0625 114.742 97.8906C114.445 97.7188 114.232 97.4349 114.102 97.0391ZM113.961 93.8906C113.492 93.7865 113.164 93.7344 112.977 93.7344C112.227 93.7344 111.615 93.9271 111.141 94.3125C110.667 94.6979 110.43 95.1536 110.43 95.6797C110.43 96.5495 110.943 96.9844 111.969 96.9844C112.719 96.9844 113.383 96.6276 113.961 95.9141V93.8906Z" fill="white"></path>
<g clip-path="url(#clip0_5454_3427)">
<path d="M52.0356 45.3371C52.0449 45.5632 52.0241 45.8163 52.0149 46.0537C51.9802 46.3023 51.9733 46.5487 51.9064 46.7974C51.8048 47.376 51.5647 47.9321 51.2854 48.4339C51.133 48.6757 50.9899 48.9289 50.8122 49.1391L50.5559 49.4691C50.4705 49.5776 50.3736 49.6703 50.2812 49.772C50.0966 49.971 49.9119 50.1721 49.7134 50.3462C49.5148 50.5225 49.3278 50.7169 49.1201 50.8774L48.5107 51.3747L47.9197 51.8335C47.5342 52.1364 47.1672 52.437 46.837 52.758C46.6731 52.9185 46.5185 53.0813 46.3754 53.2508C46.3038 53.3344 46.2369 53.4226 46.1722 53.5062C46.1145 53.5853 46.0614 53.6667 46.0106 53.7503C45.8144 54.0894 45.6898 54.4759 45.6759 54.8285C45.6597 55.188 45.7521 55.4841 45.9552 55.7101C46.1537 55.9407 46.4723 56.1102 46.8855 56.2119C47.2964 56.3114 47.772 56.3453 48.2706 56.3566C49.3163 56.3656 50.3713 56.3747 51.4378 56.3837C53.5731 56.4086 55.7499 56.4334 57.9868 56.4583C61.1147 56.5193 64.4642 56.5442 67.8161 56.5555C69.492 56.56 71.1679 56.5623 72.8138 56.5668C73.2247 56.5668 73.6356 56.5668 74.0442 56.5668C74.4574 56.5668 74.8429 56.5691 75.2238 56.5487C75.9764 56.508 76.7082 56.3882 77.2414 56.0876C76.602 56.4334 75.7225 56.5306 74.8406 56.5442C74.402 56.5487 73.9219 56.5397 73.4579 56.5374C72.9916 56.5329 72.523 56.5306 72.0544 56.5261C70.1822 56.5125 68.3008 56.4967 66.4172 56.4832C62.6498 56.4515 58.8663 56.4221 55.1012 56.3905C53.2199 56.3701 51.3408 56.3498 49.4733 56.3295C49.0116 56.3227 48.5245 56.3204 48.0928 56.3068C47.6565 56.291 47.2433 56.2481 46.8855 56.1577C46.53 56.0627 46.2392 55.9226 46.0614 55.7304C45.8721 55.5383 45.7775 55.3145 45.7567 55.0229C45.7313 54.7359 45.8075 54.4013 45.9391 54.0894C46.0776 53.7729 46.2669 53.5062 46.5439 53.2011C47.0725 52.6111 47.7558 52.0957 48.476 51.551C49.2147 50.9723 49.9604 50.3688 50.6159 49.6206C50.7752 49.4262 50.9322 49.225 51.0869 49.0261C51.23 48.8114 51.3708 48.5898 51.5047 48.3661C51.7448 47.8959 51.9641 47.3896 52.061 46.8629C52.0472 46.9714 52.031 47.0799 52.0172 47.1907C51.9964 47.2992 51.9664 47.4099 51.9387 47.5229C51.9087 47.6337 51.8833 47.749 51.8463 47.862C51.8048 47.9705 51.7609 48.0813 51.7171 48.1943C51.6363 48.4248 51.5209 48.6351 51.4031 48.8498C51.29 49.0736 51.1515 49.2702 51.0084 49.4737C50.4313 50.2784 49.7041 51.0017 48.8777 51.6595C48.3883 52.0483 47.9359 52.3828 47.5296 52.7377C47.3264 52.914 47.1371 53.0903 46.9663 53.2689C46.8809 53.3593 46.7978 53.4497 46.7216 53.5401C46.6824 53.5853 46.6454 53.6305 46.6108 53.678L46.5577 53.7481L46.5162 53.8068C46.2946 54.1165 46.1491 54.5098 46.1307 54.8263C46.1214 54.9845 46.1399 55.1179 46.1768 55.2196C46.2138 55.3213 46.2646 55.4027 46.35 55.4863C46.5046 55.6446 46.8463 55.7915 47.3103 55.8593C47.5411 55.8955 47.7927 55.9158 48.0582 55.9248L48.4691 55.9339L48.9123 55.9384C50.0966 55.9497 51.2785 55.9587 52.4581 55.97C52.4581 56.022 52.4581 56.1215 52.4581 56.1712C59.1595 56.117 65.6392 56.2029 72.119 56.2752L74.5428 56.3001C75.3092 56.3046 76.0572 56.2571 76.6666 56.065C77.2853 55.8774 77.6592 55.5338 77.807 55.0772C77.9547 54.6319 77.8162 54.0125 77.4884 53.4407C77.1629 52.8552 76.6828 52.3896 76.0687 51.8832C75.4685 51.3814 74.7691 50.8729 74.1389 50.1653C73.9819 49.989 73.8342 49.7969 73.6933 49.598C73.6287 49.494 73.5571 49.39 73.4971 49.2861L73.3286 48.9696C73.2132 48.7594 73.1347 48.5401 73.0401 48.3231C72.9708 48.1039 72.8808 47.8846 72.83 47.6631C72.5876 46.7793 72.4907 45.8977 72.4445 45.0433C72.4376 45.5338 72.3822 45.2445 72.3429 45.145C72.3429 45.1111 72.3429 45.0795 72.3406 45.0478C72.3406 45.0795 72.3406 45.1111 72.3429 45.145C72.3152 45.0568 72.276 45.1066 72.3452 45.9813C72.276 45.1043 72.3129 45.0546 72.3429 45.145C72.3798 45.9927 72.4745 46.8697 72.7123 47.7558C72.77 47.9773 72.8485 48.1988 72.9246 48.4181C73.0193 48.6351 73.0932 48.8566 73.2132 49.0691L73.3817 49.3878C73.4463 49.494 73.5133 49.6002 73.5802 49.7042C73.721 49.9077 73.8711 50.0998 74.0281 50.2784C74.6583 50.9927 75.3531 51.5035 75.9394 51.994C76.2303 52.2359 76.5119 52.4845 76.7336 52.7173C76.9552 52.9502 77.1514 53.2101 77.3107 53.4791C77.6338 54.0171 77.7585 54.5889 77.6546 54.98C77.6084 55.1766 77.4976 55.3597 77.3453 55.5067C77.1929 55.6536 76.9782 55.7824 76.7058 55.8819C76.1587 56.0808 75.4431 56.1464 74.7021 56.1531L72.3268 56.1418C65.9509 56.1012 59.575 56.0446 52.9913 55.9723C58.1045 56.0017 63.1692 56.0333 68.2201 56.0627C69.4828 56.0672 70.7455 56.0718 72.0059 56.0763L73.8988 56.0831C74.5475 56.0853 75.1153 56.0921 75.6601 56.0311C76.198 55.9746 76.6897 55.8502 77.0152 55.6581C77.1791 55.5632 77.3037 55.4615 77.3961 55.3394C77.4884 55.2128 77.5507 55.0817 77.5831 54.9348C77.6154 54.7879 77.62 54.6161 77.59 54.4262C77.5577 54.2341 77.4884 54.0284 77.3938 53.8204C77.2045 53.4022 76.8998 52.9931 76.542 52.6427C76.1564 52.2653 75.6832 51.8991 75.1823 51.4832C74.6814 51.0672 74.1389 50.5926 73.6726 49.9755C73.1947 49.3403 72.89 48.6464 72.6823 47.9547C72.4768 47.2607 72.3729 46.5736 72.3152 45.9045C72.2021 44.5663 72.2598 43.2915 72.2506 42.0844C72.2483 41.7838 72.2413 41.4854 72.2252 41.2006C72.1952 40.9248 72.1767 40.6491 72.1398 40.3756C72.0844 40.1043 72.0359 39.8285 71.9759 39.5573L71.7381 38.7526C71.0063 36.6278 69.4712 34.772 67.4837 33.626C66.491 33.0519 65.3945 32.6337 64.2403 32.4054C63.0838 32.1952 61.8765 32.1387 60.683 32.2268C60.4845 32.254 60.2352 32.2901 59.9605 32.3285C59.8243 32.3512 59.6765 32.3579 59.5357 32.3941C59.3949 32.428 59.2495 32.4642 59.1041 32.5003C58.9586 32.5342 58.8132 32.5704 58.6724 32.6043C58.5362 32.6518 58.4023 32.6993 58.2753 32.7445C58.0214 32.8349 57.7859 32.9072 57.6151 33.0021C56.1562 33.5605 54.8889 34.5709 53.9609 35.8909C53.4899 36.5465 53.0998 37.263 52.7489 38.0293C52.5643 38.4339 52.405 38.791 52.2826 39.1572C52.1626 39.5234 52.0772 39.8828 52.0287 40.2603C51.9895 40.0636 51.9041 40.0975 51.8094 40.1721C51.7148 40.2467 51.6155 40.3643 51.5462 40.3055C51.4839 40.2467 51.4216 40.0049 51.5393 39.3742C51.6016 39.06 51.7217 38.6509 51.9433 38.1287C52.1718 37.5975 52.4535 36.9533 52.899 36.2164C52.8528 36.1916 52.7628 36.1418 52.7189 36.1147C52.248 36.8539 51.8879 37.5817 51.5578 38.2372C51.2323 38.895 51.0153 39.5279 50.8907 40.093C50.766 40.6581 50.7037 41.1396 50.6367 41.5148C50.5744 41.8923 50.5144 42.1658 50.4544 42.3285C50.3343 42.6563 50.2143 42.5501 50.115 41.9149C50.0665 41.5962 50.0158 41.1464 50.0181 40.5021C50.0204 40.1812 50.0458 39.8059 50.115 39.3878C50.1843 38.9719 50.3043 38.5198 50.4705 38.0609C50.5629 37.801 50.669 37.5478 50.7637 37.3172C50.863 37.0799 50.9691 36.8313 51.0846 36.5849C51.3131 36.0876 51.5763 35.5835 51.8833 35.0862C52.4927 34.0917 53.2799 33.1219 54.2771 32.3105C54.5334 32.1183 54.7896 31.9194 55.0551 31.7318C55.3344 31.5623 55.6137 31.3927 55.8953 31.221C56.1931 31.0785 56.4909 30.9361 56.791 30.7937C57.0957 30.6649 57.4143 30.5654 57.7282 30.4502C59.0025 30.0523 60.3414 29.8625 61.671 29.8512C62.0058 29.8376 62.3382 29.8738 62.6752 29.8828L63.1784 29.9077C63.347 29.9167 63.5132 29.9506 63.6817 29.971C64.0164 30.0229 64.3557 30.0591 64.6882 30.1247C65.0206 30.206 65.353 30.2851 65.6854 30.3665C67.0058 30.744 68.2824 31.3249 69.4274 32.1048C69.7044 32.3105 69.9929 32.5049 70.2584 32.7241L71.0317 33.4113L71.7358 34.164C71.962 34.4217 72.1605 34.702 72.3706 34.9687C73.1716 36.0763 73.7764 37.3059 74.1596 38.5921C74.3166 39.0555 74.3905 39.5415 74.4898 40.0207C74.529 40.2625 74.5452 40.5089 74.5729 40.7531L74.6098 41.1192L74.626 41.4696C74.6606 42.3986 74.6352 43.2757 74.6444 44.1256C74.656 44.971 74.6883 45.7892 74.8245 46.5374C74.8868 46.9149 74.9884 47.263 75.1015 47.5953C75.173 47.7512 75.2238 47.9208 75.3092 48.0609C75.3485 48.1332 75.3854 48.2124 75.4247 48.2802C75.4685 48.3457 75.5032 48.4113 75.5539 48.4768C75.9164 48.999 76.5235 49.494 77.2229 50.0659C77.5715 50.3552 77.9432 50.6626 78.3079 51.0288C78.6911 51.4176 79.0258 51.8448 79.3075 52.3195C79.5868 52.7942 79.813 53.3299 79.9284 53.9334C80.0485 54.5302 80.0208 55.2332 79.7691 55.8819C79.5268 56.5329 79.0512 57.0799 78.5087 57.4551C77.9639 57.8349 77.3868 58.0202 76.8513 58.1446C76.108 58.3096 75.4108 58.3367 74.7437 58.3412C74.1158 58.3322 73.4856 58.3231 72.8531 58.3163C71.5996 58.3005 70.3369 58.2847 69.0649 58.2689C66.5234 58.244 63.9541 58.2191 61.3848 58.192C58.8155 58.1626 56.2485 58.1355 53.7046 58.1061C52.435 58.0858 51.1723 58.0654 49.9188 58.0474C49.6049 58.0406 49.2932 58.0361 48.9816 58.0293C48.6722 58.0225 48.3629 58.0202 48.0236 58.0044C47.3588 57.9705 46.6408 57.9072 45.8929 57.6021C45.3573 57.3918 44.7364 56.9669 44.3624 56.3068C44.1754 55.9791 44.0623 55.6084 44.0208 55.2445C43.9769 54.8783 44 54.5144 44.0692 54.1685C44.1385 53.8227 44.2539 53.4904 44.4063 53.1739C44.4824 53.018 44.5679 52.8643 44.6625 52.7151L44.8125 52.4981L44.9603 52.3037C45.3596 51.7928 45.8144 51.3588 46.2576 50.9746C47.1625 50.2038 47.9659 49.6342 48.5384 49.0532C48.6953 48.9176 48.8154 48.7729 48.9423 48.6441C49.067 48.5153 49.187 48.3932 49.2747 48.2757C49.3717 48.1604 49.4594 48.0541 49.5402 47.9569C49.6072 47.8575 49.6718 47.7693 49.7272 47.6947C49.7664 47.6405 49.8034 47.5885 49.838 47.5388C49.8657 47.489 49.8934 47.4416 49.9188 47.3986C49.9696 47.3105 50.0181 47.2359 50.0596 47.1726C50.1312 47.0415 50.1797 46.9533 50.2258 46.9036C50.3135 46.8019 50.362 46.8426 50.3943 46.9398C50.212 47.5455 49.868 48.1061 49.441 48.626L49.097 49.0035C48.9862 49.1323 48.8615 49.2521 48.7323 49.3697L48.3537 49.7268L47.9474 50.0636C47.4188 50.5134 46.8047 50.9497 46.2438 51.456C45.9621 51.7092 45.6851 51.9782 45.4289 52.2743C45.2996 52.4212 45.1796 52.5749 45.0596 52.7377C44.9372 52.9095 44.8287 53.0858 44.7341 53.2711C44.5448 53.6396 44.4155 54.0419 44.3555 54.4669C44.3024 54.8896 44.3209 55.3439 44.4778 55.7802C44.5517 55.9994 44.6694 56.2051 44.8033 56.3973C44.9464 56.5804 45.1057 56.7544 45.2904 56.8923C45.6551 57.1794 46.073 57.3466 46.4746 57.4551C47.2826 57.6653 48.0674 57.6586 48.7877 57.6631C49.5125 57.6676 50.2397 57.6721 50.9622 57.6789C58.0676 57.7603 65.1729 57.8462 72.2737 57.9728C65.3299 57.81 58.1968 57.7309 50.9622 57.6789L48.7946 57.654C48.0767 57.645 47.2987 57.6473 46.5023 57.4416C46.1053 57.3331 45.6944 57.1748 45.3343 56.8946C44.9741 56.6233 44.6787 56.2436 44.524 55.8141C44.3601 55.3891 44.337 54.9416 44.3855 54.5257C44.4363 54.1075 44.5655 53.7164 44.7433 53.3502C44.9234 52.9841 45.1704 52.6495 45.4151 52.3647C45.6667 52.0754 45.9368 51.8064 46.2138 51.5578C46.7655 51.0582 47.368 50.6287 47.9035 50.188C48.1736 49.9687 48.446 49.7494 48.693 49.5098C48.8177 49.39 48.9516 49.2793 49.067 49.1549L49.4133 48.782C49.8519 48.2734 50.2281 47.7241 50.4405 47.1206C50.4636 47.2268 50.4844 47.3353 50.519 47.3805C50.5513 47.4257 50.6298 47.4212 50.7268 47.2766C50.7268 47.2766 50.7591 47.1748 50.8122 47.0098C50.8445 46.9285 50.8606 46.8267 50.8837 46.7137C50.9022 46.6007 50.9414 46.4786 50.9484 46.3453C51.0245 45.8163 50.9853 45.1653 50.9507 44.7314C50.9437 43.8543 50.9876 43.244 51.0638 42.8665C51.1492 42.4868 51.23 42.3331 51.3085 42.3376C51.4678 42.3512 51.5809 42.9728 51.7679 43.8023C51.844 44.2318 51.9595 44.7155 52.0379 45.3236L52.0356 45.3371Z" fill="white"></path>
<path d="M60.353 29.3064C60.3807 29.2138 60.4084 29.1211 60.4337 29.0307C60.5399 28.6396 60.6346 28.2463 60.7246 27.8485L60.7177 27.905C60.8377 27.0551 61.2348 26.273 61.7865 25.6559C62.3382 25.0343 63.0354 24.5483 63.8318 24.2296C64.5658 23.9583 65.3484 23.782 66.1286 23.6758C66.3226 23.6487 66.5165 23.6261 66.7104 23.608L66.8627 23.5944L67.0613 23.5786C67.1928 23.5673 67.3267 23.5605 67.4652 23.5537C68.0077 23.5243 68.5387 23.5153 69.0511 23.5063C68.5317 23.5063 68.0054 23.504 67.4606 23.5221C67.3244 23.5266 67.1882 23.5311 67.0566 23.5402L66.7058 23.5628C66.5165 23.5763 66.3249 23.5944 66.1333 23.617C65.3646 23.7097 64.5843 23.8747 63.8202 24.1957C63.0607 24.5212 62.3613 24.9846 61.7819 25.6016C61.2048 26.212 60.75 27.0076 60.6 27.9005L60.6092 27.8349C60.5053 28.2305 60.3945 28.6193 60.2791 29.0035C60.2121 28.6758 60.1821 28.2893 60.2583 27.862L60.2768 27.7784L60.2652 27.8666C60.3668 27.1545 60.6392 26.4877 61.0178 25.943C61.3894 25.3892 61.8534 24.9416 62.3521 24.5709C62.3844 24.6116 62.4467 24.6907 62.479 24.7291C63.1462 24.164 63.9726 23.7888 64.7597 23.5899C65.1568 23.4859 65.5538 23.4158 65.944 23.3706C66.1402 23.348 66.3341 23.3299 66.5257 23.3164L66.8189 23.2983L67.2644 23.278C67.8807 23.2576 68.474 23.2621 69.065 23.2621H69.9537L70.0645 23.2576H70.1199H70.1476C70.1569 23.2576 70.1453 23.2734 70.143 23.2802L70.0645 23.4859L69.9099 23.8973C69.7067 24.4488 69.5013 25.0026 69.2935 25.5655C69.2427 25.7079 69.1896 25.8526 69.1365 25.9972L69.0581 26.2165L69.0142 26.3498C68.9588 26.5239 68.9057 26.6979 68.8526 26.8743C68.9172 26.7861 68.9334 26.8584 68.9565 26.8923C68.9773 26.9217 69.0026 26.9172 69.0696 26.7477C69.0026 26.9172 68.9773 26.9195 68.9565 26.8923C69.0188 26.7228 69.0834 26.5555 69.1458 26.3883C69.2496 26.1148 69.3558 25.8435 69.4597 25.5723C69.5751 25.2716 69.6929 24.9733 69.8083 24.6749C69.9145 24.3833 70.023 24.0917 70.1292 23.8024L70.2884 23.3661L70.3692 23.1491L70.39 23.0949C70.3762 23.0903 70.3508 23.0949 70.3323 23.0949H70.2123C69.8937 23.0994 69.5774 23.1039 69.2612 23.1084C68.631 23.1175 68.0031 23.1175 67.359 23.1469L66.8927 23.174L66.7081 23.1853L66.5649 23.1966C66.3733 23.2124 66.1817 23.2305 65.9878 23.2554C65.6 23.3028 65.2076 23.3706 64.8105 23.4678C64.0257 23.6532 63.1854 23.9832 62.4582 24.4918C62.7399 24.2906 63.0377 24.1211 63.3424 23.9674C63.6471 23.8159 63.9726 23.6916 64.2796 23.5876C64.9052 23.3842 65.5331 23.2621 66.1425 23.1853C66.2949 23.1672 66.4472 23.1491 66.5973 23.1356L66.7104 23.1243L66.8558 23.1129L67.2321 23.0881C67.7515 23.061 68.2732 23.0474 68.7857 23.0406L70.3392 23.0135H70.4362L70.4847 23.0112H70.4962C70.4962 23.0112 70.4962 23.018 70.4939 23.0203L70.487 23.0429L70.4223 23.2192L70.2931 23.5718L70.0345 24.2793C69.5197 25.622 69.0026 26.9714 68.4809 28.3322C68.2801 28.8476 68.0654 29.4285 67.7007 30.0343C67.5183 30.3349 67.2898 30.6423 67.0035 30.9271C66.715 31.2097 66.3618 31.4583 65.9901 31.6369C65.8632 31.6934 65.6693 31.7838 65.4754 31.8403C65.2791 31.9082 65.0852 31.9466 64.956 31.976C63.8987 32.0167 63.0284 31.8494 62.202 31.7228C62.3244 31.6143 62.202 31.3996 62.2551 31.2617C62.2805 31.1916 62.3474 31.1396 62.5067 31.1261C62.666 31.1125 62.9153 31.1374 63.3239 31.1961C63.3285 31.1464 63.3354 31.0447 63.3401 30.9927C62.5506 30.8006 62.075 30.4434 61.9735 30.1925C61.8673 29.9303 62.1743 29.7676 62.9061 29.7721C63.721 29.7879 64.5705 29.7834 65.0645 29.4873C65.3115 29.3494 65.5377 29.112 65.7524 28.7368C65.9648 28.3661 66.1425 27.8914 66.3156 27.3783C66.5442 26.7386 66.775 26.1012 67.0012 25.466C66.9989 25.466 66.9989 25.466 67.0105 25.4592C67.0266 25.4479 67.0497 25.4299 67.052 25.405C67.0566 25.3846 67.0451 25.3688 67.0266 25.3575C67.022 25.3507 66.9943 25.3462 66.9666 25.3417H66.962H66.9389H66.8904L66.7935 25.3485C66.7288 25.3507 66.6642 25.3553 66.6019 25.3598C66.0917 25.3959 65.5977 25.4728 65.1337 25.6016C64.8983 25.6627 64.679 25.7418 64.4712 25.8277C64.2588 25.9136 64.0603 26.0221 63.8641 26.1351C63.4763 26.3679 63.1346 26.6505 62.8507 26.9601C62.7422 27.1003 62.6291 27.2856 62.5575 27.4868C62.4859 27.688 62.449 27.9005 62.4282 28.0903V28.1152L62.419 28.1536C62.3567 28.5289 62.2897 28.8453 62.1997 28.9922C62.0773 29.2544 61.9665 29.2477 61.8534 29.1844C61.9227 28.8182 61.9919 28.4543 62.0612 28.0949V28.0858L62.0658 28.0564C62.112 27.688 62.2412 27.3286 62.4352 27.0008C62.6314 26.6731 62.8968 26.377 63.1969 26.1215C63.4647 25.9068 63.7602 25.7214 64.0718 25.5723C64.3835 25.4231 64.709 25.3123 65.0575 25.2242C65.4038 25.1383 65.7593 25.0818 66.1217 25.0456C66.3041 25.0298 66.4865 25.0162 66.6734 25.0094L66.9412 25.0026L67.0636 25.0117C67.0289 25.0049 66.9851 25.0004 66.9435 24.9959C66.8789 24.9936 66.7681 24.9959 66.6827 24.9959C66.5003 25.0004 66.3179 25.0094 66.1379 25.023C65.7755 25.0524 65.42 25.1066 65.0714 25.1925C64.7205 25.2784 64.3904 25.3937 64.0765 25.5474C63.7625 25.7034 63.4647 25.8955 63.1969 26.1193C62.5714 26.6188 62.1143 27.2969 61.9989 28.0474L61.9942 28.0813C61.9181 28.4294 61.8396 28.7775 61.7634 29.1279C61.6664 29.0646 61.5649 29.0035 61.4518 29.0601C61.4518 29.0601 61.3848 29.4421 61.3502 29.6342C60.9578 30.3553 60.6346 30.1021 60.4453 29.6771C60.4107 29.5709 60.3714 29.4511 60.3345 29.32L60.353 29.3064Z" fill="white"></path>
<path d="M66.2302 57.4912C66.221 57.5522 66.2094 57.6132 66.2002 57.672C66.1217 58.2303 66.0709 58.8112 65.9255 59.417C65.7754 60.0228 65.5238 60.6557 65.0483 61.2027C64.7066 61.5712 64.2726 61.9396 63.7671 62.1702C63.2685 62.4053 62.7237 62.5206 62.2181 62.5183C62.816 62.5432 63.4416 62.4211 64.0049 62.1227C64.5774 61.8244 65.0298 61.3542 65.3553 60.8501C65.6808 60.3438 65.8932 59.79 66.0386 59.2475C66.184 58.705 66.2717 58.1761 66.3595 57.6765C66.4818 57.8777 66.5765 58.1286 66.558 58.4315C66.5118 58.7932 66.4472 59.1639 66.3479 59.5368C66.2487 59.9121 66.1148 60.2896 65.9324 60.6512C65.8839 60.6309 65.7916 60.5879 65.7454 60.5676C65.5515 61.0807 65.2191 61.5689 64.762 61.9509C64.3027 62.3375 63.7325 62.5839 63.1761 62.6901C62.6129 62.7963 62.0496 62.7873 61.4979 62.6856C60.9439 62.5839 60.4037 62.3804 59.8959 62.1137C59.949 62.1815 59.8843 62.1883 59.8497 62.2064C59.8197 62.2222 59.8151 62.2448 59.9397 62.3239C59.8151 62.2448 59.8197 62.2199 59.8497 62.2064C60.3322 62.516 60.8839 62.7421 61.4541 62.8483C62.0219 62.95 62.6013 62.9478 63.1692 62.828C63.7348 62.7059 64.305 62.4573 64.7828 62.0753C65.256 61.6978 65.6208 61.2299 65.8909 60.7326C65.6877 61.1214 65.4269 61.4989 65.0944 61.8334C64.7643 62.1657 64.3488 62.455 63.9125 62.6471C63.033 63.0314 62.0796 63.0879 61.1793 62.8732C59.3418 62.4075 58.0699 60.8614 57.7213 59.1594C57.689 59.0147 57.6428 58.7254 57.6313 58.5807C57.7536 57.8167 57.8252 57.3691 57.8991 56.9035C58.0145 56.9916 58.2246 56.9238 58.37 56.9645C58.5177 57.0075 58.5824 57.1386 58.4923 57.6245C58.5431 57.6268 58.647 57.6336 58.7001 57.6358C58.8594 57.1634 59.1826 56.9103 59.4296 56.8854C59.5565 56.865 59.6673 56.9148 59.7527 57.0029C59.8381 57.0933 59.8912 57.2335 59.9189 57.4256C59.9674 57.8551 59.972 58.3253 60.0736 58.7886C60.1221 59.0215 60.1983 59.2452 60.3021 59.4509C60.4106 59.6566 60.5515 59.8488 60.7223 59.9934C60.96 60.215 61.2278 60.3754 61.491 60.4862C61.7472 60.5947 62.0173 60.658 62.3105 60.6987C62.5113 60.7281 62.7237 60.7145 62.9153 60.658C63.1115 60.6015 63.2754 60.5156 63.437 60.38C63.7625 60.1155 64.0326 59.6725 64.2542 59.1933C64.3257 59.0124 64.3442 58.7367 64.3534 58.479C64.3627 58.2213 64.3673 57.9817 64.4481 57.8732C64.5243 57.7172 64.6351 57.7082 64.7574 57.733C64.7389 58.4722 64.6628 59.1842 64.395 59.7787C64.2196 60.1404 63.9795 60.4523 63.6955 60.6693C63.4139 60.884 63.0907 61.0016 62.7422 61.031C63.0884 61.0219 63.4208 60.9112 63.7071 60.6942C63.9933 60.4749 64.2311 60.1494 64.395 59.7764C64.6859 59.191 64.8013 58.4858 64.8567 57.7534C64.9629 57.7805 65.0737 57.8076 65.1752 57.7624C65.1752 57.7624 65.1752 57.5296 65.1729 57.4143C65.4222 56.9419 65.787 57.0436 66.0524 57.2787C66.1055 57.3397 66.1679 57.4075 66.2279 57.4844L66.2302 57.4912Z" fill="white"></path>
</g>
<defs>
<clipPath id="clip0_5454_3427">
<rect width="36" height="40" fill="white" transform="translate(44 23)"></rect>
</clipPath>
</defs>
</svg>