<svg width="125" height="125" viewBox="0 0 125 125" fill="none" xmlns="http://www.w3.org/2000/svg">
<rect width="125" height="125" rx="20" fill="#145352"></rect>
<path d="M32.7656 86.9609V90.1406H36.5469V91.4688H32.7656V95.5938H37.9531V97H31.2031V85.5547H38.0391V86.9609H32.7656ZM44.9688 96.9922V96.375C44.4531 96.8906 43.7031 97.1484 42.7188 97.1484C41.6719 97.1484 40.8229 96.7734 40.1719 96.0234C39.5208 95.2734 39.1953 94.2734 39.1953 93.0234C39.1953 91.7682 39.5703 90.6979 40.3203 89.8125C41.0703 88.9219 41.9635 88.4766 43 88.4766C43.8646 88.4766 44.5208 88.6797 44.9688 89.0859V85.2031H46.4531V96.9922H44.9688ZM44.9688 90.5703C44.5938 90.0078 44.0807 89.7266 43.4297 89.7266C42.6328 89.7266 41.987 90.0234 41.4922 90.6172C41.0026 91.2109 40.7578 91.9661 40.7578 92.8828C40.7578 94.8984 41.6745 95.9062 43.5078 95.9062C43.7422 95.9062 44.0234 95.8333 44.3516 95.6875C44.6797 95.5365 44.8854 95.3776 44.9688 95.2109V90.5703ZM49.9922 88.6328V93.9688C49.9922 95.2604 50.5521 95.9062 51.6719 95.9062C52.1615 95.9062 52.6094 95.7656 53.0156 95.4844C53.4219 95.2031 53.6901 94.8776 53.8203 94.5078V88.6328H55.3047V97H53.8203V95.8438C53.6536 96.1719 53.3177 96.474 52.8125 96.75C52.3125 97.0208 51.8229 97.1562 51.3438 97.1562C50.4271 97.1562 49.724 96.8932 49.2344 96.3672C48.75 95.8411 48.5078 95.0938 48.5078 94.125V88.6328H49.9922ZM62.7422 97L60.1172 92.8125L58.8203 94.1484V97H57.3359V85.2031H58.8203V92.5234L62.0234 88.6328H63.7578L61.0781 91.8125L64.3516 97H62.7422ZM70.1406 96.0391C69.5469 96.7839 68.638 97.1562 67.4141 97.1562C66.7578 97.1562 66.1875 96.9193 65.7031 96.4453C65.224 95.9661 64.9844 95.3724 64.9844 94.6641C64.9844 93.8151 65.3542 93.099 66.0938 92.5156C66.8385 91.9271 67.7865 91.6328 68.9375 91.6328C69.25 91.6328 69.6042 91.7005 70 91.8359C70 90.4818 69.3958 89.8047 68.1875 89.8047C67.2604 89.8047 66.5469 90.0547 66.0469 90.5547L65.4219 89.3125C65.7031 89.0833 66.0911 88.888 66.5859 88.7266C67.0859 88.5599 67.5625 88.4766 68.0156 88.4766C69.2292 88.4766 70.1094 88.7526 70.6562 89.3047C71.2083 89.8568 71.4844 90.7344 71.4844 91.9375V94.9375C71.4844 95.6719 71.7031 96.1615 72.1406 96.4062V97.1484C71.5365 97.1484 71.0833 97.0625 70.7812 96.8906C70.4844 96.7188 70.2708 96.4349 70.1406 96.0391ZM70 92.8906C69.5312 92.7865 69.2031 92.7344 69.0156 92.7344C68.2656 92.7344 67.6536 92.9271 67.1797 93.3125C66.7057 93.6979 66.4688 94.1536 66.4688 94.6797C66.4688 95.5495 66.9818 95.9844 68.0078 95.9844C68.7578 95.9844 69.4219 95.6276 70 94.9141V92.8906ZM80.1328 89.3125L79.3984 90.3594C79.2474 90.2083 78.9792 90.0651 78.5938 89.9297C78.2135 89.7943 77.8385 89.7266 77.4688 89.7266C76.6615 89.7266 76.0208 90.0104 75.5469 90.5781C75.0729 91.1406 74.8359 91.9141 74.8359 92.8984C74.8359 93.8776 75.0781 94.625 75.5625 95.1406C76.0469 95.651 76.7188 95.9062 77.5781 95.9062C78.2448 95.9062 78.9167 95.6484 79.5938 95.1328L80.1797 96.3828C79.3828 96.8984 78.3958 97.1562 77.2188 97.1562C76.0781 97.1562 75.1354 96.7734 74.3906 96.0078C73.6458 95.2422 73.2734 94.2057 73.2734 92.8984C73.2734 91.5651 73.6589 90.4948 74.4297 89.6875C75.2057 88.8802 76.2656 88.4766 77.6094 88.4766C78.0417 88.4766 78.5104 88.5677 79.0156 88.75C79.5208 88.9323 79.8932 89.1198 80.1328 89.3125ZM84.0312 85.4688C84.2865 85.4688 84.5026 85.5599 84.6797 85.7422C84.862 85.9193 84.9531 86.1328 84.9531 86.3828C84.9531 86.638 84.862 86.8568 84.6797 87.0391C84.5026 87.2161 84.2865 87.3047 84.0312 87.3047C83.776 87.3047 83.5599 87.2161 83.3828 87.0391C83.2057 86.8568 83.1172 86.638 83.1172 86.3828C83.1172 86.1276 83.2057 85.9115 83.3828 85.7344C83.5599 85.5573 83.776 85.4688 84.0312 85.4688ZM80.8281 100.281V98.9531C81.849 98.9531 82.5469 98.7969 82.9219 98.4844C83.3021 98.1771 83.4922 97.6693 83.4922 96.9609V89.8828H81.8281V88.6328H84.9766V96.9297C84.9766 98.0807 84.638 98.9271 83.9609 99.4688C83.2839 100.01 82.2396 100.281 80.8281 100.281ZM92.3438 96.0391C91.75 96.7839 90.8411 97.1562 89.6172 97.1562C88.9609 97.1562 88.3906 96.9193 87.9062 96.4453C87.4271 95.9661 87.1875 95.3724 87.1875 94.6641C87.1875 93.8151 87.5573 93.099 88.2969 92.5156C89.0417 91.9271 89.9896 91.6328 91.1406 91.6328C91.4531 91.6328 91.8073 91.7005 92.2031 91.8359C92.2031 90.4818 91.599 89.8047 90.3906 89.8047C89.4635 89.8047 88.75 90.0547 88.25 90.5547L87.625 89.3125C87.9062 89.0833 88.2943 88.888 88.7891 88.7266C89.2891 88.5599 89.7656 88.4766 90.2188 88.4766C91.4323 88.4766 92.3125 88.7526 92.8594 89.3047C93.4115 89.8568 93.6875 90.7344 93.6875 91.9375V94.9375C93.6875 95.6719 93.9062 96.1615 94.3438 96.4062V97.1484C93.7396 97.1484 93.2865 97.0625 92.9844 96.8906C92.6875 96.7188 92.474 96.4349 92.3438 96.0391ZM92.2031 92.8906C91.7344 92.7865 91.4062 92.7344 91.2188 92.7344C90.4688 92.7344 89.8568 92.9271 89.3828 93.3125C88.9089 93.6979 88.6719 94.1536 88.6719 94.6797C88.6719 95.5495 89.1849 95.9844 90.2109 95.9844C90.9609 95.9844 91.625 95.6276 92.2031 94.9141V92.8906Z" fill="white"></path>
<g clip-path="url(#clip0_5454_3462)">
<path d="M70.3654 37.537C70.3176 37.4149 70.2699 37.2927 70.2221 37.1736C69.2966 34.9663 68.1322 32.884 67.0216 30.4712C66.8395 30.0511 66.6275 29.5924 66.4215 29.1873C66.2096 28.7732 65.9647 28.3621 65.702 27.9719C65.1825 27.1885 64.5705 26.4676 63.9585 25.9791C64.666 26.5867 65.293 27.4506 65.8423 28.3502C66.12 28.809 66.3618 29.2618 66.6066 29.7622L67.347 31.2665C68.3263 33.2743 69.2578 35.282 70.031 37.2629C69.6937 36.9561 69.3444 36.5629 69.0697 36.0357C68.4636 34.7399 67.8486 33.4679 67.2276 32.2138C67.2873 32.184 67.4038 32.1214 67.4635 32.0917C66.9619 31.2397 66.4962 30.355 66.0752 29.5179C65.6602 28.7226 65.2094 27.9362 64.6929 27.251C64.4362 26.9085 64.1615 26.5897 63.8749 26.3365C63.5913 26.0803 63.2897 25.8867 63.0568 25.8212C63.0001 25.8093 62.9404 25.7825 62.8986 25.7914C62.8747 25.7914 62.8538 25.7914 62.8299 25.7854C62.812 25.7795 62.7464 25.7914 62.7075 25.7914C62.5254 25.8003 62.3433 25.8361 62.1642 25.8778C61.8029 25.9701 61.4477 26.131 61.1133 26.3514C61.2297 26.3335 61.1939 26.414 61.1939 26.4616C61.5312 26.2769 61.8716 26.1518 62.209 26.0774C62.3791 26.0446 62.5463 26.0148 62.7135 26.0088C62.7493 26.0088 62.8091 25.9969 62.827 26.0029C62.8419 26.0088 62.8568 26.0088 62.8717 26.0088C62.8986 25.9999 62.9434 26.0208 62.9852 26.0297C63.1673 26.0774 63.445 26.2382 63.7137 26.4706C63.9883 26.697 64.26 26.9978 64.5168 27.3166C65.0333 27.957 65.496 28.7166 65.8991 29.4911C66.1051 29.9111 66.3111 30.3312 66.5201 30.7571C66.729 31.1891 66.941 31.627 67.153 32.0678C66.8126 31.3887 66.4723 30.7154 66.1349 30.0422L65.8871 29.5626C65.8065 29.4107 65.7229 29.2588 65.6363 29.1098C65.4662 28.809 65.2811 28.52 65.096 28.237C64.7198 27.674 64.3018 27.1527 63.8749 26.7446C63.6629 26.548 63.445 26.3663 63.2539 26.268C63.1554 26.1995 63.0777 26.1876 63.0001 26.1429C62.9374 26.1369 62.8747 26.1071 62.8479 26.1191C62.8389 26.1191 62.8299 26.1161 62.821 26.1101L62.7255 26.1191L62.5344 26.134C62.409 26.1578 62.2806 26.1667 62.1522 26.2055C61.8985 26.262 61.6417 26.3604 61.385 26.4825C60.8714 26.7267 60.3669 27.0902 59.8922 27.5281C59.6534 27.7425 59.4235 27.9838 59.1966 28.234C59.0831 28.3592 58.9756 28.4873 58.8652 28.6213L58.5248 29.0413C58.077 29.6103 57.6501 30.2001 57.2321 30.8167C57.0888 31.0252 56.8082 31.4542 56.6678 31.6746C55.9394 32.4372 55.3244 33.316 54.7362 34.2186C54.5959 33.8105 53.4644 34.3466 54.7183 32.6219C54.6616 32.5861 54.5481 32.5147 54.4914 32.4789C53.7838 33.2892 53.1151 33.7241 52.7508 33.7151C52.3806 33.7062 52.3179 33.2713 52.7628 32.324C53.2823 31.2665 54.0018 30.066 54.8795 28.8149C55.3184 28.1923 55.7991 27.5638 56.3006 26.9531C56.7962 26.3395 57.3694 25.699 57.9815 25.1211C58.8831 24.296 60.0027 23.5304 61.3909 23.1819C61.5641 23.1402 61.7373 23.0985 61.9164 23.0777C62.0925 23.0508 62.2717 23.024 62.4538 23.0181L62.7255 23.0032C62.7643 23.0002 62.8329 23.0032 62.8956 23.0062L63.0837 23.0211C63.2091 23.033 63.3375 23.0449 63.4569 23.0657C63.5704 23.0926 63.6838 23.1223 63.7943 23.1551C64.684 23.4292 65.2691 23.8998 65.7498 24.3586C66.4066 25.005 66.8992 25.6842 67.362 26.3782C67.8188 27.0693 68.2218 27.7872 68.5801 28.52C69.2488 29.8903 69.9086 31.2635 70.4669 32.6189C70.8998 33.59 71.9358 35.142 72.0045 35.705C72.094 36.0863 71.9746 36.1667 71.8074 36.1876C71.0192 34.6326 70.2311 33.0866 69.4518 31.5525C69.001 30.6022 68.5502 29.649 68.0994 28.6928C67.6217 27.6919 67.0873 26.7267 66.4066 25.7884C67.0545 26.7208 67.5739 27.68 68.0546 28.6779C68.5054 29.6371 68.9742 30.5903 69.4548 31.5525C70.1922 33.0985 70.9297 34.6445 71.6701 36.1995C71.5208 36.2084 71.3656 36.2203 71.2969 36.3723C71.2969 36.3723 71.5417 36.8429 71.6641 37.0783C71.8582 38.1745 71.3178 38.1536 70.7744 37.8408C70.652 37.7515 70.5117 37.6532 70.3654 37.54V37.537Z" fill="white"></path>
<path d="M70.6162 37.9476C70.6341 37.9298 70.655 37.9089 70.6729 37.891C70.9715 37.5395 71.0312 37.1255 71.3178 36.7442C71.5537 36.494 71.6313 36.1395 71.7686 35.8505C71.3297 36.482 71.1118 37.2297 70.4729 37.8374C70.3386 37.7242 70.24 37.6021 70.2699 37.4948C70.4013 37.2595 70.5207 37.0301 70.6311 36.8008C70.6938 36.8216 70.8192 36.8663 70.8819 36.8872C70.9028 36.5208 71.1088 36.2288 71.3088 35.9488C71.5089 35.6658 71.7 35.3918 71.7209 35.0045C71.6761 35.0105 71.6373 34.9688 71.6014 34.9449C71.5716 34.9211 71.5417 34.9122 71.5208 34.9509C71.5417 34.9122 71.5686 34.9241 71.6014 34.9449C71.3238 35.5884 71.0043 36.1484 70.6431 36.771C71.1267 35.788 71.476 34.793 72.109 33.8547C72.1358 33.816 72.1896 33.7355 72.2164 33.6968C72.4941 33.6551 72.6553 33.5449 72.7718 33.3989C73.0106 33.6372 73.6495 33.9083 73.33 34.1049C73.3838 34.1436 73.4913 34.2241 73.545 34.2658C74.0257 34.1883 74.8168 34.7007 74.8527 35.0969C74.8706 35.5139 74.4048 35.7195 74.3153 36.1395C74.2257 36.4254 74.157 36.7054 73.9122 36.911C73.5569 37.191 73.4584 37.6259 73.0793 37.9327C72.9688 38.0578 73.0912 38.3647 72.8762 38.3855C72.7688 38.4123 72.6314 38.3796 72.4792 38.3319C72.5687 38.0876 72.6493 37.8404 72.7598 37.611C72.933 37.3399 73.1211 37.0808 73.3689 36.8574C73.0793 37.054 72.8971 37.3221 72.7598 37.611C72.6195 37.8315 72.4941 38.0608 72.3568 38.2932C72.2254 38.2485 72.0911 38.2038 71.9567 38.1859C71.9567 38.1859 71.9358 38.2664 71.9269 38.3081C71.5596 38.3885 71.1118 38.2485 70.8073 38.0787C70.7476 38.04 70.6789 37.9953 70.6102 37.9476H70.6162Z" fill="white"></path>
<path d="M71.2849 39.443C71.27 39.4192 71.2581 39.3954 71.2431 39.3715C70.9595 38.9754 70.5386 38.8205 70.1624 38.4719C69.9146 38.1919 69.5295 38.0757 69.216 37.9268C69.9056 38.3885 70.6968 38.7549 71.1386 39.5473C70.9924 39.6456 70.8491 39.7082 70.7535 39.6545C70.5595 39.4728 70.3535 39.309 70.1415 39.163C70.1743 39.1035 70.237 38.9873 70.2669 38.9277C69.5324 38.7639 69.1443 37.9804 68.3293 37.9864C68.3382 38.0311 68.3024 38.0728 68.2785 38.1115C68.2576 38.1443 68.2487 38.1711 68.2905 38.1919C68.2487 38.1741 68.2576 38.1443 68.2785 38.1115C68.9622 38.3438 69.5444 38.6983 70.1146 39.1452C69.1891 38.5136 68.1561 38.18 67.0992 37.7659C67.0545 37.7481 66.9649 37.7123 66.9201 37.6945C66.8096 37.4383 66.6514 37.3042 66.4663 37.2387C66.6275 36.9408 66.6693 36.2408 67.0007 36.5059C67.0246 36.4433 67.0724 36.3182 67.0933 36.2557C66.8305 35.8029 66.9858 34.8616 67.4814 34.7573C68.0277 34.6709 68.5323 35.1565 69.1234 35.2637C69.5444 35.371 69.9653 35.4871 70.2967 35.7939C70.7416 36.2289 71.3446 36.4582 71.7268 36.9766C71.8791 37.1344 72.303 37.1434 72.294 37.3727C72.312 37.4949 72.2433 37.62 72.1507 37.7511C71.8641 37.5604 71.5715 37.3847 71.2849 37.2C70.9535 36.9378 70.6222 36.6727 70.3027 36.3718C70.5923 36.7144 70.9297 36.9706 71.2849 37.2C71.5536 37.4115 71.8223 37.6259 72.0761 37.8553C71.9955 37.9685 71.9149 38.0847 71.8671 38.2098C71.8671 38.2098 71.9567 38.2604 72.0015 38.2872C72.0074 38.6805 71.7208 39.0558 71.4671 39.2941C71.4103 39.3388 71.3447 39.3924 71.282 39.443H71.2849Z" fill="white"></path>
<path d="M64.7765 56.7442C64.9049 56.771 65.0303 56.7978 65.1557 56.8217C67.4963 57.2417 69.8877 57.1881 72.5717 57.2536C73.5062 57.2983 74.5362 57.2834 75.5214 57.2536C75.8976 57.2328 76.3872 57.1225 76.8231 56.9974C77.2679 56.8723 77.7008 56.7174 78.083 56.5536C77.6232 56.7353 77.1127 56.8872 76.6052 57.0034C76.3514 57.063 76.0946 57.1106 75.8558 57.1404C75.7364 57.1583 75.617 57.1672 75.5244 57.1702L75.1154 57.1762C73.9779 57.1881 72.8374 57.203 71.7089 57.194C69.4548 57.1762 67.2426 57.0421 65.1885 56.6132C65.6214 56.494 66.129 56.4076 66.7111 56.4434C68.1084 56.5863 69.5086 56.6459 70.9088 56.6608C70.9088 56.7293 70.9088 56.8604 70.9118 56.9259C71.9089 56.8634 72.8942 56.8336 73.8794 56.8217H75.3542C75.5035 56.8157 75.5304 56.8217 75.6289 56.8127C75.7155 56.8098 75.814 56.7978 75.9125 56.7859C76.1155 56.7591 76.3275 56.7204 76.5425 56.6757C76.9694 56.5834 77.4023 56.4642 77.7964 56.3153C77.9934 56.2438 78.1785 56.1604 78.3188 56.0829C78.3965 56.0382 78.4263 56.0204 78.4771 55.9816C78.5308 55.9399 78.5846 55.8893 78.6383 55.8327C78.8533 55.6063 79.0354 55.2846 79.116 54.9748C79.1578 54.8199 79.1757 54.6709 79.1667 54.5518C79.1578 54.3433 79.1429 54.1288 79.11 53.9262C79.0802 54.0454 79.0204 53.9769 78.9757 53.956C78.9369 53.9352 78.907 53.953 78.916 54.1496C78.907 53.9501 78.9369 53.9352 78.9757 53.956C78.9936 54.1496 78.9906 54.3671 78.9906 54.5488C78.9906 54.6471 78.9667 54.7782 78.9219 54.9122C78.8383 55.1833 78.6682 55.4723 78.4831 55.6718C78.4383 55.7225 78.3905 55.7672 78.3457 55.8029C78.292 55.8446 78.295 55.8446 78.2233 55.8863C78.1039 55.9548 77.9337 56.0382 77.7486 56.1127C77.3814 56.2646 76.9634 56.3897 76.5544 56.491C76.1514 56.5893 75.7095 56.6668 75.4408 56.6668C74.9601 56.6698 74.4765 56.6727 73.9898 56.6757C73.0225 56.6787 72.0493 56.6757 71.07 56.6578C71.8313 56.6638 72.5926 56.6578 73.3539 56.6429C73.7361 56.637 74.1182 56.628 74.4974 56.6221L75.0706 56.6102L75.3572 56.6042L75.5572 56.5953C75.7991 56.5744 76.1334 56.5089 76.4499 56.4314C76.7694 56.351 77.0948 56.2527 77.3993 56.1425C77.7008 56.0353 78.0054 55.9012 78.1755 55.794C78.2711 55.7493 78.4293 55.5884 78.5517 55.4097C78.6801 55.228 78.7786 55.0105 78.8353 54.8169C78.8622 54.7216 78.8771 54.6292 78.8801 54.5607V54.5339V54.4773V54.3611C78.8801 54.2837 78.8861 54.2062 78.8801 54.1318C78.8592 53.5241 78.7488 52.976 78.5129 52.4011C78.289 51.8261 77.9218 51.1976 77.5396 50.4886C77.3515 50.1401 77.1485 49.738 76.9873 49.4133C76.8112 49.0707 76.635 48.7281 76.4589 48.3856C76.3335 48.1502 76.0857 47.6766 75.9603 47.4383C75.6349 46.3927 75.187 45.3918 74.7064 44.4088C75.1303 44.5012 75.2438 43.2441 76.0976 45.2339C76.1573 45.2042 76.2768 45.1416 76.3365 45.1118C75.9931 44.0752 75.9633 43.2709 76.1573 42.9581C76.3544 42.6423 76.7634 42.8181 77.3545 43.7028C78.0024 44.7067 78.6622 45.925 79.3429 47.2715C79.5101 47.6111 79.6802 47.9566 79.8504 48.3022C80.0116 48.6328 80.1609 48.9307 80.34 49.2673C80.6894 49.9197 81.1043 50.6435 81.4477 51.4806C81.6895 52.0913 81.8656 52.7615 81.9433 53.4288C81.9851 53.7624 82.003 54.096 82 54.4207V54.665C81.994 54.7722 81.9881 54.8944 81.9731 55.0016C81.9463 55.222 81.9045 55.4306 81.8507 55.6301C81.6268 56.4255 81.2476 57.0928 80.6894 57.6945C80.549 57.8434 80.3908 57.9864 80.2176 58.1234C80.134 58.1919 80.0206 58.2664 79.9221 58.332C79.8265 58.3915 79.74 58.4362 79.6504 58.4898C79.3071 58.6686 79.0025 58.7847 78.695 58.886C77.8561 59.1511 77.0799 59.3418 76.1454 59.4609C76.023 59.4758 75.9006 59.4877 75.7632 59.4937L75.5483 59.5026H75.405H74.8258C74.4377 59.5026 74.0496 59.5026 73.6614 59.5026C72.106 59.5026 70.5326 59.4877 69.0249 59.3358C67.9322 59.2673 65.9857 59.3626 65.4483 59.1065C65.0602 58.9784 65.0602 58.8324 65.1318 58.6805C66.9231 58.8622 68.7174 58.9188 70.4819 58.9337C71.5626 58.9635 72.6434 58.9754 73.7152 58.9933C74.2496 59.0022 74.787 59.0141 75.3244 59.023L75.5244 59.029L75.7871 59.023C75.9543 59.0141 76.1125 58.9992 76.2648 58.9813C76.5693 58.9456 76.8589 58.895 77.1455 58.8384C76.8619 58.886 76.5753 58.9307 76.2797 58.9605C76.1275 58.9754 75.9752 58.9873 75.811 58.9962C75.7304 58.9992 75.6379 58.9992 75.5513 58.9992L75.3483 58.9933C74.8168 58.9754 74.2854 58.9635 73.745 58.9545C72.6583 58.9456 71.5716 58.9367 70.4789 58.9277C68.7204 58.8801 66.95 58.7758 65.1975 58.5524C65.2751 58.4213 65.3468 58.2843 65.2512 58.1443C65.2512 58.1443 64.7138 58.0936 64.4421 58.0668C63.4032 57.6111 63.7406 57.1762 64.2988 56.9051C64.4422 56.8515 64.6064 56.7949 64.7735 56.7323L64.7765 56.7442Z" fill="white"></path>
<path d="M62.9404 57.0629C62.9643 57.0659 62.9912 57.0689 63.0151 57.0718C63.4569 57.0718 63.7913 56.7501 64.2929 56.5178C64.675 56.3808 64.9855 56.0352 65.29 55.788C64.4929 56.2765 63.7286 57.0093 62.9225 56.8901C62.9076 56.7203 62.9076 56.5744 62.9852 56.5297C63.2031 56.4731 63.4271 56.3688 63.654 56.2318C63.6958 56.2854 63.7764 56.3897 63.8182 56.4433C64.054 56.1335 64.4242 55.9309 64.7855 55.7254C65.1437 55.5169 65.493 55.2965 65.714 54.8973C65.6692 54.8883 65.6483 54.8347 65.6244 54.799C65.6035 54.7662 65.5826 54.7454 65.5438 54.7781C65.5856 54.7454 65.6065 54.7662 65.6244 54.799C65.3229 55.0879 65.0124 55.3441 64.684 55.5824C64.3585 55.8177 64.0092 56.0471 63.6808 56.2199C63.9256 56.0709 64.1764 55.8833 64.4302 55.6807C64.681 55.4811 64.9228 55.2756 65.1646 55.0671C65.6483 54.65 66.123 54.2151 66.6365 53.7951C66.6813 53.7594 66.7679 53.6879 66.8097 53.6521C67.1112 53.664 67.3291 53.5717 67.5053 53.4287C67.6755 53.7236 68.2755 54.096 67.8426 54.2807C67.8844 54.3313 67.971 54.4356 68.0128 54.4862C68.5741 54.4594 69.3056 55.076 69.1264 55.5675C68.9055 56.0978 68.2099 56.3212 67.8158 56.8186C67.5083 57.1582 67.2037 57.4948 66.7679 57.6795C66.4633 57.7987 66.1946 57.9774 65.911 58.1561C65.6274 58.3349 65.3109 58.5225 64.9437 58.6179C64.7049 58.7132 64.3974 59.1362 64.1705 59.023C64.0361 58.9843 63.9674 58.8592 63.9077 58.7132C64.2988 58.5345 64.6422 58.3081 64.9706 58.0966C65.4005 57.8642 65.7976 57.6378 66.2275 57.4561C65.7707 57.5902 65.3826 57.8255 64.9706 58.0966C64.6213 58.2842 64.257 58.4659 63.86 58.594C63.8092 58.4659 63.7525 58.3349 63.6719 58.2276C63.6719 58.2276 63.5674 58.2813 63.5166 58.3081C63.1613 58.1025 63.0479 57.6378 62.9792 57.3012C62.9703 57.2297 62.9583 57.1493 62.9494 57.0689L62.9404 57.0629Z" fill="white"></path>
<path d="M64.9437 57.2924C64.9437 57.3192 64.9377 57.346 64.9347 57.3699C64.9347 57.8227 65.1945 58.1473 65.3169 58.6031C65.3706 58.9457 65.6304 59.2197 65.8185 59.4759C65.4781 58.7938 65.0213 58.1205 65.1198 57.2775C65.293 57.2716 65.4423 57.2865 65.4901 57.3728C65.5408 57.6082 65.6184 57.8316 65.711 58.0461C65.6513 58.0818 65.5378 58.1473 65.4811 58.1801C65.7379 58.4154 65.8364 58.7282 65.9677 59.0321C66.0961 59.3359 66.2514 59.6338 66.5917 59.7917C66.6037 59.75 66.6574 59.7291 66.6932 59.7053C66.7261 59.6844 66.747 59.6636 66.7231 59.6338C66.747 59.6666 66.7261 59.6874 66.6932 59.7053C66.2364 59.2346 65.9379 58.6895 65.7229 58.0699C66.1319 58.9963 66.8216 59.7083 67.5142 60.453C67.5441 60.4857 67.6038 60.5483 67.6337 60.5811C67.6098 60.8462 67.6874 61.0219 67.8158 61.1441C67.5471 61.3526 67.2157 61.9633 67.0395 61.6028C66.9918 61.6505 66.8962 61.7458 66.8485 61.7935C66.8813 62.2969 66.3588 63.0982 65.8662 62.9939C65.3318 62.848 65.09 62.1956 64.6153 61.8352C64.2899 61.5522 63.9734 61.2483 63.8361 60.8224C63.6629 60.2325 63.2629 59.7321 63.2151 59.0976C63.1703 58.8861 62.824 58.6567 62.9553 58.472C63.0091 58.3618 63.1345 58.2963 63.2808 58.2337C63.4091 58.5406 63.5614 58.8384 63.7047 59.1363C63.845 59.5236 63.9883 59.9108 64.1137 60.3219C64.0361 59.887 63.8809 59.5087 63.7047 59.1363C63.5913 58.8235 63.4838 58.5078 63.4032 58.1861C63.5316 58.1354 63.6629 58.0818 63.7734 58.0044C63.7734 58.0044 63.7286 57.918 63.7077 57.8733C63.9227 57.5516 64.3705 57.3967 64.7108 57.3282C64.7825 57.3192 64.8631 57.3103 64.9437 57.2984V57.2924Z" fill="white"></path>
<path d="M50.5983 41.3912C50.5147 41.4895 50.4281 41.5849 50.3475 41.6802C49.5981 42.5828 48.9025 43.5241 48.1949 44.4982C47.4874 45.4752 46.7679 46.4553 46.0663 47.4949C45.5617 48.2068 45.1049 49.0379 44.7914 49.875C44.478 50.7091 44.3615 51.5491 44.4123 52.3534C44.3824 51.3972 44.6004 50.4797 45.0094 49.5592C45.4244 48.6239 45.9588 47.7213 46.5589 46.8425C47.159 45.9668 47.8217 45.1059 48.4845 44.2569C49.1503 43.4109 49.825 42.5887 50.5117 41.8053C50.4042 42.2402 50.2221 42.7228 49.8877 43.1994C49.0428 44.3105 48.192 45.4365 47.4247 46.5178C47.3679 46.4791 47.2575 46.4076 47.2037 46.3689C46.7171 47.1851 46.2424 47.9566 45.8244 48.7311C45.6184 49.1154 45.4184 49.5116 45.2542 49.8869C45.09 50.2652 44.9556 50.6376 44.8691 51.0159C44.6899 51.7666 44.6899 52.547 44.8571 53.393C45.0183 54.245 45.305 55.091 45.7528 55.5587C45.7289 55.4663 45.8065 55.4782 45.8513 55.4663C45.4901 54.9927 45.2363 54.1943 45.0781 53.3662C44.9168 52.55 44.887 51.8142 45.0333 51.0963C45.1049 50.7359 45.2154 50.3755 45.3647 50.0091C45.511 49.6486 45.702 49.2554 45.9021 48.883C46.3081 48.1324 46.7947 47.3906 47.3351 46.64C46.9261 47.2298 46.5439 47.8136 46.2096 48.4064C46.0394 48.7013 45.8871 48.9992 45.7438 49.3001C45.6005 49.6039 45.4692 49.9018 45.3706 50.1848C45.1616 50.7627 45.0482 51.3168 45.0392 51.8857C45.0273 52.4577 45.1109 53.0624 45.2661 53.7058C45.4094 54.3403 45.6125 54.9093 45.8662 55.2995C45.9916 55.4901 46.12 55.6301 46.2454 55.7195C46.2782 55.7374 46.3051 55.7672 46.3409 55.7791L46.3887 55.8059L46.5021 55.8625C46.6604 55.9399 46.8156 56.0174 46.9619 56.0829C47.559 56.357 48.0636 56.5089 48.5024 56.5089C49.2488 56.5149 50.0012 56.5208 50.7565 56.5238C51.0133 56.5238 51.5268 56.5238 51.7835 56.5238C52.8106 56.7174 53.8346 56.7591 54.8497 56.7055C54.6108 57.0481 55.6796 57.6826 53.6047 57.629C53.6047 57.6945 53.6107 57.8285 53.6137 57.897C54.6556 58.0341 55.393 58.3022 55.614 58.5971C55.8319 58.892 55.5244 59.2226 54.4615 59.4073C53.2673 59.595 51.8701 59.6158 50.4221 59.592C50.0609 59.5831 49.6967 59.5771 49.3265 59.5682L48.7741 59.5563L48.4995 59.5503L48.3263 59.5444C48.2606 59.5414 48.1979 59.5384 48.1322 59.5324C47.0933 59.449 46.2155 59.0886 45.496 58.7818C45.2184 58.6507 45.0452 58.5941 44.6153 58.3409C44.2481 58.1145 43.9346 57.8315 43.6749 57.5366C43.1524 56.9379 42.8329 56.3004 42.609 55.6957C42.3821 55.085 42.2478 54.5101 42.1463 53.9382C42.0448 53.3573 41.9851 52.7347 42.0119 52.0972C42.0478 51.2185 42.2299 50.3069 42.5254 49.4878C42.821 48.6567 43.1882 47.9417 43.5823 47.2357C44.3824 45.8357 45.3169 44.6024 46.2364 43.5092C46.8843 42.693 47.7591 41.0844 48.2218 40.7716C48.5144 40.5214 48.6398 40.5899 48.7383 40.727C47.7441 42.1211 46.7559 43.5092 45.7767 44.8854C45.1587 45.7284 44.5436 46.5983 43.9943 47.5366C43.7196 48.0073 43.4629 48.4869 43.227 48.9992C42.9912 49.5146 42.7852 50.0627 42.6478 50.6495C42.7971 50.0805 43.0061 49.5414 43.242 49.035C43.4778 48.5286 43.7346 48.0549 44.0092 47.5843C44.5556 46.6459 45.1616 45.7582 45.7767 44.8884C46.7888 43.5271 47.7949 42.1896 48.8129 40.8461C48.8906 40.9742 48.9742 41.1053 49.1413 41.0963C49.1413 41.0963 49.4369 40.6704 49.5862 40.4559C50.455 39.7916 50.6938 40.2742 50.6729 40.8908C50.652 41.0397 50.6311 41.2036 50.6013 41.3853L50.5983 41.3912Z" fill="white"></path>
<path d="M51.4969 39.4761C51.491 39.5029 51.488 39.5327 51.482 39.5595C51.4462 40.0421 51.6522 40.4383 51.6671 40.9447C51.6402 41.3081 51.8104 41.6626 51.897 41.9933C51.8134 41.177 51.5148 40.3906 51.679 39.491C51.8552 39.5119 52.0075 39.5595 52.0463 39.6668C52.0791 39.9438 52.1209 40.2089 52.1746 40.4681C52.109 40.4889 51.9836 40.5277 51.9209 40.5485C52.3418 41.2009 52.0045 42.0052 52.4971 42.6426C52.5269 42.6099 52.5837 42.6129 52.6255 42.6069C52.6643 42.6039 52.6911 42.595 52.6822 42.5473C52.6941 42.592 52.6643 42.6009 52.6255 42.6069C52.3956 41.9069 52.2791 41.2366 52.1806 40.4949C52.4045 41.6179 52.8016 42.6486 53.0076 43.8044C53.0166 43.8521 53.0345 43.9504 53.0434 44.001C52.8762 44.2304 52.8434 44.4359 52.8703 44.6325C52.5299 44.6325 51.894 44.9215 51.9716 44.5223C51.906 44.5312 51.7716 44.5521 51.7059 44.564C51.4313 44.993 50.5177 45.2432 50.1982 44.9334C49.8728 44.5849 50.046 44.0189 49.8131 43.5691C49.6728 43.2384 49.5265 42.9167 49.5653 42.5443C49.637 42.023 49.419 41.5345 49.5175 40.9864C49.5235 40.7928 49.2309 40.5664 49.3892 40.4145C49.4578 40.3221 49.5892 40.2685 49.7444 40.2238C49.825 40.5128 49.9176 40.7987 49.9803 41.0877C50.0191 41.4541 50.046 41.8235 50.0101 42.2048C50.0967 41.8175 50.0579 41.4481 49.9803 41.0877C49.9445 40.7898 49.9086 40.5068 49.8698 40.1881C50.0012 40.1523 50.1415 40.1136 50.2579 40.0481C50.2579 40.0481 50.2251 39.9617 50.2102 39.917C50.461 39.6251 50.9148 39.5 51.2641 39.4731C51.3357 39.4731 51.4193 39.4731 51.5029 39.4731L51.4969 39.4761Z" fill="white"></path>
<path d="M50.9894 41.2038C50.9595 41.1919 50.9327 41.183 50.9028 41.1711C50.3774 41.031 49.8877 41.1562 49.3145 41.0906C48.9085 41.0042 48.4726 41.1234 48.0845 41.1711C49.0219 41.183 49.9833 41.0221 50.9237 41.3766C50.8521 41.5434 50.7625 41.6834 50.6371 41.6983C50.3296 41.6715 50.0281 41.6655 49.7325 41.6685C49.7235 41.6 49.7086 41.4689 49.6996 41.4034C48.8906 41.7013 48.0487 41.2634 47.2545 41.6953C47.2873 41.7281 47.2784 41.7847 47.2754 41.8264C47.2754 41.8264 47.2724 41.8264 47.2694 41.8264C47.2694 41.8264 47.2724 41.8264 47.2754 41.8264C47.2754 41.8651 47.2814 41.8949 47.3321 41.886C47.2814 41.8919 47.2724 41.8621 47.2754 41.8264C48.0875 41.6626 48.8607 41.6358 49.6967 41.6685C48.4099 41.6953 47.2008 41.9724 45.8961 42.1273C45.8394 42.1332 45.7289 42.1481 45.6752 42.1541C45.4304 41.9813 45.1975 41.9396 44.9766 41.9664C44.9915 41.6268 44.6899 40.9893 45.1497 41.0668C45.1408 41.0013 45.1258 40.8672 45.1169 40.8017C44.6332 40.5217 44.3526 39.6101 44.7676 39.2914C45.2363 38.9667 45.9349 39.1514 46.529 38.9459C46.9649 38.8267 47.4008 38.7075 47.8636 38.788C48.4995 38.9161 49.1563 38.7671 49.8012 38.9607C50.031 38.9995 50.3953 38.7552 50.5326 38.9399C50.6252 39.0263 50.6431 39.1663 50.652 39.3271C50.2848 39.348 49.9176 39.3837 49.5563 39.3986C49.1055 39.3778 48.6547 39.348 48.1979 39.2676C48.6517 39.3986 49.1025 39.4165 49.5563 39.3986C49.9236 39.4165 50.2878 39.4284 50.658 39.4582C50.661 39.5952 50.667 39.7382 50.7028 39.8663C50.7028 39.8663 50.8132 39.8544 50.87 39.8455C51.1327 40.1523 51.1327 40.6229 51.061 40.9715C51.0401 41.043 51.0192 41.1234 50.9924 41.2038H50.9894Z" fill="white"></path>
</g>
<defs>
<clipPath id="clip0_5454_3462">
<rect width="40" height="40" fill="white" transform="translate(42 23)"></rect>
</clipPath>
</defs>
</svg>