<svg width="125" height="125" viewBox="0 0 125 125" fill="none" xmlns="http://www.w3.org/2000/svg">
<rect width="125" height="125" rx="20" fill="#018040"></rect>
<path d="M20.1094 89V83.4688H15.1094V89H13.5469V77.5547H15.1094V82.1406H20.1094V77.5547H21.6719V89H20.1094ZM28.625 88.0391C28.0312 88.7839 27.1224 89.1562 25.8984 89.1562C25.2422 89.1562 24.6719 88.9193 24.1875 88.4453C23.7083 87.9661 23.4688 87.3724 23.4688 86.6641C23.4688 85.8151 23.8385 85.099 24.5781 84.5156C25.3229 83.9271 26.2708 83.6328 27.4219 83.6328C27.7344 83.6328 28.0885 83.7005 28.4844 83.8359C28.4844 82.4818 27.8802 81.8047 26.6719 81.8047C25.7448 81.8047 25.0312 82.0547 24.5312 82.5547L23.9062 81.3125C24.1875 81.0833 24.5755 80.888 25.0703 80.7266C25.5703 80.5599 26.0469 80.4766 26.5 80.4766C27.7135 80.4766 28.5938 80.7526 29.1406 81.3047C29.6927 81.8568 29.9688 82.7344 29.9688 83.9375V86.9375C29.9688 87.6719 30.1875 88.1615 30.625 88.4062V89.1484C30.0208 89.1484 29.5677 89.0625 29.2656 88.8906C28.9688 88.7188 28.7552 88.4349 28.625 88.0391ZM28.4844 84.8906C28.0156 84.7865 27.6875 84.7344 27.5 84.7344C26.75 84.7344 26.138 84.9271 25.6641 85.3125C25.1901 85.6979 24.9531 86.1536 24.9531 86.6797C24.9531 87.5495 25.4661 87.9844 26.4922 87.9844C27.2422 87.9844 27.9062 87.6276 28.4844 86.9141V84.8906ZM36.8516 82.0625C36.5286 81.8385 36.2031 81.7266 35.875 81.7266C35.349 81.7266 34.888 81.9688 34.4922 82.4531C34.1016 82.9375 33.9062 83.5208 33.9062 84.2031V89H32.4219V80.6328H33.9062V81.9688C34.4479 80.974 35.2526 80.4766 36.3203 80.4766C36.5859 80.4766 36.9688 80.5234 37.4688 80.6172L36.8516 82.0625ZM48.2109 89V83.7031C48.2109 82.3854 47.6406 81.7266 46.5 81.7266C46.1406 81.7266 45.8047 81.8385 45.4922 82.0625C45.1797 82.2812 44.9661 82.5312 44.8516 82.8125V89H43.3672V83.0547C43.3672 82.6432 43.2109 82.3203 42.8984 82.0859C42.5911 81.8464 42.1823 81.7266 41.6719 81.7266C41.375 81.7266 41.0573 81.8411 40.7188 82.0703C40.3854 82.2995 40.1484 82.5521 40.0078 82.8281V89H38.5234V80.6328H39.4922L39.9844 81.6016C40.5573 80.8516 41.2734 80.4766 42.1328 80.4766C43.3307 80.4766 44.1693 80.849 44.6484 81.5938C44.8151 81.276 45.125 81.0104 45.5781 80.7969C46.0312 80.5833 46.4974 80.4766 46.9766 80.4766C47.8411 80.4766 48.5104 80.7344 48.9844 81.25C49.4583 81.7604 49.6953 82.4792 49.6953 83.4062V89H48.2109ZM51.2578 84.7969C51.2578 83.5052 51.6042 82.4635 52.2969 81.6719C52.9948 80.875 53.9115 80.4766 55.0469 80.4766C56.2448 80.4766 57.1745 80.8594 57.8359 81.625C58.4974 82.3854 58.8281 83.4427 58.8281 84.7969C58.8281 86.1458 58.4896 87.2109 57.8125 87.9922C57.1354 88.7682 56.2135 89.1562 55.0469 89.1562C53.8542 89.1562 52.9245 88.763 52.2578 87.9766C51.5911 87.1901 51.2578 86.1302 51.2578 84.7969ZM52.8203 84.7969C52.8203 86.8958 53.5625 87.9453 55.0469 87.9453C55.7396 87.9453 56.2812 87.6641 56.6719 87.1016C57.0677 86.5391 57.2656 85.7708 57.2656 84.7969C57.2656 82.724 56.526 81.6875 55.0469 81.6875C54.3698 81.6875 53.8281 81.9635 53.4219 82.5156C53.0208 83.0677 52.8203 83.8281 52.8203 84.7969ZM65.5469 89V84.1328C65.5469 83.2422 65.4115 82.6198 65.1406 82.2656C64.875 81.9062 64.4271 81.7266 63.7969 81.7266C63.4583 81.7266 63.1042 81.8281 62.7344 82.0312C62.3646 82.2344 62.0807 82.4844 61.8828 82.7812V89H60.3984V80.6328H61.4141L61.8828 81.7109C62.3724 80.888 63.1719 80.4766 64.2812 80.4766C66.1146 80.4766 67.0312 81.5911 67.0312 83.8203V89H65.5469ZM68.6016 84.7969C68.6016 83.5052 68.9479 82.4635 69.6406 81.6719C70.3385 80.875 71.2552 80.4766 72.3906 80.4766C73.5885 80.4766 74.5182 80.8594 75.1797 81.625C75.8411 82.3854 76.1719 83.4427 76.1719 84.7969C76.1719 86.1458 75.8333 87.2109 75.1562 87.9922C74.4792 88.7682 73.5573 89.1562 72.3906 89.1562C71.1979 89.1562 70.2682 88.763 69.6016 87.9766C68.9349 87.1901 68.6016 86.1302 68.6016 84.7969ZM70.1641 84.7969C70.1641 86.8958 70.9062 87.9453 72.3906 87.9453C73.0833 87.9453 73.625 87.6641 74.0156 87.1016C74.4115 86.5391 74.6094 85.7708 74.6094 84.7969C74.6094 82.724 73.8698 81.6875 72.3906 81.6875C71.7135 81.6875 71.1719 81.9635 70.7656 82.5156C70.3646 83.0677 70.1641 83.8281 70.1641 84.7969ZM77.4375 91.2891L78.2422 90.1016C79.1068 90.6797 79.9036 90.9688 80.6328 90.9688C81.3047 90.9688 81.8333 90.8516 82.2188 90.6172C82.6094 90.388 82.8047 90.1016 82.8047 89.7578C82.8047 89.0807 82.3151 88.7422 81.3359 88.7422C81.1693 88.7422 80.8672 88.7839 80.4297 88.8672C79.9922 88.9505 79.651 88.9922 79.4062 88.9922C78.2188 88.9922 77.625 88.5443 77.625 87.6484C77.625 87.3724 77.763 87.1224 78.0391 86.8984C78.3203 86.6745 78.6667 86.513 79.0781 86.4141C77.901 85.862 77.3125 84.9036 77.3125 83.5391C77.3125 82.6641 77.6172 81.9349 78.2266 81.3516C78.8359 80.7682 79.5885 80.4766 80.4844 80.4766C81.3073 80.4766 81.9505 80.6458 82.4141 80.9844L83.1562 80.0938L84.125 81.0078L83.2344 81.6797C83.6146 82.1745 83.8047 82.8203 83.8047 83.6172C83.8047 84.4609 83.5417 85.1693 83.0156 85.7422C82.4896 86.3151 81.7995 86.6432 80.9453 86.7266L79.7188 86.8516C79.5729 86.8672 79.3776 86.9245 79.1328 87.0234C78.888 87.1172 78.7656 87.2422 78.7656 87.3984C78.7656 87.612 79.0208 87.7188 79.5312 87.7188C79.7552 87.7188 80.1042 87.6797 80.5781 87.6016C81.0521 87.5182 81.4036 87.4766 81.6328 87.4766C82.4557 87.4766 83.0964 87.6745 83.5547 88.0703C84.0182 88.4609 84.25 89.0052 84.25 89.7031C84.25 90.474 83.9036 91.0964 83.2109 91.5703C82.5234 92.0443 81.651 92.2812 80.5938 92.2812C80.0521 92.2812 79.4818 92.1849 78.8828 91.9922C78.2839 91.7995 77.8021 91.5651 77.4375 91.2891ZM80.5859 81.6719C80.0703 81.6719 79.6484 81.8542 79.3203 82.2188C78.9974 82.5833 78.8359 83.026 78.8359 83.5469C78.8359 84.1302 78.9922 84.6146 79.3047 85C79.6224 85.3802 80.0495 85.5703 80.5859 85.5703C81.112 85.5703 81.5234 85.3854 81.8203 85.0156C82.1172 84.6406 82.2656 84.151 82.2656 83.5469C82.2656 83.026 82.1042 82.5833 81.7812 82.2188C81.4635 81.8542 81.0651 81.6719 80.5859 81.6719ZM90.3203 82.0625C89.9974 81.8385 89.6719 81.7266 89.3438 81.7266C88.8177 81.7266 88.3568 81.9688 87.9609 82.4531C87.5703 82.9375 87.375 83.5208 87.375 84.2031V89H85.8906V80.6328H87.375V81.9688C87.9167 80.974 88.7214 80.4766 89.7891 80.4766C90.0547 80.4766 90.4375 80.5234 90.9375 80.6172L90.3203 82.0625ZM96.7188 88.0391C96.125 88.7839 95.2161 89.1562 93.9922 89.1562C93.3359 89.1562 92.7656 88.9193 92.2812 88.4453C91.8021 87.9661 91.5625 87.3724 91.5625 86.6641C91.5625 85.8151 91.9323 85.099 92.6719 84.5156C93.4167 83.9271 94.3646 83.6328 95.5156 83.6328C95.8281 83.6328 96.1823 83.7005 96.5781 83.8359C96.5781 82.4818 95.974 81.8047 94.7656 81.8047C93.8385 81.8047 93.125 82.0547 92.625 82.5547L92 81.3125C92.2812 81.0833 92.6693 80.888 93.1641 80.7266C93.6641 80.5599 94.1406 80.4766 94.5938 80.4766C95.8073 80.4766 96.6875 80.7526 97.2344 81.3047C97.7865 81.8568 98.0625 82.7344 98.0625 83.9375V86.9375C98.0625 87.6719 98.2812 88.1615 98.7188 88.4062V89.1484C98.1146 89.1484 97.6615 89.0625 97.3594 88.8906C97.0625 88.7188 96.849 88.4349 96.7188 88.0391ZM96.5781 84.8906C96.1094 84.7865 95.7812 84.7344 95.5938 84.7344C94.8438 84.7344 94.2318 84.9271 93.7578 85.3125C93.2839 85.6979 93.0469 86.1536 93.0469 86.6797C93.0469 87.5495 93.5599 87.9844 94.5859 87.9844C95.3359 87.9844 96 87.6276 96.5781 86.9141V84.8906ZM110.086 89V83.7031C110.086 82.3854 109.516 81.7266 108.375 81.7266C108.016 81.7266 107.68 81.8385 107.367 82.0625C107.055 82.2812 106.841 82.5312 106.727 82.8125V89H105.242V83.0547C105.242 82.6432 105.086 82.3203 104.773 82.0859C104.466 81.8464 104.057 81.7266 103.547 81.7266C103.25 81.7266 102.932 81.8411 102.594 82.0703C102.26 82.2995 102.023 82.5521 101.883 82.8281V89H100.398V80.6328H101.367L101.859 81.6016C102.432 80.8516 103.148 80.4766 104.008 80.4766C105.206 80.4766 106.044 80.849 106.523 81.5938C106.69 81.276 107 81.0104 107.453 80.7969C107.906 80.5833 108.372 80.4766 108.852 80.4766C109.716 80.4766 110.385 80.7344 110.859 81.25C111.333 81.7604 111.57 82.4792 111.57 83.4062V89H110.086ZM35.7266 104.797C35.7266 103.505 36.0729 102.464 36.7656 101.672C37.4635 100.875 38.3802 100.477 39.5156 100.477C40.7135 100.477 41.6432 100.859 42.3047 101.625C42.9661 102.385 43.2969 103.443 43.2969 104.797C43.2969 106.146 42.9583 107.211 42.2812 107.992C41.6042 108.768 40.6823 109.156 39.5156 109.156C38.3229 109.156 37.3932 108.763 36.7266 107.977C36.0599 107.19 35.7266 106.13 35.7266 104.797ZM37.2891 104.797C37.2891 106.896 38.0312 107.945 39.5156 107.945C40.2083 107.945 40.75 107.664 41.1406 107.102C41.5365 106.539 41.7344 105.771 41.7344 104.797C41.7344 102.724 40.9948 101.688 39.5156 101.688C38.8385 101.688 38.2969 101.964 37.8906 102.516C37.4896 103.068 37.2891 103.828 37.2891 104.797ZM50.1719 108.992V108.375C49.6562 108.891 48.9062 109.148 47.9219 109.148C46.875 109.148 46.026 108.773 45.375 108.023C44.724 107.273 44.3984 106.273 44.3984 105.023C44.3984 103.768 44.7734 102.698 45.5234 101.812C46.2734 100.922 47.1667 100.477 48.2031 100.477C49.0677 100.477 49.724 100.68 50.1719 101.086V97.2031H51.6562V108.992H50.1719ZM50.1719 102.57C49.7969 102.008 49.2839 101.727 48.6328 101.727C47.8359 101.727 47.1901 102.023 46.6953 102.617C46.2057 103.211 45.9609 103.966 45.9609 104.883C45.9609 106.898 46.8776 107.906 48.7109 107.906C48.9453 107.906 49.2266 107.833 49.5547 107.688C49.8828 107.536 50.0885 107.378 50.1719 107.211V102.57ZM55.0547 108.398L54.5312 109.156H53.7891V97.2031H55.2734V101.25C55.4141 101.057 55.6771 100.88 56.0625 100.719C56.4531 100.557 56.8359 100.477 57.2109 100.477C58.3568 100.477 59.2839 100.872 59.9922 101.664C60.7057 102.456 61.0625 103.456 61.0625 104.664C61.0625 106.06 60.7057 107.159 59.9922 107.961C59.2786 108.758 58.3125 109.156 57.0938 109.156C56.6979 109.156 56.3073 109.083 55.9219 108.938C55.5417 108.786 55.2526 108.607 55.0547 108.398ZM55.2734 102.383V107.211C55.2734 107.294 55.4583 107.432 55.8281 107.625C56.1979 107.812 56.4792 107.906 56.6719 107.906C57.6823 107.906 58.4062 107.664 58.8438 107.18C59.2812 106.695 59.5 105.883 59.5 104.742C59.5 103.794 59.2448 103.055 58.7344 102.523C58.224 101.992 57.5365 101.727 56.6719 101.727C56.4896 101.727 56.2344 101.805 55.9062 101.961C55.5833 102.117 55.3724 102.258 55.2734 102.383ZM64.2422 97.4688C64.4974 97.4688 64.7135 97.5599 64.8906 97.7422C65.0729 97.9193 65.1641 98.1328 65.1641 98.3828C65.1641 98.638 65.0729 98.8568 64.8906 99.0391C64.7135 99.2161 64.4974 99.3047 64.2422 99.3047C63.9922 99.3047 63.776 99.2161 63.5938 99.0391C63.4167 98.8568 63.3281 98.638 63.3281 98.3828C63.3281 98.1276 63.4167 97.9115 63.5938 97.7344C63.7708 97.5573 63.987 97.4688 64.2422 97.4688ZM63.4297 109V101.883H62.2812V100.633H64.9141V109H63.4297ZM66.7266 104.797C66.7266 103.505 67.0729 102.464 67.7656 101.672C68.4635 100.875 69.3802 100.477 70.5156 100.477C71.7135 100.477 72.6432 100.859 73.3047 101.625C73.9661 102.385 74.2969 103.443 74.2969 104.797C74.2969 106.146 73.9583 107.211 73.2812 107.992C72.6042 108.768 71.6823 109.156 70.5156 109.156C69.3229 109.156 68.3932 108.763 67.7266 107.977C67.0599 107.19 66.7266 106.13 66.7266 104.797ZM68.2891 104.797C68.2891 106.896 69.0312 107.945 70.5156 107.945C71.2083 107.945 71.75 107.664 72.1406 107.102C72.5365 106.539 72.7344 105.771 72.7344 104.797C72.7344 102.724 71.9948 101.688 70.5156 101.688C69.8385 101.688 69.2969 101.964 68.8906 102.516C68.4896 103.068 68.2891 103.828 68.2891 104.797ZM80.4141 102.062C80.0911 101.839 79.7656 101.727 79.4375 101.727C78.9115 101.727 78.4505 101.969 78.0547 102.453C77.6641 102.938 77.4688 103.521 77.4688 104.203V109H75.9844V100.633H77.4688V101.969C78.0104 100.974 78.8151 100.477 79.8828 100.477C80.1484 100.477 80.5312 100.523 81.0312 100.617L80.4141 102.062ZM83.4922 100.633V105.969C83.4922 107.26 84.0521 107.906 85.1719 107.906C85.6615 107.906 86.1094 107.766 86.5156 107.484C86.9219 107.203 87.1901 106.878 87.3203 106.508V100.633H88.8047V109H87.3203V107.844C87.1536 108.172 86.8177 108.474 86.3125 108.75C85.8125 109.021 85.3229 109.156 84.8438 109.156C83.9271 109.156 83.224 108.893 82.7344 108.367C82.25 107.841 82.0078 107.094 82.0078 106.125V100.633H83.4922Z" fill="white"></path>
<g clip-path="url(#clip0_5454_3451)">
<path d="M69.8836 29.835C70.0624 29.8392 70.2412 29.8413 70.4179 29.8454C71.2403 29.8601 72.0395 29.9186 72.8283 29.9583C73.6191 30.0001 74.4099 30.0294 75.2155 30.0482C75.3038 30.0482 75.4426 30.0607 75.5688 30.0712L75.7581 30.0879L75.939 30.1234C76.1851 30.1652 76.4102 30.2426 76.6394 30.3178C77.0811 30.4871 77.4913 30.7066 77.8783 30.9554C78.6397 31.4654 79.3169 32.0903 79.8932 32.8303C80.093 33.0916 80.2823 33.3675 80.4611 33.6601C80.5473 33.8085 80.6315 33.959 80.7135 34.1137C80.785 34.2621 80.8565 34.4105 80.928 34.561C81.0458 34.7972 81.2204 35.0856 81.3866 35.3595C81.5569 35.6375 81.7273 35.9155 81.8977 36.1956C82.2405 36.7557 82.5833 37.3222 82.9051 37.8928C83.2269 38.4655 83.5277 39.0404 83.7696 39.6486C83.4899 38.9275 83.1449 38.267 82.7853 37.6148C82.4256 36.9648 82.0428 36.3272 81.6621 35.6981C81.4728 35.3845 81.2814 35.0689 81.1089 34.7658C81.0711 34.6948 81.0185 34.6091 80.9932 34.5526L80.8797 34.3185C80.8355 34.2266 80.7913 34.1325 80.743 34.0426L80.5936 33.7772C80.1856 33.0769 79.6724 32.4687 79.1045 31.9148C78.5345 31.3629 77.8888 30.8822 77.1505 30.506C76.7761 30.3262 76.3828 30.1611 75.939 30.0775L75.775 30.0419L75.6025 30.0231L75.43 30.0064C75.3732 30.0022 75.3101 29.9959 75.2702 29.9938L74.7296 29.9709C74.0103 29.9374 73.2994 29.8914 72.5885 29.8371C71.8797 29.7848 71.1582 29.7242 70.4242 29.6991C71.0131 29.5716 71.724 29.5006 72.5064 29.5277C73.4487 29.58 74.3721 29.6239 75.2975 29.649C75.4384 29.6573 75.6172 29.674 75.7729 29.6887C75.9306 29.7117 76.0778 29.7472 76.2293 29.7786C76.5216 29.8559 76.8014 29.95 77.058 30.0649C77.5754 30.2927 78.0381 30.5728 78.463 30.8843C78.4356 30.9219 78.381 30.9972 78.3536 31.0348C78.9594 31.4486 79.4873 31.9336 79.9584 32.4687C80.4275 33.008 80.8355 33.5995 81.1489 34.2788L81.233 34.4502C81.2562 34.4983 81.3003 34.5714 81.3319 34.63C81.4013 34.7554 81.4833 34.8913 81.559 35.0229L82.0428 35.8381C82.3667 36.3858 82.6906 36.9418 82.9998 37.5124C83.309 38.083 83.6076 38.6641 83.8727 39.2954C83.9358 39.4563 84.0052 39.6089 84.062 39.7866L84.1482 40.0437C84.1776 40.1294 84.1966 40.2318 84.2218 40.3258C84.2744 40.5014 84.2975 40.7439 84.3122 40.9738V41.4504C84.3207 42.7108 84.3817 43.9754 84.5247 45.2567C84.5394 45.0728 84.5836 45.1794 84.6172 45.2149C84.6172 45.2274 84.6172 45.24 84.6193 45.2504C84.6193 45.2379 84.6193 45.2274 84.6172 45.2149C84.6467 45.2483 84.6656 45.2253 84.6467 44.9055C84.6656 45.2253 84.6467 45.2462 84.6172 45.2149C84.5247 43.9524 84.4784 42.7108 84.4721 41.4734V41.0093C84.4553 40.8045 84.4384 40.5098 84.3838 40.3405L84.3101 40.0478L84.2218 39.7887C84.165 39.611 84.0977 39.4521 84.0325 39.2954C83.7654 38.6641 83.4625 38.0914 83.1533 37.5291C82.842 36.9668 82.5181 36.4234 82.1963 35.8841C82.0365 35.6166 81.8766 35.3511 81.7147 35.0836L81.4833 34.6927L81.3803 34.5066L81.3319 34.4189L81.3003 34.3541L81.0774 33.89C80.9869 33.7333 80.9007 33.5702 80.806 33.4176C80.6125 33.1125 80.4085 32.8198 80.1835 32.5439C79.7355 31.99 79.2307 31.4842 78.6586 31.0306C79.5546 31.7287 80.2971 32.5544 80.8986 33.5222C80.9701 33.6476 81.0437 33.7709 81.1131 33.8984L81.3066 34.2955L81.3592 34.398C81.376 34.4335 81.4097 34.4899 81.4349 34.5338C81.4854 34.6258 81.5485 34.7303 81.6095 34.8327C81.8661 35.2529 82.1206 35.6709 82.3772 36.091C82.8925 36.948 83.412 37.8071 83.8685 38.7582C84.0956 39.2368 84.3165 39.7197 84.4679 40.3572C84.5121 40.4972 84.5268 40.7188 84.5436 40.9048C84.5541 41.0198 84.5478 41.0512 84.5499 41.1201V41.302L84.5604 42.0294C84.5752 42.9992 84.613 43.967 84.6761 44.9369C84.735 45.9088 84.8254 46.885 84.9012 47.8946C84.939 48.3983 84.9664 48.9125 84.9853 49.4288C84.9937 49.688 85 49.9472 85.0021 50.2064V50.4028L84.9979 50.6369C84.9958 50.7916 84.9748 50.9526 84.958 51.1114C84.9117 51.4312 84.8339 51.751 84.7203 52.0646C84.6025 52.376 84.449 52.677 84.2681 52.955C83.8979 53.511 83.4204 53.9604 82.9178 54.3137C82.8315 54.3701 82.7243 54.4474 82.6044 54.5206C82.5434 54.5561 82.4803 54.5958 82.4172 54.6335L82.3646 54.6648L82.2763 54.7066C82.2174 54.7338 82.1564 54.761 82.0954 54.786C81.6663 54.9407 81.3908 54.97 81.1846 55.0076C80.3938 55.0494 79.6829 55.039 78.9615 55.039C78.2421 55.039 77.5354 55.0348 76.8266 55.0327C77.0033 54.9156 76.7383 54.738 76.7824 54.6042C76.8266 54.4662 77.1758 54.3847 78.585 54.3973C78.585 54.3513 78.5808 54.2572 78.5787 54.2091C77.1716 54.1297 76.2146 53.8872 75.9516 53.672C75.6887 53.4504 76.1367 53.2518 77.5144 53.1494C78.2863 53.093 79.1297 53.0532 79.9752 52.978C80.1877 52.9613 80.3959 52.9362 80.602 52.9132C80.7009 52.8986 80.8018 52.8839 80.9007 52.8714C80.9869 52.8526 81.0879 52.838 81.1636 52.8191C81.2225 52.8045 81.3214 52.7732 81.2877 52.7878C81.3214 52.8609 81.3571 52.932 81.3971 53.001L81.4602 53.1055L81.4938 53.1557L81.5107 53.1807L81.5191 53.1933C81.5738 53.2873 81.0774 52.4304 81.2877 52.792L81.3508 52.7543L81.477 52.6791C81.6369 52.5746 81.7967 52.468 81.9334 52.3509C82.4992 51.8827 82.8084 51.3204 82.8547 50.593C82.8631 50.4321 82.8589 50.1729 82.8547 49.9409C82.8484 49.7047 82.8441 49.4706 82.8315 49.2344C82.8105 48.7641 82.7726 48.2938 82.7264 47.8256C82.6002 46.4586 82.4571 45.0372 82.4046 43.6221C82.3772 42.9135 82.3625 42.205 82.3667 41.5006V40.9864C82.3625 40.9571 82.3604 40.9257 82.3625 40.8965C82.3604 40.8589 82.3394 40.7899 82.3288 40.7376L82.312 40.654C82.3036 40.6227 82.291 40.5892 82.2805 40.5558L82.2174 40.3551C82.169 40.2172 82.1101 40.0729 82.0575 39.9287C81.7252 39.1219 81.2709 38.2774 80.7829 37.4371C80.5326 37.0128 80.2802 36.5843 80.0257 36.1558L79.8301 35.8235C79.7649 35.7148 79.6976 35.5957 79.6303 35.4723L79.5798 35.3804L79.5209 35.2654L79.4263 35.0689C79.38 34.977 79.3422 34.8829 79.2917 34.7909C78.8984 34.0447 78.2947 33.3403 77.6364 32.7592C76.9738 32.1907 76.2103 31.7246 75.5184 31.5887C75.4574 31.5824 75.3922 31.5741 75.327 31.5678C75.2534 31.5615 75.1377 31.5615 75.0409 31.5594C74.8369 31.5573 74.6224 31.5532 74.4015 31.5511C73.9619 31.5469 73.4971 31.5406 73.0575 31.5364C72.1741 31.5197 71.4022 31.4967 71.0657 31.4257C70.5798 31.3567 70.5567 31.2605 70.6303 31.1477C71.7514 31.1456 72.9061 31.2166 74.0566 31.2438L74.9189 31.2647C75.0577 31.2689 75.2134 31.2689 75.3417 31.2752C75.4574 31.2919 75.5709 31.2835 75.6887 31.317C76.1599 31.4048 76.6352 31.618 77.0748 31.8897C77.6154 32.2283 78.1138 32.6568 78.5492 33.1334C78.9846 33.6099 79.3695 34.1388 79.6471 34.6927C79.7165 34.8411 79.7586 34.9414 79.8659 35.1609C79.9584 35.3407 80.0447 35.4953 80.1309 35.65L80.6546 36.5572C80.9996 37.155 81.3382 37.7507 81.6495 38.3506C81.3529 37.759 81.0269 37.1696 80.6883 36.576C80.5158 36.275 80.3454 35.9761 80.173 35.6751C80.0867 35.5246 79.9984 35.3636 79.91 35.1985L79.7796 34.9268L79.6829 34.7178C79.4137 34.1576 79.0204 33.6267 78.5787 33.1459C78.1349 32.6631 77.628 32.2304 77.0727 31.8918C76.6352 31.6159 76.1641 31.3985 75.6971 31.3023C75.5794 31.2668 75.4658 31.271 75.3501 31.2543C75.2281 31.2438 75.0725 31.2438 74.9336 31.2375L74.0818 31.2062C72.946 31.1644 71.8082 31.0766 70.6997 31.0599C70.7796 30.9637 70.8596 30.8634 70.7207 30.7714C70.7207 30.7714 70.5462 30.7756 70.3295 30.7777C70.1129 30.784 69.8521 30.7965 69.6775 30.8069C68.2704 30.6732 68.5733 30.3283 69.2695 30.0315C69.4483 29.9688 69.6523 29.904 69.8794 29.8392L69.8836 29.835Z" fill="white"></path>
<path d="M65.9631 53.7972C65.9294 53.6154 65.9294 53.4419 65.9337 53.2747C65.9715 52.5055 66.2513 51.9056 66.5752 51.36C66.7413 51.0883 66.9285 50.8333 67.1452 50.5887C67.3555 50.3484 67.6247 50.108 67.8939 49.9241C68.4429 49.5457 69.0655 49.297 69.7028 49.1611C70.3422 49.0253 71.0005 48.9939 71.6567 49.0587C72.5759 49.1611 73.5623 49.414 74.4394 49.9282C75.3165 50.4424 76.0505 51.2137 76.4459 52.1062C75.9937 51.0423 75.1251 50.1874 74.0944 49.6732C73.0638 49.159 71.9175 48.9646 70.7986 49.0023C70.2349 49.0232 69.6649 49.111 69.1075 49.2865C68.5502 49.4642 68.0096 49.7338 67.5301 50.1184C67.0421 50.5219 66.6887 50.9713 66.3817 51.475C66.2302 51.7258 66.0998 51.9976 65.9946 52.2902C65.8895 52.5828 65.8075 52.9005 65.7906 53.2601C65.6749 52.6811 65.7612 52.0143 66.0725 51.4039C66.2702 51.0402 66.4994 50.71 66.7666 50.3985C66.9012 50.2439 67.0463 50.0934 67.2104 49.947C67.3828 49.7965 67.5448 49.6711 67.7215 49.5562C68.4197 49.0921 69.1917 48.8413 69.9404 48.7159C69.9488 48.7619 69.9657 48.8539 69.9741 48.8998C70.4873 48.7911 71.0047 48.7514 71.5116 48.7682C72.0185 48.7828 72.5254 48.8559 73.0197 48.9897C74.004 49.2489 74.9526 49.7736 75.6719 50.5302C76.0295 50.9086 76.3387 51.337 76.57 51.8136C76.8014 52.2881 76.9549 52.819 77.0054 53.352C77.0601 53.885 77.0222 54.4222 76.9023 54.9406C76.7846 55.4611 76.5932 55.969 76.3176 56.4435C76.4249 56.3264 76.4081 56.4226 76.4144 56.4686C76.4081 56.4769 76.4018 56.4874 76.3975 56.4957C76.4039 56.4874 76.4081 56.479 76.4144 56.4686C76.4186 56.5062 76.4543 56.5083 76.5932 56.2616C76.4543 56.5062 76.4186 56.5062 76.4144 56.4686C76.7088 56.0024 76.9129 55.4945 77.0433 54.9699C77.1716 54.4452 77.2178 53.8997 77.1631 53.3562C77.1127 52.8127 76.957 52.2693 76.7215 51.7885C76.4817 51.3057 76.1746 50.8688 75.8086 50.4926C75.0851 49.7297 74.1365 49.205 73.1585 48.9228C72.1699 48.6427 71.1624 48.5591 70.1129 48.6908C70.929 48.58 71.7219 48.6051 72.5128 48.7452C73.3015 48.8894 74.0839 49.1632 74.7927 49.6042C75.5015 50.0453 76.1157 50.6389 76.5658 51.3663C77.018 52.0853 77.2746 52.9821 77.2641 53.8453C77.2578 54.7107 77.0222 55.5509 76.6016 56.2972C76.3912 56.6713 76.1304 57.0204 75.8255 57.3339C75.674 57.4907 75.5036 57.6391 75.3249 57.7791L75.0514 57.9714L74.7717 58.1407C74.0124 58.5609 73.2047 58.7908 72.3782 58.8807C71.9638 58.9225 71.5452 58.9288 71.1204 58.8911C70.9079 58.8744 70.6934 58.841 70.4789 58.7971C70.258 58.7511 70.0561 58.6967 69.8584 58.634C69.5871 58.5546 69.0697 58.3477 68.8215 58.2243C67.8918 57.6161 67.0211 56.9598 66.308 56.0212C66.491 56.0631 66.5015 55.7892 66.6362 55.7412C66.7014 55.714 66.7939 55.7412 66.9432 55.8728C67.101 55.9983 67.3113 56.2345 67.6878 56.571C67.7172 56.5354 67.7782 56.4623 67.8077 56.4268C67.4649 56.0714 67.2524 55.7077 67.1578 55.4109C67.061 55.1141 67.0757 54.8925 67.1367 54.7776C67.1662 54.7128 67.2083 54.6751 67.2629 54.6689C67.3176 54.6647 67.3849 54.6835 67.4564 54.7149C67.5953 54.788 67.7846 54.9427 68.0727 55.1914C68.3987 55.4715 68.7962 55.7621 69.2569 56.0192C69.7112 56.2804 70.2307 56.5062 70.7523 56.6525C71.2255 56.78 71.7871 56.8134 72.334 56.7382C72.8766 56.6609 73.413 56.4832 73.8084 56.2094C74.3616 55.8582 74.7759 55.229 74.961 54.5644C75.0472 54.2299 75.0935 53.8871 75.0662 53.559C75.043 53.2308 74.9673 52.9193 74.8201 52.6016C74.6266 52.1669 74.2858 51.753 73.8568 51.4353C73.4319 51.1176 72.9019 50.8897 72.3361 50.756C71.7724 50.6243 71.1561 50.5804 70.5798 50.6243C69.9993 50.6682 69.4504 50.8019 68.9792 51.0319C68.811 51.1197 68.6217 51.2534 68.4744 51.4123C68.3146 51.5774 68.1589 51.7906 68.0327 51.9996C67.9065 52.2108 67.8077 52.4198 67.7341 52.5891C67.6584 52.7605 67.6142 52.8922 67.5616 52.9695C67.4564 53.1932 67.3702 53.2036 67.2545 53.1597C67.3029 52.5452 67.6647 51.8638 68.119 51.3517C68.5565 50.8542 69.1959 50.5239 69.8752 50.3609C71.5579 50.0014 73.535 50.4445 74.574 51.6673C73.5897 50.4382 71.5831 49.9617 69.8752 50.3609C69.1959 50.5135 68.5523 50.827 68.0979 51.3141C67.631 51.8136 67.2524 52.4762 67.1662 53.1137C67.0757 53.0615 66.9811 52.9946 66.878 53.0761C66.878 53.0761 66.8738 53.1054 66.8738 53.1514C66.8738 53.1973 66.8675 53.2621 66.8738 53.3311C66.8801 53.4753 66.9138 53.63 66.9474 53.7492C66.9474 53.8056 66.9474 53.8599 66.9495 53.9143C66.9517 53.9603 66.9495 53.9895 66.9811 54.0167C67.0505 54.0669 67.1262 54.0961 67.1767 54.1338C67.2798 54.2048 67.3155 54.2801 67.3113 54.3491C67.305 54.4201 67.2608 54.487 67.1872 54.5518C67.1494 54.5832 67.1073 54.6166 67.04 54.6438C67.0232 54.6501 66.9958 54.6563 66.9727 54.6626C66.9495 54.6689 66.9033 54.6689 66.8675 54.671C66.8402 54.671 66.8086 54.6647 66.7771 54.6584C66.7602 54.6542 66.7476 54.6542 66.7287 54.648C66.7077 54.6417 66.6845 54.6333 66.6635 54.625C66.5836 54.5978 66.4763 54.5267 66.4069 54.4578C66.2555 54.2926 66.2344 54.2174 66.1924 54.1526C66.1608 54.0982 66.1356 54.0585 66.1124 54.0251C66.0893 53.9937 66.0683 53.9624 66.0451 53.9352C66.0346 53.9247 66.022 53.8976 66.0094 53.8704L65.9715 53.7889L65.9631 53.7972Z" fill="white"></path>
<path d="M49.8711 50.4009C50.1656 50.0769 50.4176 50.0142 50.7478 49.7488C50.9392 49.5941 51.2148 49.5105 51.4314 49.3704C51.5387 49.2993 51.6522 49.2325 51.7763 49.1656C51.8373 49.1321 51.9046 49.0987 51.9762 49.0673L52.0897 49.0193L52.1844 48.9858C52.6871 48.8019 53.2171 48.7099 53.7408 48.7015C54.7883 48.6848 55.8168 48.9754 56.7002 49.5251C57.1418 49.7989 57.5436 50.148 57.878 50.5577C58.2145 50.9673 58.4816 51.4377 58.6583 51.9309C59.0138 52.9217 59.0495 54.0024 58.774 55.0119C58.5048 56.0173 57.9074 56.9788 57.0262 57.6289C56.1533 58.2769 55.0806 58.6071 54.0016 58.6113C52.9268 58.6176 51.8079 58.279 50.9287 57.5746C50.4954 57.2276 50.1232 56.8095 49.8266 56.3476L49.7719 56.2598L49.7067 56.1448C49.6688 56.0696 49.6331 55.9964 49.6036 55.9275C49.5447 55.7874 49.5006 55.6557 49.4627 55.5324C49.3849 55.2858 49.3239 55.0621 49.2524 54.8907C49.2419 54.8635 49.2314 54.8447 49.2293 54.8364C49.225 54.8238 49.2166 54.8071 49.2082 54.7925C49.1935 54.7632 49.1746 54.736 49.1535 54.7089C49.0988 54.6545 49.0357 54.6002 48.9579 54.5772C48.8948 54.55 48.7476 54.5166 48.6151 54.4977C48.3375 54.4601 48.0156 54.4622 47.6875 54.4789C47.3594 54.4957 47.0208 54.5291 46.6674 54.5646C46.4908 54.5814 46.3099 54.6002 46.1143 54.6106C45.9039 54.6232 45.7336 54.6211 45.5401 54.619C44.7892 54.6064 44.0089 54.5186 43.2454 54.2406C42.8647 54.1006 42.4903 53.9125 42.1538 53.6617C41.8172 53.4066 41.5207 53.1161 41.2767 52.767C41.0327 52.4221 40.8518 52.0334 40.734 51.6425C40.6142 51.2516 40.5511 50.8607 40.5153 50.4824C40.4459 49.7216 40.4585 49.0088 40.4543 48.3086C40.4543 46.9019 40.4501 45.5181 40.448 44.1825C40.4396 45.5662 40.4312 46.9562 40.4228 48.3525C40.4228 49.0464 40.4059 49.7508 40.4711 50.5054C40.5069 50.8796 40.5658 51.2683 40.6836 51.655C40.7992 52.0417 40.9738 52.4284 41.2136 52.7754C41.4534 53.1245 41.7457 53.4213 42.0759 53.6784C42.4083 53.9355 42.7784 54.132 43.157 54.2762C43.9163 54.5646 44.6988 54.665 45.4538 54.6838C45.6452 54.6859 45.8261 54.688 46.0238 54.6817C46.2342 54.6733 46.4108 54.6545 46.5938 54.6378C46.9514 54.6023 47.2942 54.5646 47.6286 54.5437C47.961 54.5228 48.2891 54.5166 48.5751 54.5479C48.7076 54.5646 48.8612 54.596 48.9264 54.6211C49.0021 54.642 49.061 54.6921 49.1157 54.7423C49.1472 54.7799 49.1767 54.8322 49.1914 54.8677C49.2229 54.9367 49.2587 55.0287 49.2923 55.1311C49.3618 55.3338 49.4228 55.5679 49.5237 55.8355C49.5763 55.9693 49.6352 56.1114 49.7298 56.2661C49.8056 56.3873 49.8792 56.496 49.9591 56.6068C50.1189 56.8263 50.2977 57.0353 50.4912 57.2276C50.8761 57.6143 51.3431 57.9445 51.85 58.1786C52.3569 58.4127 52.8974 58.5549 53.4422 58.6113C54.5338 58.7221 55.6527 58.5005 56.6139 57.9424C57.0935 57.6644 57.531 57.2966 57.8843 56.8618C58.2377 56.4291 58.509 55.94 58.6962 55.4279C59.0706 54.4016 59.1253 53.2729 58.8245 52.211C58.6751 51.6822 58.4333 51.168 58.1031 50.7144C57.7749 50.2609 57.369 49.8721 56.9189 49.5585C56.0166 48.9336 54.9397 48.5866 53.8376 48.5782C53.2865 48.5761 52.727 48.6597 52.1949 48.8416C52.1234 48.8667 52.0708 48.8792 51.9846 48.9147C51.8983 48.9503 51.8268 48.9837 51.7574 49.0193C51.6228 49.0882 51.4987 49.1593 51.3851 49.2325C51.1559 49.3767 50.9476 49.5272 50.7478 49.686C51.0107 49.4352 51.2863 49.1886 51.6838 48.9398C51.7385 48.9085 51.7911 48.8771 51.8521 48.8458C51.9152 48.8144 51.9909 48.7768 52.0372 48.7601C52.1423 48.7183 52.2496 48.6744 52.3569 48.6326C52.4641 48.5887 52.5777 48.5636 52.6913 48.5281C52.8049 48.4925 52.9205 48.4633 53.0404 48.4444C53.9869 48.248 55.0512 48.3358 56.0776 48.7475C56.6896 49.0067 57.2617 49.3704 57.7518 49.8344C58.2419 50.2964 58.6499 50.8691 58.917 51.4878C59.4555 52.7294 59.4828 54.0964 59.0958 55.3338C58.9002 55.9525 58.5952 56.5462 58.1788 57.0666C57.7623 57.5892 57.2323 58.0261 56.656 58.3375C55.4971 58.9646 54.1657 59.1443 52.8995 58.9019C52.9079 58.8559 52.9268 58.7639 52.9353 58.7179C52.4094 58.6239 51.892 58.4462 51.4125 58.187C50.9287 57.9236 50.5102 57.5829 50.1505 57.1941C49.9717 56.9997 49.8056 56.7949 49.6583 56.5796L49.549 56.4166C49.5069 56.3476 49.4543 56.2598 49.4228 56.1908C49.3491 56.0424 49.2987 55.9128 49.2545 55.7895C49.1683 55.5449 49.1073 55.3359 49.0463 55.1645L49.0021 55.0475C48.9916 55.0203 48.9663 54.9639 48.9684 54.9722C48.96 54.9555 48.9474 54.9325 48.9327 54.9158C48.918 54.9074 48.9074 54.8949 48.8948 54.8844C48.8801 54.8761 48.8675 54.8656 48.8507 54.8614C48.8338 54.8552 48.8275 54.851 48.7834 54.8426C48.7413 54.8322 48.6992 54.8196 48.6424 54.8155C48.4342 54.7841 48.1713 54.7778 47.8979 54.7883C47.6223 54.7987 47.3363 54.8238 47.0376 54.8552C46.7368 54.8844 46.4403 54.9221 46.0743 54.943C45.9776 54.9492 45.8955 54.9492 45.8135 54.9492C45.7315 54.9492 45.6473 54.9492 45.5632 54.9492C45.397 54.9492 45.2288 54.9409 45.0584 54.9304C44.7198 54.9095 44.3769 54.8677 44.032 54.7987C43.3463 54.6629 42.6333 54.4079 42.0107 53.9543C41.6973 53.7244 41.4323 53.4652 41.1862 53.1663C40.9423 52.8695 40.7509 52.5267 40.6057 52.1797C40.3134 51.4774 40.2335 50.773 40.1998 50.1292C40.1704 49.4791 40.183 48.8792 40.1872 48.2772L40.2019 46.4671C40.2082 45.2589 40.2145 44.0508 40.2208 42.8405C40.2208 42.2344 40.2229 41.6282 40.225 41.02V40.0919C40.2314 39.7784 40.2419 39.4648 40.2566 39.1492C40.3239 37.8909 40.4564 36.6221 40.7992 35.3387C40.8834 35.0189 40.9885 34.697 41.1126 34.3751C41.2409 34.0511 41.3861 33.7355 41.5501 33.4387C41.8761 32.8388 42.2547 32.287 42.6607 31.7623C42.3641 32.0926 42.4966 31.8648 42.5303 31.7728C42.5492 31.7477 42.5681 31.7247 42.5849 31.7038C42.5681 31.7268 42.5492 31.7498 42.5303 31.7728C42.118 32.2933 41.7331 32.8472 41.4029 33.4533C41.3188 33.6038 41.2451 33.7627 41.1673 33.9174C41.0958 34.0762 41.0264 34.2413 40.9591 34.4023C40.8392 34.7263 40.7298 35.0503 40.6457 35.3722C40.3008 36.6639 40.1619 37.9348 40.0988 39.1952C40.0841 39.5108 40.0757 39.8264 40.0715 40.14V41.0659C40.0715 41.6721 40.0715 42.2762 40.0694 42.8803C40.0694 44.0884 40.0652 45.2924 40.0631 46.4964L40.0589 48.3002C40.0589 48.9001 40.0484 49.5 40.082 50.1563C40.122 50.8064 40.2061 51.5233 40.5111 52.2403C40.6625 52.5935 40.8623 52.9426 41.1126 53.2457C41.365 53.5488 41.6385 53.8121 41.9603 54.0463C42.5997 54.5061 43.3253 54.7632 44.0215 54.8991C44.3706 54.968 44.7177 55.0078 45.0584 55.0308C45.2288 55.0412 45.3991 55.0475 45.5674 55.0496C45.6515 55.0496 45.7357 55.0496 45.8198 55.0496C45.9018 55.0496 45.986 55.0496 46.0848 55.0433C46.455 55.0224 46.7495 54.9848 47.0502 54.9576C47.3468 54.9283 47.6307 54.9053 47.9021 54.8949C48.1692 54.8865 48.4279 54.8949 48.6235 54.9262C48.6782 54.9325 48.7139 54.943 48.7518 54.9534C48.7939 54.9618 48.7897 54.9639 48.8002 54.968C48.8086 54.9701 48.8149 54.9764 48.8233 54.9806C48.8275 54.9889 48.8338 54.9952 48.8422 54.9994C48.8612 55.0308 48.8465 54.991 48.9117 55.1624C48.9621 55.3004 49.0147 55.4843 49.082 55.6975C49.1535 55.9086 49.2314 56.1574 49.4143 56.4667C49.549 56.682 49.6857 56.8764 49.8413 57.0687C50.1526 57.4512 50.5186 57.7982 50.9371 58.0908C51.3641 58.3814 51.8331 58.6071 52.319 58.7618C51.8373 58.6092 51.3725 58.3897 50.9455 58.1013C50.5291 57.8128 50.1589 57.468 49.8476 57.0875C49.6899 56.8973 49.549 56.6967 49.4185 56.4918C49.2314 56.1846 49.1472 55.9275 49.0757 55.7163C49.0063 55.5031 48.9516 55.315 48.9011 55.175C48.8338 55.0015 48.8486 55.0412 48.8317 55.014C48.8191 55.0098 48.8149 54.9931 48.8002 54.991C48.7876 54.9848 48.7918 54.9869 48.7118 54.968C48.573 54.9388 48.3816 54.9179 48.1692 54.92C47.7422 54.9179 47.269 54.966 46.76 55.0182C46.5055 55.0433 46.2363 55.0767 45.9124 55.083C45.6347 55.0893 45.3508 55.083 45.0668 55.0684C44.4968 55.0349 43.9079 54.9492 43.3169 54.7632C42.728 54.5814 42.1327 54.2804 41.6258 53.8435C41.1379 53.4234 40.7109 52.8653 40.4627 52.2591C40.2019 51.655 40.1031 51.0468 40.0484 50.4845C40 49.9222 39.9979 49.3934 39.9958 48.8897C39.9958 46.8747 39.9958 44.8618 39.9937 42.8489V41.3377L39.9916 40.581C39.9916 40.3197 39.9916 40.0564 39.9979 39.7951C40.0252 38.7458 40.1073 37.6944 40.2902 36.6326C40.3828 36.1016 40.5006 35.5686 40.6646 35.0335C40.8245 34.5026 41.0516 33.9445 41.3251 33.445C41.8719 32.4417 42.5597 31.5888 43.2748 30.7946C43.9963 30.0065 44.7576 29.2812 45.5148 28.5831C46.2615 27.8933 47.0061 27.1889 47.7843 26.4908C48.5709 25.7947 49.3533 25.0966 50.3209 24.4591C50.5648 24.3002 50.8235 24.1455 51.1369 24.0097C51.2127 23.9762 51.2884 23.9386 51.3641 23.9093L51.5807 23.8341C51.7259 23.7839 51.8731 23.7296 52.0119 23.6961C52.5819 23.5268 53.1246 23.439 53.6735 23.3492C55.8504 23.0273 57.9769 22.998 60.1012 23.0001C60.892 23.0001 62.4758 23.0168 63.2666 23.0273C66.4279 23.2133 69.5786 23.3492 72.721 23.3826C72.3276 23.4955 72.9145 23.6794 72.8156 23.8132C72.7168 23.9449 71.9259 24.0389 68.7752 23.9302C68.7752 23.9762 68.7731 24.0703 68.771 24.1184C71.9217 24.3023 74.0902 24.5343 74.6812 24.7538C75.2723 24.9691 74.2837 25.1927 71.1182 25.2429C67.5595 25.2847 63.4223 25.153 59.1189 25.153C58.0505 25.1572 56.9736 25.1802 55.9072 25.2513C55.3751 25.2868 54.8429 25.3328 54.3234 25.4018C53.8018 25.4645 53.2928 25.5564 52.8175 25.6735C52.7018 25.7049 52.5819 25.7341 52.4704 25.7676L52.1528 25.8763L51.8836 25.9975C51.7869 26.0518 51.6922 26.102 51.5913 26.1668C51.1916 26.4176 50.7773 26.7332 50.3755 27.0656C49.5658 27.7345 48.777 28.4723 47.9946 29.2123C46.8399 30.3054 45.6894 31.3317 44.7177 32.4458C44.2276 32.9997 43.7943 33.5767 43.4347 34.1661C43.2664 34.4629 43.1024 34.7597 42.9867 35.0586C42.8626 35.3617 42.7595 35.692 42.6712 36.0306C42.3241 37.4018 42.2021 38.913 42.1874 40.4033C42.179 41.9543 42.1643 43.5324 42.1411 45.0959C42.1243 46.3793 42.1075 47.6773 42.0886 48.9879C42.0844 49.6359 42.0886 50.2504 42.179 50.7792C42.2694 51.3101 42.4461 51.7219 42.7532 52.0647C42.8247 52.1525 42.9194 52.234 43.0056 52.3135C43.0939 52.3866 43.1865 52.4556 43.2895 52.5183C43.4936 52.6437 43.7249 52.7461 43.9773 52.8256C44.4842 52.9844 45.071 53.0492 45.6768 53.0534C46.2131 53.0659 46.903 52.9426 47.6371 52.9092C48.0072 52.8924 48.39 52.8841 48.8254 52.9363C48.939 52.9552 49.0421 52.9635 49.164 52.997L49.3491 53.0429C49.4143 53.0597 49.4922 53.091 49.5616 53.1182C49.8518 53.2248 50.1042 53.4066 50.3209 53.6199C50.4576 53.7787 50.569 53.948 50.6637 54.1466C50.7457 54.3222 50.7878 54.4434 50.832 54.573C50.9161 54.8259 50.975 55.0391 51.0339 55.2042C51.0991 55.3819 51.1075 55.3986 51.2358 55.5868C51.3389 55.7373 51.4524 55.8773 51.5744 56.009C51.8184 56.2744 52.1024 56.4856 52.4052 56.6465C52.7102 56.8095 53.0509 56.9245 53.4043 56.9851C54.1131 57.1043 54.8724 57.0081 55.5202 56.7197C55.8441 56.5754 56.1407 56.3852 56.3952 56.1532C56.6455 55.9191 56.8579 55.639 57.0262 55.3297C57.3269 54.7757 57.5141 53.9856 57.3985 53.1893C57.3459 52.7921 57.2197 52.4012 57.0283 52.0543C56.839 51.7073 56.5782 51.4021 56.2753 51.1513C55.6674 50.6434 54.9039 50.3821 54.2687 50.3173C53.6272 50.2379 53.1182 50.3507 52.8133 50.4176C52.7607 50.4302 52.7102 50.4448 52.6639 50.4552C52.6345 50.4636 52.5987 50.4761 52.5609 50.4887C52.4873 50.5159 52.4178 50.5472 52.3547 50.5744C52.2307 50.6308 52.1402 50.6684 52.0792 50.6831C51.9572 50.7144 51.9467 50.6559 51.9762 50.5639C52.096 50.4761 52.218 50.3946 52.3379 50.3236C52.3968 50.288 52.4557 50.2567 52.5104 50.2316C52.5567 50.2086 52.624 50.1877 52.6913 50.1647C52.9542 50.0623 53.236 50.0163 53.5179 49.9787C54.0858 49.9327 54.6726 49.9912 55.2131 50.1877C56.311 50.5535 57.2071 51.4063 57.5415 52.4765C57.8822 53.5467 57.7329 54.7925 57.1334 55.7352C56.5571 56.6946 55.476 57.2715 54.3529 57.376C53.3791 57.4659 52.3884 57.1879 51.6586 56.5942C51.4756 56.4437 51.3052 56.2744 51.1496 56.0905C51.0717 55.9985 51.0002 55.9024 50.9308 55.8041C50.8972 55.754 50.8635 55.7038 50.832 55.6536C50.7941 55.593 50.7857 55.5784 50.7626 55.5303C50.6805 55.361 50.609 55.1081 50.5228 54.8343C50.4786 54.6963 50.4323 54.5521 50.365 54.3932C50.2893 54.2114 50.1799 54.0254 50.0453 53.8686C49.978 53.8017 49.9044 53.739 49.8329 53.6784C49.7551 53.624 49.6688 53.578 49.5889 53.5279C49.4185 53.4443 49.2229 53.3795 49.0736 53.3481C48.7602 53.2812 48.4679 53.2582 48.1902 53.2561C47.6328 53.2499 47.1049 53.3042 46.6001 53.3523C46.3498 53.3753 46.1017 53.4004 45.8934 53.4025C45.6536 53.4066 45.4181 53.3983 45.1846 53.3837C44.7177 53.3502 44.2634 53.2791 43.849 53.1412C43.4326 53.0074 43.0624 52.8068 42.7616 52.5455C42.4545 52.2675 42.2148 51.9539 42.0675 51.5777C41.7562 50.8315 41.7647 49.87 41.7752 48.8688C41.7604 49.8553 41.7436 50.8064 42.0423 51.5589C42.1874 51.9351 42.4167 52.257 42.7238 52.5371C43.0203 52.8088 43.3884 53.0116 43.8049 53.1516C44.2192 53.2917 44.6756 53.3711 45.1447 53.4046C45.3802 53.4213 45.6179 53.4296 45.8598 53.4275C46.0806 53.4275 46.3162 53.4025 46.5728 53.3795C47.0797 53.3314 47.6118 53.275 48.1713 53.2791C48.4531 53.2812 48.7455 53.3021 49.0589 53.3669C49.1388 53.3878 49.2166 53.4004 49.3092 53.4338C49.3996 53.4673 49.4901 53.5007 49.5763 53.5425C49.6583 53.5927 49.7425 53.6387 49.8224 53.6909C49.896 53.7536 49.9675 53.8163 50.0369 53.8811C50.1673 54.0337 50.2767 54.2156 50.3503 54.3953C50.4176 54.55 50.4639 54.6942 50.5081 54.8322C50.5943 55.1039 50.6658 55.3547 50.7499 55.5282C50.7752 55.5805 50.7815 55.593 50.8193 55.6516C50.8509 55.7017 50.8845 55.7519 50.9203 55.802C50.9897 55.9003 51.0633 55.9964 51.139 56.0884C51.2947 56.2724 51.4651 56.4417 51.6501 56.5942C52.3821 57.192 53.3812 57.468 54.3592 57.3739C55.4823 57.2757 56.5613 56.7071 57.1482 55.7561C57.7581 54.8217 57.9201 53.5843 57.6046 52.5058C57.4363 51.9686 57.1587 51.4753 56.759 51.0739C56.3615 50.6747 55.8715 50.3528 55.3309 50.1543C55.0638 50.0456 54.7798 49.9849 54.4959 49.9306C54.2099 49.8951 53.9217 49.8658 53.6357 49.8909C53.4905 49.8909 53.3517 49.9222 53.2087 49.939C53.0699 49.9682 52.9289 49.9954 52.7943 50.0393L52.5924 50.1062C52.5209 50.1292 52.4788 50.1501 52.4157 50.1814C52.298 50.242 52.1718 50.3194 52.0519 50.4009C52.136 50.2274 52.2349 50.0476 51.9299 50.1333C51.9299 50.1333 51.3597 50.2399 51 50.5639C50.6361 50.8837 50.2145 51.1823 50 51.5C49.7581 51.7989 49.8457 51.8477 49.8457 51.8477C49.8457 51.8477 49.7425 52.0444 49.7614 52.2305C49.7782 52.4186 49.7319 52.5739 49.7614 52.6679C49.7929 52.7599 49.6142 52.6859 49.5889 52.7109C49.5468 52.7548 49.5174 52.8226 49.305 52.5028C49.2061 52.3439 49.183 52.0922 49.164 51.8477C49.1409 51.6031 49.305 51.2066 49.305 51.2066C49.305 51.2066 49.3801 50.8871 49.7719 50.5744C50.1637 50.2616 49.8711 50.4009 49.8711 50.4009Z" fill="white"></path>
<path d="M66.9348 54.8469C66.8949 54.8364 66.8549 54.8281 66.8149 54.8197C66.0851 54.688 65.3552 54.7424 64.5455 54.6588C63.9776 54.571 63.3298 54.6274 62.764 54.6337C64.108 54.7047 65.5214 54.6546 66.8149 54.9639C66.6866 55.0768 66.531 55.1667 66.3501 55.1688C65.9126 55.1311 65.4814 55.104 65.0524 55.0893C65.0524 55.0413 65.0524 54.9493 65.0503 54.9033C63.8367 55.0601 62.6988 54.6964 61.4852 54.9472C61.5294 54.9723 61.5041 55.0099 61.4957 55.0413C61.4873 55.0684 61.4936 55.0893 61.5693 55.0873C61.4936 55.0873 61.4894 55.0684 61.4957 55.0413C62.6904 54.9807 63.8093 55.012 65.004 55.0893C63.1489 55.0245 61.3632 55.1374 59.4639 55.1604C59.384 55.1604 59.2199 55.1625 59.14 55.1646C58.814 55.0266 58.4901 54.9848 58.1662 54.989C58.244 54.7528 57.9138 54.2867 58.5637 54.3724C58.5637 54.3264 58.5637 54.2324 58.5616 54.1843C57.9096 53.9564 57.6593 53.3022 58.305 53.1057C59.0306 52.9092 60.0066 53.0848 60.8963 52.9803C61.5441 52.926 62.1919 52.8716 62.8397 52.9573C63.7315 53.0869 64.7032 53.0284 65.5971 53.206C65.921 53.2499 66.4868 53.1015 66.6509 53.2395C66.7687 53.3064 66.7729 53.4067 66.7581 53.5175C66.226 53.507 65.6939 53.5091 65.1702 53.4945C64.5244 53.4506 63.8808 53.3984 63.2351 53.3127C63.8661 53.4339 64.5139 53.4757 65.1702 53.4945C65.6939 53.53 66.2197 53.5635 66.7434 53.6074C66.7245 53.7035 66.7077 53.8039 66.7413 53.8958C66.7413 53.8958 66.9033 53.8958 66.9853 53.8937C67.3113 54.1258 67.2356 54.456 67.0757 54.6922C67.0358 54.7403 66.9895 54.7946 66.939 54.849L66.9348 54.8469Z" fill="white"></path>
<path d="M69.6859 25.4102C69.6733 25.5419 69.6628 25.6735 69.6501 25.8031C69.4692 28.2111 69.4777 30.6232 69.3409 33.3008C69.2778 34.2372 69.2505 35.2426 69.2358 36.2459C69.2295 36.7476 69.2232 37.2513 69.2169 37.7446C69.2126 38.2463 69.1937 38.7166 69.2547 39.0928C69.2253 38.8671 69.2211 38.6162 69.2295 38.3529C69.2379 38.0749 69.2463 37.7969 69.2547 37.5189C69.2715 36.9566 69.2884 36.3943 69.3031 35.83C69.3388 34.7012 69.3725 33.5683 69.4083 32.4396C69.4882 30.1843 69.5976 27.9498 69.7953 25.8178C69.9004 26.2504 69.9803 26.7688 69.9719 27.3687C69.9046 28.8131 69.852 30.2386 69.8079 31.6516C69.7595 31.6516 69.667 31.6495 69.6207 31.6495C69.6606 33.6603 69.5702 35.6 69.4903 37.5419L69.4629 38.2672C69.4545 38.4992 69.4524 38.7124 69.4671 38.9068C69.4819 39.1012 69.5155 39.2705 69.5639 39.398C69.6144 39.5276 69.6733 39.607 69.7511 39.6739C69.8983 39.8056 70.2412 39.8892 70.6786 39.8913C70.8911 39.8955 71.1393 39.8829 71.3917 39.8725C71.6398 39.8599 71.8922 39.8474 72.1467 39.8348C72.0037 39.8098 72.0879 39.7721 72.1173 39.7408C72.1278 39.7408 72.1362 39.7408 72.1467 39.7408C72.1383 39.7408 72.1278 39.7408 72.1173 39.7408C72.1446 39.7136 72.1278 39.6927 71.8754 39.6948C72.1278 39.6948 72.1425 39.7157 72.1173 39.7408C71.8691 39.7429 71.6209 39.747 71.3748 39.7491C71.1245 39.7491 70.8827 39.7575 70.6807 39.7491C70.4725 39.7429 70.2916 39.722 70.1486 39.6864C70.0056 39.6509 69.913 39.6049 69.8563 39.5589C69.7995 39.5088 69.7553 39.4607 69.7111 39.3562C69.667 39.2558 69.6333 39.1033 69.6144 38.9277C69.5976 38.7479 69.5933 38.5452 69.5975 38.3215L69.6144 37.6108C69.6628 35.7004 69.7259 33.7899 69.8037 31.8167C69.7574 33.3489 69.7216 34.8664 69.6943 36.3818L69.6754 37.5168C69.6712 37.8867 69.6585 38.2964 69.6649 38.6079C69.6712 38.9256 69.7174 39.1931 69.7826 39.3353C69.8542 39.4774 69.8815 39.5004 70.0287 39.5694C70.176 39.6321 70.4536 39.6718 70.7817 39.676C70.9437 39.6802 71.1309 39.676 71.3244 39.676L71.8986 39.6718C72.6642 39.6676 73.4319 39.6614 74.2038 39.6572C75.7476 39.6509 77.304 39.6425 78.8857 39.6363C79.1549 39.6363 79.6934 39.6363 79.9647 39.6363C81.0437 39.7763 82.1227 39.8202 83.1996 39.8181C82.9303 40.0543 84.0093 40.5225 81.8535 40.4326C81.8535 40.4786 81.8535 40.5727 81.8535 40.6208C84.0114 40.8528 84.8212 41.5091 82.6632 41.7014C80.2381 41.8937 77.0011 41.7098 74.0376 41.8101C73.4992 41.8226 72.9586 41.8331 72.4202 41.8456L71.6104 41.8603C71.337 41.8624 71.0867 41.8686 70.7754 41.8665C70.4683 41.8603 70.1297 41.8435 69.749 41.7599C69.3746 41.6805 68.935 41.5175 68.5459 41.2081C68.3545 41.0534 68.1841 40.8674 68.0453 40.6688C67.9107 40.4682 67.8097 40.2612 67.7361 40.0585C67.5931 39.653 67.5531 39.283 67.5405 38.9507C67.5342 38.7228 67.5405 38.5096 67.5489 38.309C67.5595 38.1209 67.5679 37.9306 67.5784 37.7425C67.5952 37.3663 67.612 36.9879 67.6289 36.6075C67.6562 35.8446 67.6835 35.0754 67.713 34.3062C67.7677 32.7657 67.8266 31.2273 67.9444 29.7558C68.0096 28.6856 67.896 26.8064 68.0474 26.2734C68.121 25.8888 68.222 25.8763 68.3335 25.9369C68.2914 27.699 68.2493 29.4527 68.2073 31.1897C68.121 33.3196 68.0264 35.4475 67.9002 37.5753C68.0642 35.4955 68.1484 33.3593 68.2073 31.1897C68.2788 29.4589 68.3503 27.7282 68.4239 25.9933C68.5186 26.0581 68.6195 26.1209 68.7142 26.0163C68.7142 26.0163 68.7226 25.4812 68.7268 25.2137C68.9813 24.1456 69.3073 24.4194 69.5345 24.9587C69.5807 25.0966 69.6312 25.2492 69.6838 25.4227L69.6859 25.4102Z" fill="white"></path>
<path d="M48.613 42.7048C48.6235 42.6734 48.6319 42.64 48.6403 42.6086C48.775 42.0213 48.7203 41.436 48.8065 40.7839C48.8948 40.3282 48.8402 39.8077 48.836 39.3521C48.7623 40.4327 48.8107 41.5656 48.4973 42.6065C48.3837 42.5041 48.2933 42.3787 48.2912 42.2324C48.3312 41.8812 48.3564 41.5343 48.3732 41.1915C48.4216 41.1915 48.5141 41.1915 48.5604 41.1894C48.4048 40.2153 48.7729 39.2998 48.5226 38.3278C48.4973 38.3634 48.4595 38.3425 48.4279 38.3362C48.4006 38.3299 48.3795 38.3362 48.3816 38.3947C48.3816 38.3341 48.4006 38.3299 48.4279 38.3362C48.4868 39.2956 48.4532 40.1944 48.3732 41.1538C48.4426 39.6635 48.3312 38.2296 48.3101 36.7037C48.3101 36.6389 48.308 36.5094 48.3059 36.4446C48.4447 36.1833 48.4889 35.922 48.4847 35.6607C48.7224 35.7234 49.1914 35.4559 49.1052 35.9784C49.1514 35.9784 49.2482 35.9784 49.2945 35.9763C49.5237 35.4517 50.1842 35.2489 50.3798 35.7673C50.5775 36.3505 50.3987 37.1343 50.5018 37.8471C50.5564 38.3676 50.6111 38.8859 50.5228 39.4085C50.3903 40.1254 50.4471 40.9051 50.2683 41.6241C50.2241 41.8854 50.3714 42.339 50.2325 42.4707C50.1652 42.5647 50.0643 42.571 49.9528 42.5564C49.9633 42.1279 49.9633 41.7015 49.978 41.2793C50.0243 40.7609 50.0769 40.2425 50.1631 39.7241C50.039 40.232 49.997 40.7504 49.978 41.2793C49.9402 41.7015 49.9065 42.1216 49.8624 42.5438C49.7656 42.5292 49.6647 42.5167 49.5721 42.5438C49.5721 42.5438 49.5721 42.6734 49.5742 42.7382C49.3407 43.0016 49.0084 42.941 48.7708 42.8135C48.7224 42.78 48.6677 42.7445 48.613 42.7027V42.7048Z" fill="white"></path>
<path d="M57.308 42.736C57.3144 42.6858 57.3228 42.6356 57.3291 42.5876C57.4216 41.6783 57.3249 40.7774 57.3669 39.7699C57.4237 39.0634 57.3333 38.265 57.2954 37.5627C57.2975 39.2307 57.4258 40.976 57.1861 42.5917C57.0662 42.4371 56.9673 42.2489 56.9547 42.0232C56.9694 41.4797 56.9715 40.9446 56.9631 40.4137C57.0115 40.4116 57.104 40.4054 57.1503 40.4033C56.9273 38.9067 57.2281 37.4832 56.9105 35.9929C56.8874 36.0472 56.8474 36.018 56.8159 36.0096C56.7885 36.0013 56.7675 36.0096 56.7738 36.1016C56.7696 36.0075 56.7885 36.0013 56.8159 36.0096C56.9421 37.4853 56.9715 38.8711 56.9589 40.3531C56.9231 38.0559 56.7107 35.8487 56.5845 33.4972C56.5782 33.3968 56.5677 33.1962 56.5635 33.0958C56.6834 32.6882 56.7086 32.2827 56.6876 31.8835C56.9294 31.9713 57.3796 31.5449 57.3291 32.3517C57.3753 32.3496 57.47 32.3434 57.5184 32.3413C57.7119 31.5261 58.3555 31.1895 58.5889 31.9817C58.8266 32.8743 58.7025 34.0866 58.8582 35.184C58.9486 35.9824 59.0391 36.783 58.9886 37.5898C58.9065 38.6997 59.018 39.8995 58.8897 41.0136C58.8645 41.417 59.0433 42.111 58.9129 42.32C58.8519 42.4684 58.753 42.4789 58.6394 42.4621C58.6205 41.8016 58.5889 41.1453 58.5763 40.4952C58.5868 39.6947 58.6016 38.8962 58.652 38.0936C58.5637 38.8795 58.5574 39.6821 58.5763 40.4952C58.5679 41.1453 58.5637 41.7954 58.549 42.4475C58.4522 42.4287 58.3492 42.412 58.2587 42.4559C58.2587 42.4559 58.2692 42.6565 58.2756 42.7569C58.061 43.1707 57.7245 43.0871 57.4784 42.9011C57.4279 42.853 57.3711 42.7987 57.3122 42.736H57.308Z" fill="white"></path>
</g>
<defs>
<clipPath id="clip0_5454_3451">
<rect width="45" height="36" fill="white" transform="translate(40 23)"></rect>
</clipPath>
</defs>
</svg>