<svg width="125" height="125" viewBox="0 0 125 125" fill="none" xmlns="http://www.w3.org/2000/svg">
<rect width="125" height="125" rx="20" fill="#0E644C"></rect>
<path d="M26.4844 86.9609V97H24.9219V86.9609H21.2812V85.5547H30.2891V86.9609H26.4844ZM37.0078 97.1562H36.6172L34.1641 91.4609L31.7188 97.1562H31.3281L28.3359 88.6094H29.9219L31.7109 94.1016L33.9375 88.6094H34.3281L36.625 94.1016L38.5469 88.6094H40.0078L37.0078 97.1562ZM40.6328 92.7969C40.6328 91.5052 40.9792 90.4635 41.6719 89.6719C42.3698 88.875 43.2865 88.4766 44.4219 88.4766C45.6198 88.4766 46.5495 88.8594 47.2109 89.625C47.8724 90.3854 48.2031 91.4427 48.2031 92.7969C48.2031 94.1458 47.8646 95.2109 47.1875 95.9922C46.5104 96.7682 45.5885 97.1562 44.4219 97.1562C43.2292 97.1562 42.2995 96.763 41.6328 95.9766C40.9661 95.1901 40.6328 94.1302 40.6328 92.7969ZM42.1953 92.7969C42.1953 94.8958 42.9375 95.9453 44.4219 95.9453C45.1146 95.9453 45.6562 95.6641 46.0469 95.1016C46.4427 94.5391 46.6406 93.7708 46.6406 92.7969C46.6406 90.724 45.901 89.6875 44.4219 89.6875C43.7448 89.6875 43.2031 89.9635 42.7969 90.5156C42.3958 91.0677 42.1953 91.8281 42.1953 92.7969ZM46.1719 84.3594L44.4062 86.9609H43.3125L44.6328 84.3594H46.1719ZM52.0625 85.4688C52.3177 85.4688 52.5339 85.5599 52.7109 85.7422C52.8932 85.9193 52.9844 86.1328 52.9844 86.3828C52.9844 86.638 52.8932 86.8568 52.7109 87.0391C52.5339 87.2161 52.3177 87.3047 52.0625 87.3047C51.8073 87.3047 51.5911 87.2161 51.4141 87.0391C51.237 86.8568 51.1484 86.638 51.1484 86.3828C51.1484 86.1276 51.237 85.9115 51.4141 85.7344C51.5911 85.5573 51.8073 85.4688 52.0625 85.4688ZM48.8594 100.281V98.9531C49.8802 98.9531 50.5781 98.7969 50.9531 98.4844C51.3333 98.1771 51.5234 97.6693 51.5234 96.9609V89.8828H49.8594V88.6328H53.0078V96.9297C53.0078 98.0807 52.6693 98.9271 51.9922 99.4688C51.3151 100.01 50.2708 100.281 48.8594 100.281ZM62.1562 92.5938V97H60.5938V85.5547C61.776 85.5026 62.4896 85.4766 62.7344 85.4766C66.0573 85.4766 67.7188 86.5885 67.7188 88.8125C67.7188 91.3854 66.25 92.6719 63.3125 92.6719C63.1354 92.6719 62.75 92.6458 62.1562 92.5938ZM62.1562 86.9609V91.1875C62.8177 91.2396 63.1667 91.2656 63.2031 91.2656C65.1406 91.2656 66.1094 90.5026 66.1094 88.9766C66.1094 87.5807 65.0755 86.8828 63.0078 86.8828C62.7995 86.8828 62.5156 86.9089 62.1562 86.9609ZM69 96.4766L69.5703 95.0391C69.862 95.2526 70.224 95.4323 70.6562 95.5781C71.0938 95.7188 71.4844 95.7891 71.8281 95.7891C72.4375 95.7891 72.9271 95.6224 73.2969 95.2891C73.6667 94.9557 73.8516 94.5312 73.8516 94.0156C73.8516 93.6302 73.7474 93.2734 73.5391 92.9453C73.3359 92.612 72.8203 92.25 71.9922 91.8594L71.0703 91.4297C70.2891 91.0651 69.7422 90.6328 69.4297 90.1328C69.1224 89.6328 68.9688 89.0312 68.9688 88.3281C68.9688 87.474 69.2708 86.7656 69.875 86.2031C70.4792 85.6406 71.2552 85.3594 72.2031 85.3594C73.4688 85.3594 74.349 85.5651 74.8438 85.9766L74.3828 87.3359C74.1745 87.1849 73.8568 87.0391 73.4297 86.8984C73.0026 86.7578 72.6068 86.6875 72.2422 86.6875C71.7109 86.6875 71.2917 86.8385 70.9844 87.1406C70.6823 87.4427 70.5312 87.8307 70.5312 88.3047C70.5312 88.5964 70.5859 88.862 70.6953 89.1016C70.8047 89.3411 70.9557 89.5417 71.1484 89.7031C71.3464 89.8646 71.7474 90.0911 72.3516 90.3828L73.2891 90.8281C74.0703 91.1979 74.6172 91.6406 74.9297 92.1562C75.2474 92.6667 75.4062 93.3177 75.4062 94.1094C75.4062 94.9688 75.0599 95.6979 74.3672 96.2969C73.6797 96.8958 72.7578 97.1953 71.6016 97.1953C70.5859 97.1953 69.7188 96.9557 69 96.4766ZM76.8281 97V96.6094L81.75 86.9609H76.9062V85.5547H83.8984V85.9453L78.9609 95.5938H84.0703V97H76.8281ZM85.4844 91.1797C85.4844 89.5234 85.8984 88.138 86.7266 87.0234C87.5599 85.9089 88.6823 85.3516 90.0938 85.3516C91.6823 85.3516 92.8984 85.8646 93.7422 86.8906C94.5911 87.9167 95.0156 89.3464 95.0156 91.1797C95.0156 93.0599 94.5911 94.5339 93.7422 95.6016C92.8932 96.6641 91.6771 97.1953 90.0938 97.1953C88.651 97.1953 87.5208 96.6328 86.7031 95.5078C85.8906 94.3828 85.4844 92.9401 85.4844 91.1797ZM87.125 91.1797C87.125 92.4922 87.3828 93.5885 87.8984 94.4688C88.4193 95.349 89.151 95.7891 90.0938 95.7891C91.1615 95.7891 91.974 95.3854 92.5312 94.5781C93.0938 93.7708 93.375 92.638 93.375 91.1797C93.375 88.2318 92.2812 86.7578 90.0938 86.7578C89.125 86.7578 88.388 87.1536 87.8828 87.9453C87.3776 88.737 87.125 89.8151 87.125 91.1797ZM103.125 97L99.8984 91.7344L98.375 93.8984V97H96.8125V85.5547H98.375V91.7812L102.625 85.5547H104.367L100.945 90.5156L104.852 97H103.125Z" fill="white"></path>
<g clip-path="url(#clip0_5454_3421)">
<path d="M60.3876 36.5589C60.5154 36.3464 60.6411 36.1339 60.7667 35.9214C61.3582 34.9448 62.0082 33.9639 62.864 33.0882C63.2973 32.6568 63.7783 32.2425 64.3525 31.9248C64.6341 31.7596 64.9461 31.6308 65.2625 31.5192C65.5853 31.4183 65.9211 31.3432 66.2634 31.3153C66.4346 31.2981 66.6058 31.2981 66.7769 31.2981C66.9438 31.311 67.1236 31.3131 67.2796 31.3389C67.4399 31.3603 67.6002 31.3797 67.7606 31.4161L68.0011 31.4655L68.2416 31.5321C68.8829 31.7102 69.5177 32.0365 70.0507 32.5044C70.3129 32.7426 70.5447 33.0131 70.744 33.305C70.9368 33.599 71.0928 33.9145 71.2163 34.2365C71.3377 34.5606 71.42 34.8933 71.4785 35.2217C71.5413 35.5522 71.5738 35.8978 71.5717 36.2498C71.563 36.7435 71.4763 37.2565 71.2987 37.7415C71.1232 38.2266 70.861 38.6688 70.5685 39.0659C69.9814 39.8622 69.2945 40.5147 68.6424 41.1693C67.2926 42.4893 65.8951 43.6999 64.5821 44.8332C65.3686 44.1743 66.1551 43.5024 66.9373 42.8156C67.3273 42.47 67.7172 42.1245 68.1029 41.7639C68.2957 41.5879 68.4907 41.3968 68.6792 41.2165L69.2404 40.6649C69.613 40.2893 69.99 39.903 70.3432 39.4694C70.6963 39.038 71.0278 38.5529 71.264 37.9927C71.5023 37.4368 71.6193 36.8122 71.6128 36.2133C71.6128 35.9128 71.5782 35.6209 71.5348 35.3312L71.4482 34.9083C71.4135 34.7667 71.3745 34.6228 71.3312 34.4833C71.147 33.9188 70.8697 33.3608 70.4602 32.8886C70.263 32.646 70.0247 32.44 69.782 32.2447C69.5285 32.0644 69.2664 31.8969 68.9869 31.7703C68.4322 31.5084 67.8494 31.3603 67.2753 31.2852C66.9849 31.2423 66.6643 31.2316 66.3566 31.2444C66.0468 31.268 65.7348 31.311 65.438 31.3947C64.8378 31.5557 64.2853 31.8283 63.8065 32.1631C63.3255 32.4958 62.9052 32.8778 62.526 33.2814C61.7742 34.0884 61.1827 34.9641 60.6454 35.8313C60.9509 35.0607 61.3842 34.1378 62.1902 33.1848C62.6864 32.6246 63.2627 32.0901 63.9647 31.6608C64.3157 31.4483 64.697 31.2659 65.1043 31.1285C65.5138 30.9976 65.9428 30.916 66.3739 30.8881C66.8051 30.8624 67.2406 30.9096 67.6111 30.9676C67.9989 31.0384 68.3911 31.1264 68.7767 31.2788C69.548 31.56 70.2912 32.0708 70.8285 32.734C70.7895 32.7641 70.7158 32.8242 70.679 32.8542C71.2467 33.526 71.5803 34.3417 71.7342 35.1144C71.823 35.4986 71.862 35.9107 71.8685 36.3271C71.8577 36.7456 71.8143 37.177 71.6865 37.5849C71.4568 38.4177 70.9867 39.1002 70.5165 39.6776C70.0377 40.255 69.535 40.74 69.0454 41.2187C68.0487 42.191 67.0088 43.0775 65.9753 43.9618C64.7641 44.9813 63.5508 46.003 62.3289 47.0311C61.8067 46.6168 61.2824 46.2026 60.7581 45.7862C60.4114 45.5072 60.0626 45.2281 59.7138 44.947C59.0161 44.3846 58.3141 43.8137 57.61 43.232C57.792 43.4273 57.6468 43.3522 57.5861 43.3393C57.5731 43.3264 57.558 43.3157 57.5471 43.305C57.5601 43.3157 57.5731 43.3286 57.5861 43.3393C58.2708 43.9339 58.9554 44.5112 59.6423 45.0757C59.9867 45.3569 60.3291 45.6359 60.6714 45.915L61.4059 46.5031C61.7157 46.7478 62.0255 46.9925 62.3354 47.2371C63.0568 46.6297 63.7762 46.0244 64.4933 45.4213C65.0025 44.9856 65.5095 44.5499 66.0186 44.1142C67.0283 43.2363 68.0379 42.3584 69.0237 41.3968C69.5004 40.9289 69.9944 40.4481 70.4732 39.8944C70.9498 39.347 71.42 38.6838 71.7147 37.8811C72.0115 37.0762 72.0527 36.179 71.9313 35.387C71.8187 34.6186 71.563 33.7858 71.0668 33.0474C71.5587 33.7729 71.823 34.5971 71.94 35.3591C72.0678 36.1468 72.0332 37.0397 71.7515 37.8532C71.4633 38.6602 70.9975 39.3385 70.523 39.8922C70.0442 40.4546 69.5524 40.9397 69.0757 41.414C68.0921 42.3885 67.0781 43.2749 66.0684 44.1614L64.5453 45.4771L63.7783 46.1296L62.3419 47.3359C61.8154 46.9238 61.2347 46.4644 60.7992 46.1146L59.9434 45.4213C59.3758 44.9555 58.8103 44.4833 58.2491 44.0047C57.1268 43.0345 56.0175 42.0751 54.9429 40.9117C54.6742 40.6263 54.4034 40.2829 54.165 39.9373C53.931 39.581 53.7079 39.2118 53.5346 38.8083C53.1771 38.0141 52.9691 37.1191 52.9799 36.2198C52.9799 35.7712 53.0341 35.3204 53.1381 34.8847C53.2356 34.4447 53.3807 34.0369 53.5692 33.6205C53.957 32.7727 54.5832 32.0171 55.3632 31.4784C55.6188 31.3024 56.0197 31.0641 56.453 30.8946C56.8841 30.7207 57.337 30.6091 57.6425 30.5662C57.7963 30.5447 57.9501 30.5469 58.104 30.5361C58.2556 30.5361 58.4029 30.5426 58.5524 30.5469L58.7756 30.5555C58.8493 30.5619 58.9251 30.5726 58.9988 30.5834C59.1483 30.6048 59.2978 30.6198 59.4451 30.6456C60.0387 30.7615 60.6151 30.9676 61.1394 31.2466C62.1967 31.8111 62.981 32.6589 63.6202 33.4874C63.3645 33.3543 63.4577 33.775 63.306 33.8051C63.2302 33.8222 63.1002 33.7407 62.825 33.4659C62.6842 33.3307 62.5087 33.144 62.266 32.91C62.0212 32.6804 61.7179 32.3906 61.2824 32.103C61.2564 32.1438 61.2022 32.2253 61.1762 32.2661C61.5835 32.5602 61.902 32.895 62.1555 33.217C62.4112 33.5368 62.604 33.848 62.7535 34.1249C63.0482 34.6808 63.1933 35.1015 63.2128 35.3183C63.228 35.5329 63.1023 35.5501 62.8163 35.3097C62.5282 35.0757 62.1209 34.5864 61.5034 33.9875C60.8079 33.3157 59.9997 32.8285 59.0421 32.7319C58.9208 32.7276 58.7994 32.7083 58.6759 32.7083C58.5503 32.7104 58.4224 32.7147 58.2946 32.7169C58.052 32.7362 57.8115 32.7812 57.5775 32.8499C57.1051 32.9852 56.6653 33.2384 56.297 33.5733C56.1128 33.7407 55.9503 33.936 55.8138 34.1442C55.6752 34.3588 55.5647 34.5713 55.465 34.8418C55.2635 35.3591 55.179 35.8999 55.1963 36.4387C55.2223 36.9753 55.3567 37.5097 55.6015 38.0141C55.7185 38.2674 55.868 38.5099 56.0305 38.7439C56.1172 38.8598 56.1973 38.9757 56.2927 39.0852L56.4313 39.2526L56.5873 39.42C57.038 39.9072 57.5558 40.3966 58.0845 40.8753C58.6153 41.3518 59.1591 41.8261 59.7094 42.2919C60.2619 42.7598 60.8187 43.2234 61.3777 43.6827L62.2205 44.3717L62.2834 44.4254L62.3007 44.4404C62.3007 44.4404 62.3007 44.4425 62.3007 44.4468C62.3007 44.4468 62.3029 44.4511 62.3072 44.4511C62.3072 44.4511 62.3072 44.4511 62.3094 44.4511C62.3137 44.4468 62.3029 44.4576 62.3202 44.4447L62.357 44.4146L62.4307 44.3545L62.7232 44.1142C63.1132 43.7943 63.5032 43.4724 63.8953 43.1526C64.9375 42.2983 65.9991 41.4076 67.0044 40.4846C67.2536 40.255 67.4941 40.0231 67.7497 39.7763C67.9989 39.5338 68.2416 39.2934 68.4734 39.053C68.9284 38.5722 69.3465 38.0893 69.5979 37.6042C69.86 37.1212 69.9619 36.6297 69.9402 36.0759C69.9359 35.9386 69.912 35.7948 69.899 35.6531C69.8687 35.5093 69.8449 35.3612 69.8124 35.2217C69.7474 34.9448 69.652 34.6872 69.5285 34.4511C69.2837 33.9832 68.9392 33.6033 68.4756 33.3457C68.2437 33.217 67.9967 33.1032 67.7216 33.0281C67.5872 32.9852 67.4443 32.9573 67.3034 32.9251C67.1604 32.9036 67.0066 32.8693 66.8809 32.8628C66.8333 32.8585 66.7834 32.8542 66.7336 32.8499C66.6838 32.8499 66.6318 32.8499 66.5798 32.8521C66.4758 32.8478 66.3696 32.8693 66.2591 32.8778C66.0424 32.9186 65.8128 32.968 65.5875 33.0689C65.1346 33.2556 64.6883 33.5797 64.2983 33.9553C63.5162 34.7087 62.9572 35.6145 62.6474 35.9708C62.2357 36.5138 62.1382 36.4966 62.0884 36.3464C62.4849 35.6638 62.916 35.007 63.4057 34.4189C63.8932 33.8308 64.4521 33.3157 65.0805 32.9723C65.7088 32.6267 66.3999 32.4872 67.0998 32.5731C67.8321 32.6568 68.5232 32.8843 69.0584 33.2985C69.3812 33.5561 69.6499 33.8738 69.847 34.2408C70.042 34.6121 70.1764 35.0156 70.25 35.4535C70.328 35.8849 70.3519 36.3121 70.2912 36.7156C70.2327 37.1191 70.0919 37.5011 69.8795 37.8682C69.4505 38.6022 68.7724 39.2676 68.0769 39.9394C67.7216 40.2807 67.3793 40.6048 67.0174 40.9246C66.6578 41.2466 66.2894 41.5621 65.919 41.8776C66.2851 41.5728 66.6491 41.2659 67.0066 40.9525C67.3663 40.6392 67.7042 40.3236 68.0596 39.9867C68.7486 39.3234 69.4375 38.6645 69.873 37.9261C70.0919 37.557 70.2414 37.1727 70.3042 36.7649C70.3692 36.3571 70.3497 35.9257 70.2739 35.49C70.1287 34.6078 69.7322 33.8137 69.0584 33.3007C68.5276 32.8843 67.8407 32.6503 67.1128 32.558C66.4129 32.4636 65.7218 32.5902 65.087 32.9229C64.4521 33.2513 63.8888 33.7579 63.3927 34.3309C62.8965 34.9062 62.4589 35.5479 62.0559 36.2155C62.0277 36.0674 61.9952 35.9193 61.8132 36.0373C61.8132 36.0373 61.6919 36.2498 61.5424 36.516C61.3929 36.7843 61.2217 37.1084 61.1091 37.3273C60.5501 38.1472 60.2402 38.4005 60.1146 38.3275C59.9889 38.2545 60.0301 37.8789 60.1449 37.3895C60.2164 37.1448 60.2966 36.868 60.3962 36.5589H60.3876Z" fill="white"></path>
<path d="M65.0804 58.7547C65.3838 58.4413 65.6871 58.1279 65.9883 57.8167C68.7334 54.9234 71.3095 51.8648 73.2659 48.3318C74.2301 46.5653 75.0426 44.683 75.5907 42.689C75.7359 42.191 75.8442 41.6845 75.959 41.1758C76.0045 40.9204 76.0522 40.6628 76.0977 40.4052C76.1475 40.1477 76.1714 39.888 76.2082 39.6261C76.3382 38.5829 76.388 37.5205 76.3404 36.4494C76.2602 34.9556 76.0349 33.3801 75.4044 31.9807C75.2462 31.633 75.0642 31.296 74.8541 30.9783C74.6374 30.6585 74.3991 30.3387 74.1412 30.0382C73.6256 29.4308 73.0493 28.8641 72.4296 28.3404C71.186 27.3037 69.7928 26.4172 68.3325 25.8098C66.8679 25.1938 65.3296 24.8676 63.8173 24.7796C65.6091 24.8976 67.3662 25.3462 68.9847 26.1404C70.5945 26.941 72.1068 28.0163 73.3764 29.2977C73.6949 29.6175 73.9939 29.9523 74.2734 30.3001L74.4792 30.5619L74.6721 30.8324C74.8042 31.0127 74.9126 31.1908 75.0231 31.3775C75.4499 32.1245 75.7445 32.9616 75.9439 33.8309C76.0457 34.2644 76.1194 34.7109 76.1757 35.1595C76.2472 35.6059 76.2667 36.0567 76.3057 36.5074C76.3404 37.411 76.323 38.3147 76.2299 39.2161C76.0392 41.0169 75.6059 42.7899 74.9754 44.4876C74.9017 44.7023 74.8194 44.9126 74.7327 45.1208C74.6461 45.3312 74.5637 45.5415 74.4749 45.7476C74.2886 46.1597 74.1109 46.5761 73.9051 46.9775C73.5108 47.7909 73.0688 48.5765 72.5986 49.3449C70.7115 52.4228 68.3412 55.1444 65.8994 57.6922C66.7791 56.5611 67.8407 55.2346 69.0649 53.7042C70.5512 51.8755 71.8966 49.9674 72.9951 47.9605C74.0936 45.9536 74.9321 43.8244 75.4369 41.6437C75.4846 41.6544 75.5777 41.6759 75.6254 41.6845C75.803 40.901 75.907 40.1112 75.9959 39.3277C76.0587 38.54 76.1064 37.7544 76.0695 36.9753C76.0175 35.4235 75.7922 33.8502 75.2592 32.4829C75.1249 32.1417 74.9711 31.8133 74.7934 31.502C74.7024 31.3475 74.6114 31.1994 74.5074 31.0491C74.3969 30.8989 74.2972 30.7444 74.1781 30.5984C73.7188 30.006 73.1944 29.4479 72.6289 28.9285C71.4915 27.8983 70.2023 27.0032 68.8287 26.3292C67.4529 25.6574 65.9709 25.2303 64.437 25.0672C63.67 24.9813 62.89 24.962 62.1035 24.9813C61.3235 25.0049 60.5457 25.0843 59.7787 25.2196C58.2491 25.4943 56.7368 26.0009 55.3892 26.7585C54.0372 27.5119 52.8412 28.5572 51.8684 29.7785C52.1696 29.4501 52.0331 29.6798 51.9984 29.7699C51.9789 29.7935 51.9616 29.8171 51.9442 29.8386C51.9616 29.8171 51.9811 29.7935 51.9984 29.7699C52.9755 28.6001 54.1542 27.6021 55.4715 26.8787C56.7845 26.1511 58.2578 25.6596 59.7462 25.387C60.4937 25.2518 61.252 25.1702 62.0103 25.1423C62.7773 25.1144 63.54 25.1294 64.2896 25.2024C65.7889 25.3419 67.2341 25.7304 68.5882 26.3614C69.938 26.9882 71.2163 27.8403 72.3451 28.8298C72.9106 29.3256 73.4371 29.8579 73.9051 30.4267C74.1304 30.71 74.3579 31.0105 74.5442 31.2981C74.7306 31.5879 74.8931 31.897 75.0339 32.2211C75.6059 33.5132 75.8399 35.0436 75.9309 36.5568C75.9937 38.0764 75.8594 39.6197 75.5452 41.1479C76.0327 38.7804 76.0782 36.3357 75.582 34.0348C75.4542 33.466 75.2896 32.9186 75.0772 32.4014C74.9689 32.1438 74.8497 31.8948 74.7176 31.6587C74.5832 31.4183 74.4446 31.2015 74.2691 30.9676C73.5974 30.0446 72.7524 29.2011 71.8251 28.4585C70.8978 27.718 69.8882 27.0612 68.8309 26.546C67.7757 26.0309 66.6556 25.6596 65.5051 25.4471C64.3525 25.2303 63.1587 25.1745 61.9562 25.2239C60.7667 25.2732 59.5837 25.4535 58.4441 25.7712C57.3044 26.0846 56.1995 26.5439 55.2028 27.1298C55.075 27.1985 54.9537 27.2801 54.8323 27.3595C54.711 27.4411 54.5853 27.5162 54.4683 27.5999C54.2343 27.7738 53.9938 27.9369 53.7707 28.1279C53.3114 28.4885 52.8932 28.8985 52.4924 29.3213C50.8999 31.0363 49.8058 33.202 49.4288 35.5093C49.2338 36.6791 49.1731 37.8983 49.2251 39.1024C49.2533 39.7034 49.3096 40.3043 49.4071 40.8882C49.4959 41.4548 49.6693 42.073 49.8101 42.6761C50.4168 45.0951 51.3506 47.4389 52.5379 49.6647C52.7264 50.0511 53.0644 50.6027 53.3937 51.1586C53.5519 51.4398 53.7382 51.7059 53.9007 51.9549C54.0632 52.2017 54.2127 52.4271 54.3318 52.6074C55.257 54.067 56.323 55.4449 57.4951 56.7328C57.7963 57.0483 58.0801 57.3788 58.3943 57.6815L59.3324 58.5958L60.3117 59.4694C60.6345 59.7635 60.9855 60.0296 61.3214 60.3086C60.9054 60.1262 61.2997 60.6821 61.1264 60.7207C61.0397 60.7401 60.8079 60.6284 60.2575 60.2249C59.7181 59.8085 58.8579 59.0981 57.6143 57.8296C57.5796 57.8639 57.5103 57.9304 57.4756 57.9648C59.9174 60.5726 61.8283 62.1717 62.227 62.7705C62.4307 63.0539 62.2768 63.0904 61.6962 62.7684C61.408 62.6074 61.0072 62.367 60.5024 62.0215C60.2532 61.8433 59.9781 61.6394 59.6726 61.4119C59.5209 61.296 59.3584 61.1801 59.1959 61.047C59.0334 60.9118 58.8644 60.7723 58.6889 60.6263C57.1051 59.302 55.5018 57.718 54.0133 55.8806C52.527 54.0455 51.1556 51.9571 50.0376 49.6776C48.9261 47.396 48.0616 44.9341 47.4788 42.4164L47.3662 41.9442L47.2665 41.4441L47.1863 40.944L47.1213 40.446C47.0433 39.7871 47.0065 39.126 47 38.4692C46.9892 37.1535 47.0888 35.8463 47.3467 34.5477C48.131 30.7293 50.5576 27.3273 53.9028 25.284L54.5398 24.9169L55.1985 24.5864C55.6383 24.3803 56.0846 24.1957 56.5396 24.0283C57.4496 23.6978 58.3856 23.4488 59.3346 23.2792C60.2814 23.1097 61.2434 23.0174 62.1988 23.0024C63.1457 22.9873 64.1076 23.0303 65.0653 23.1698C66.3826 23.3565 67.7021 23.7192 68.9435 24.2537C70.1937 24.7881 71.3593 25.4771 72.4448 26.2777C73.5281 27.0805 74.5464 27.9884 75.4304 29.0552C75.6514 29.3235 75.8659 29.5982 76.0652 29.888C76.271 30.1756 76.466 30.4975 76.6329 30.813C76.9709 31.4527 77.22 32.1202 77.4128 32.7899C77.6013 33.4595 77.74 34.1335 77.8223 34.8032C77.8678 35.138 77.9155 35.4728 77.935 35.8098C77.961 36.1468 77.9913 36.4816 77.9913 36.8186C78.0282 38.1644 77.9177 39.5016 77.6923 40.8045C77.2352 43.4123 76.323 45.8699 75.1552 48.1043C74.7306 48.9178 74.2041 49.8729 73.6039 50.8431C73.0038 51.8154 72.3256 52.8006 71.6496 53.715C70.2977 55.5437 68.95 57.0719 68.2979 57.6986C67.3836 58.6194 67.2687 58.5829 67.3164 58.3619C69.3054 56.1833 71.2141 53.9081 72.8543 51.4419C74.4901 48.9779 75.8312 46.3013 76.674 43.4703C76.9254 42.601 77.155 41.7231 77.3045 40.8259C77.3955 40.3816 77.4388 39.9266 77.5038 39.4758L77.5623 38.7954L77.5905 38.4542L77.6013 38.1129C77.6533 37.2007 77.6013 36.2863 77.519 35.3741C77.4562 34.9191 77.4107 34.464 77.3197 34.0112C77.2352 33.5583 77.1247 33.1054 76.9882 32.6568C76.7174 31.7639 76.323 30.871 75.7662 30.0833C75.2267 29.3084 74.6071 28.6087 73.9333 27.9691C73.2616 27.3273 72.5444 26.7414 71.7818 26.2133C71.0213 25.6832 70.224 25.2045 69.3747 24.801C70.2023 25.2003 70.9845 25.6725 71.732 26.194C72.4795 26.7156 73.1901 27.2908 73.8553 27.924C74.5182 28.5572 75.1422 29.2419 75.6817 30.0103C75.9569 30.3881 76.206 30.813 76.4119 31.2402C76.6177 31.6694 76.7889 32.1116 76.9297 32.5581C77.2113 33.4531 77.3782 34.3653 77.48 35.2775C77.5775 36.1919 77.6273 37.1148 77.584 38.0356C77.5797 38.4971 77.5255 38.9543 77.493 39.4136L77.4042 40.0983L77.3587 40.4417L77.298 40.7808C77.1528 41.6909 76.921 42.586 76.6697 43.4724C75.8182 46.2928 74.4749 48.9414 72.8478 51.369C71.2206 53.8008 69.3314 56.0288 67.3662 58.1644C67.4334 57.9412 67.4919 57.7222 67.1842 57.9197C67.1842 57.9197 66.8831 58.2503 66.5061 58.6624C66.1248 59.0723 65.6676 59.5617 65.3643 59.8901C62.7275 62.3262 63.0958 61.4398 64.1445 59.9824C64.4218 59.6175 64.7338 59.2075 65.0761 58.7568L65.0804 58.7547Z" fill="white"></path>
</g>
<defs>
<clipPath id="clip0_5454_3421">
<rect width="31" height="40" fill="white" transform="translate(47 23)"></rect>
</clipPath>
</defs>
</svg>