<svg width="1159" height="1159" viewBox="0 0 1159 1159" fill="none" xmlns="http://www.w3.org/2000/svg">
<path d="M277.4 905.953C276.52 908.243 275.6 910.643 274.37 913.853C272.53 911.463 270.88 909.683 269.66 907.653C268.58 905.853 267.98 903.763 267.16 901.803C266.67 901.903 266.18 902.003 265.69 902.103C264.69 907.933 263.69 913.753 262.78 919.073C257.64 918.303 252.68 916.973 247.73 917.003C243.41 917.033 241.58 914.733 239.75 911.733C239.19 910.823 238.6 909.923 238.02 909.023C237.53 909.023 237.04 909.023 236.55 909.023C236 911.883 235.45 914.742 234.85 917.862C224.9 914.702 228 904.723 224.38 897.283C221.82 906.293 219.5 914.443 217.19 922.603C216.71 922.603 216.24 922.602 215.76 922.612C215.25 921.352 214.77 920.063 214.2 918.833C213.8 917.953 213.14 916.343 212.81 916.393C206.9 917.363 205.8 911.963 202.69 908.733C201.69 909.853 200.77 910.873 199.24 912.583C196.56 903.613 194.05 895.183 191.54 886.763C190.97 886.763 190.4 886.763 189.84 886.763C189.23 890.953 188.63 895.133 188.02 899.323L186.77 899.233L185.48 895.273C185.09 894.963 184.7 894.653 184.31 894.343C184.1 895.523 183.89 896.712 183.74 897.612C171.79 885.252 168 871.103 167.61 855.473C167.2 839.383 165.83 823.313 165.37 807.223C164.96 792.813 165.08 778.373 165.25 763.953C165.43 748.483 165.63 732.993 166.44 717.543C166.9 708.633 168.93 699.823 169.61 690.913C170.24 682.683 169.87 674.373 170.23 666.113C170.52 659.353 171.35 652.623 171.73 645.873C172.43 633.323 172.9 620.763 173.61 608.223C174.28 596.303 174.93 584.373 175.94 572.473C177.19 557.763 178.77 543.073 180.28 528.383C181.17 519.653 181.93 510.903 183.3 502.243C183.85 498.783 186.26 495.653 187.14 492.193C188.74 485.953 190.31 479.643 191.04 473.263C192.65 459.303 193.13 445.183 195.2 431.303C196.86 420.233 200.19 409.413 202.79 398.473C203.01 397.563 203.29 396.663 203.92 394.443C200.16 396.893 197.37 398.633 194.66 400.483C182.79 408.593 171.58 417.443 162.68 428.883C162.07 429.663 161.35 430.393 160.58 431.013C150.51 439.153 143.79 449.863 138.62 461.403C130.83 478.813 123.44 496.413 116.58 514.203C113.62 521.883 112.39 530.233 110.27 538.713C109.01 538.173 107.94 537.713 108.19 537.823C105.92 539.703 104.31 541.033 102.05 542.913C101.23 538.893 100.66 536.093 99.87 532.253C96.95 537.023 94.64 540.783 91.53 545.863C90.07 540.703 88.97 536.823 87.66 532.193C84.67 536.553 82.2 540.163 79.7 543.823C72.67 540.553 72.49 534.473 72.19 528.573C71.98 524.333 72.15 520.083 72.15 515.833C71.6 515.793 71.04 515.753 70.49 515.713C70.17 518.853 69.87 521.993 69.53 525.123C69.15 528.543 69.09 532.063 68.23 535.363C67.39 538.553 65.71 541.523 63.9 545.773C62.82 541.853 62.12 539.283 61.2 535.963C59.99 538.623 59.14 540.483 57.75 543.543C54.35 534.523 49.85 527.123 50.76 518.083C50.87 517.013 50.7 515.083 50.21 514.923C46.86 513.823 48.02 511.273 48.05 509.093C48.27 493.183 48.2 477.213 52.82 461.793C56.87 448.283 61.4 434.903 65.68 421.463C65.99 420.483 65.92 419.383 66.03 418.333C65.63 418.153 65.23 417.973 64.84 417.793C63.93 419.113 62.69 420.313 62.18 421.773C57.8 434.333 53.03 446.793 49.45 459.583C47.14 467.843 46.76 476.623 45.26 485.133C44.71 488.273 43.44 491.283 42.53 494.253C37.35 493.273 35.65 490.663 36.85 485.683C34.77 486.483 33.42 487.003 31 487.933C31.41 480.253 31.56 473.173 32.22 466.133C34.78 438.933 45.02 414.363 58.09 390.733C80.22 350.753 112.04 320.733 150.98 297.243C171 285.173 191.1 273.453 212.88 265.113C227.97 259.333 243.75 255.323 259.26 250.643C265.58 248.733 271.95 246.893 278.4 245.473C285.31 243.953 292.3 242.503 299.33 241.863C315.62 240.383 331.96 239.333 348.29 238.243C366.83 236.993 385.04 240.923 403.43 242.103C441.06 244.523 475.84 256.593 507.88 275.833C532.81 290.803 554.26 310.313 569.56 335.323C577.84 348.853 584.34 363.583 590.61 378.213C594.99 388.423 598.18 399.243 600.83 410.053C602.83 418.223 603.32 426.783 604.16 435.203C604.79 441.523 605.28 447.903 605.16 454.243C605 462.653 604.96 471.183 603.46 479.413C600.89 493.523 598.41 507.853 593.69 521.313C588.93 534.873 582.45 548.073 574.97 560.363C566.71 573.933 557.13 586.853 546.89 599.003C535.14 612.933 521.9 625.553 505.91 634.863C502.77 636.693 499.81 638.893 496.96 641.163C494.15 643.403 493.62 646.383 495.07 649.703C501.47 664.273 507.87 678.843 514.27 693.413C517 699.623 519.85 705.783 522.43 712.053C525.72 720.053 531.65 725.823 538.12 731.133C546.34 737.873 554.32 745.003 563.04 751.043C575.32 759.543 588.67 766.213 603.24 769.943C604.85 770.353 608.12 768.903 608.86 767.433C616.65 751.863 623.8 735.963 631.71 720.453C636.15 711.743 641.29 703.303 646.82 695.243C654.23 684.443 662.23 674.033 670.18 663.613C678.24 653.053 686.56 642.693 694.74 632.233C695.03 631.863 695.13 631.363 695.74 629.963C679.76 629.863 664.43 628.313 651.33 619.233C651.43 618.803 651.53 618.373 651.63 617.943C656.17 617.543 660.72 617.143 665.26 616.733C665.25 616.313 665.24 615.883 665.23 615.463C662.44 615.103 659.6 614.933 656.85 614.333C651.94 613.263 647.1 611.873 642.2 610.713C637.55 609.613 637.45 607.333 640.24 604.063C640.62 603.613 640.68 602.883 641.11 601.663C638.83 601.213 636.86 600.813 633.88 600.223C635.35 597.033 636.63 594.243 638.11 591.023H631.81C635.16 582.473 644.3 584.593 650.21 579.663C643.39 578.373 637.34 577.223 631.29 576.073C631.34 575.583 631.38 575.103 631.43 574.613C635.04 573.323 638.64 572.043 642.25 570.753C642.17 570.223 642.09 569.703 642.01 569.173H633.06C634.58 566.293 635.4 563.703 637.06 561.903C638.53 560.313 640.83 559.003 642.96 558.603C650.31 557.233 657.73 556.163 665.15 555.253C681.61 553.223 698.09 551.353 714.56 549.423L714.54 547.893C710.08 547.893 705.6 547.723 701.15 547.923C685.55 548.633 669.96 549.493 654.35 550.203C652.78 550.273 651.18 549.693 649.59 549.413C649.48 548.863 649.38 548.323 649.27 547.773C654.5 546.133 659.63 543.743 664.98 542.983C684.07 540.273 703.2 537.633 722.4 535.913C739.58 534.363 756.89 534.213 774.11 533.053C776.91 532.863 780.32 531.333 782.17 529.273C796.73 513.033 811.28 496.753 825.26 480.013C843.17 458.573 860.53 436.663 878.19 415.013C880.05 412.723 882.32 410.763 885.38 407.663C882.77 407.133 880.91 406.423 879.05 406.433C866.01 406.533 852.96 406.603 839.93 407.053C830.78 407.373 821.66 408.533 812.52 408.883C803.17 409.243 793.79 409.173 784.43 409.083C774.87 408.993 765.3 408.803 755.75 408.363C747.91 408.003 740.09 407.033 732.25 406.693C715.2 405.933 698.13 405.523 681.08 404.693C676.29 404.463 671.44 403.643 666.84 402.323C664.37 401.613 661.08 399.673 660.43 397.583C658.95 392.823 655.55 393.733 652.34 393.373C651.61 393.293 650.9 392.963 650.23 391.753L672.79 390.373C672.92 389.963 673.06 389.553 673.19 389.133C671.64 388.643 670.13 387.923 668.54 387.703C660.73 386.623 652.85 385.923 645.11 384.493C643.52 384.203 641.64 381.523 641.23 379.653C640.25 375.193 634.8 370.253 629.77 370.643C632.87 358.193 644.15 359.403 653.85 356.463C646.97 350.483 637.97 356.153 632.19 350.153C631.18 343.453 638.8 343.883 642.13 340.103C637.89 338.423 634.41 337.043 630.93 335.673C631 335.163 631.07 334.663 631.14 334.153C632.42 333.503 633.76 332.953 634.95 332.173C638.22 330.013 642.18 328.363 640.34 322.933C640.01 321.953 641.78 319.453 643.12 318.843C648.54 316.393 654.02 313.743 659.77 312.393C668.01 310.463 676.51 309.643 684.88 308.243C686.2 308.023 687.43 307.283 688.71 306.793C688.62 306.383 688.53 305.983 688.44 305.573H649.6C652.49 303.693 654.54 301.993 656.88 300.903C665.68 296.813 674.88 294.473 684.64 293.513C699.95 292.013 715.14 289.203 730.46 287.713C745.18 286.283 759.99 285.713 774.77 284.963C793.36 284.023 811.96 283.243 830.56 282.473C847.68 281.763 864.8 280.613 881.91 280.673C898.16 280.723 914.42 281.843 930.65 282.923C942.66 283.723 954.61 285.413 966.62 286.323C973.43 286.843 980.31 286.503 987.15 286.753C988.24 286.793 989.69 287.663 990.3 288.603C992.57 292.083 995.12 293.743 999.13 290.543C999.07 291.123 999.01 291.713 998.95 292.293C1001.24 292.533 1003.53 292.773 1005.82 293.003C1006.63 293.083 1007.54 292.943 1008.24 293.263C1017.33 297.443 1025.83 302.493 1031.31 311.223C1032.33 312.843 1032.02 315.333 1032.22 317.433C1032.55 320.743 1032.58 324.073 1036.62 325.523C1037.56 325.863 1038.05 327.623 1038.63 328.783C1039.62 330.743 1040.51 332.753 1041.87 335.643C1041.62 335.803 1040.28 336.493 1039.2 337.463C1038.49 338.103 1038.18 339.173 1037.69 340.043C1038.65 340.353 1039.92 341.203 1040.52 340.873C1044.48 338.693 1045.69 339.863 1045.17 344.113C1045.06 345.033 1045.95 346.073 1046.38 347.063C1047.32 346.543 1048.37 346.143 1049.18 345.473C1050.76 344.143 1052.2 342.663 1054.03 340.933C1056.61 345.683 1045.68 348.533 1053.98 352.453C1053.52 354.313 1053.08 356.103 1052.64 357.883C1053.04 358.153 1053.43 358.423 1053.83 358.683C1055.75 356.933 1057.68 355.183 1060.72 352.423C1059.7 355.493 1059.23 357.333 1058.5 359.063C1055.68 365.773 1052.56 372.363 1050 379.173C1048.65 382.763 1046.81 386.543 1049.11 390.673C1049.51 391.393 1048.4 393.113 1047.74 394.233C1038.93 409.313 1030.63 424.723 1021.07 439.323C1013.01 451.623 1003.39 462.883 994.64 474.743C982.79 490.783 971.11 506.953 959.36 523.073C957.59 525.503 955.86 527.983 953.35 531.523C960.13 531.523 965.39 531.233 970.6 531.583C983.2 532.423 995.81 533.343 1008.36 534.713C1011.43 535.043 1014.29 537.223 1017.25 538.553C1017.12 538.953 1016.99 539.343 1016.85 539.743H989.12C989.08 540.203 989.04 540.653 989 541.113C1001.12 545.083 1014.81 539.933 1026.43 547.073L1014.71 545.653C1014.51 546.153 1014.31 546.643 1014.11 547.143C1015.39 547.903 1016.6 549.113 1017.97 549.333C1025.53 550.563 1032.18 553.313 1036.67 559.863C1037.55 561.153 1038.83 563.163 1038.39 564.133C1037.77 565.473 1035.79 566.743 1034.23 566.993C1029.71 567.713 1025.1 567.903 1020.53 568.303C1020.38 568.893 1020.22 569.483 1020.07 570.073C1021.93 570.803 1023.74 571.883 1025.67 572.163C1028.62 572.593 1031.76 572.003 1034.61 572.703C1036.89 573.263 1038.86 575.083 1040.97 576.353C1040.76 576.943 1040.55 577.523 1040.34 578.113C1037.78 578.783 1035.21 579.453 1031.58 580.403C1035.2 583.633 1042.36 582.233 1040.59 588.543C1038.88 591.073 1037.8 593.823 1035.8 595.383C1032.27 598.143 1028.4 601.633 1024.28 602.263C1007.34 604.853 990.3 606.923 973.22 608.353C953.51 610.003 933.72 610.803 913.96 611.943C905.34 612.443 896.7 612.823 888.08 613.323C886.72 613.403 885.37 613.843 884.02 614.113L884.18 616.063C907.5 615.243 930.82 614.433 954.13 613.603C977.39 612.773 1000.56 609.473 1023.86 609.923C1024 610.843 1024.14 611.763 1024.28 612.683C1018.49 613.963 1012.75 615.653 1006.88 616.433C996.3 617.843 985.66 618.823 975.02 619.773C965.78 620.603 956.52 621.283 947.25 621.773C931.39 622.623 915.52 623.243 899.66 624.023C892.95 624.353 886.25 624.863 879.54 625.243C873.94 625.563 870.02 628.523 866.7 632.813C845.78 659.773 824.63 686.543 803.92 713.663C795.16 725.133 787.28 737.273 779.05 749.143C778.25 750.303 777.85 751.733 776.7 754.283C780.57 754.023 783.38 753.763 786.21 753.673C789.64 753.573 793.08 753.473 796.51 753.643C801.26 753.863 805.99 754.493 810.74 754.663C817.34 754.893 823.95 755.103 830.55 754.893C843.14 754.493 855.71 753.663 868.29 753.243C882.78 752.753 897.29 752.603 911.78 752.133C922.54 751.783 933.28 750.923 944.04 750.743C953.42 750.593 962.82 751.153 972.21 751.263C977.84 751.333 983.48 750.883 989.1 751.103C1000.33 751.533 1011.58 752.003 1022.77 752.993C1028.48 753.493 1034.19 754.793 1039.71 756.383C1044.3 757.703 1044.2 758.163 1043.29 762.983C1046.43 763.693 1049.6 764.423 1052.77 765.143C1052.77 765.663 1052.79 766.183 1052.79 766.703H1027.03C1026.96 767.403 1026.88 768.103 1026.81 768.793C1028.35 769.273 1029.85 770.003 1031.42 770.183C1036.71 770.803 1042.03 771.123 1047.31 771.753C1050.34 772.113 1053.78 771.863 1054.63 776.253C1054.78 777.033 1056.98 777.563 1058.32 777.953C1064.83 779.823 1071.37 781.603 1077.56 783.323C1075.97 786.563 1074.89 788.753 1073.81 790.953C1076.3 791.333 1078.8 791.703 1081.05 792.043C1079.85 795.403 1078.75 798.483 1077.31 802.523C1079.24 801.923 1080.08 801.413 1080.89 801.453C1082.17 801.523 1084.06 801.573 1084.56 802.353C1085.18 803.333 1085.23 805.713 1084.53 806.313C1082.74 807.823 1080.3 808.523 1078.31 809.833C1076.91 810.753 1074.56 812.503 1074.78 813.273C1076.49 819.263 1072.12 819.843 1068.39 821.043C1065.31 822.033 1062.19 822.932 1059.09 823.872C1059.17 824.492 1059.24 825.113 1059.32 825.723C1062.59 825.483 1065.89 825.433 1069.13 824.973C1075.21 824.103 1080.48 824.813 1083.41 831.233C1080.79 837.953 1073.05 833.773 1068.64 837.913C1074.97 839.963 1080.89 841.893 1088.22 844.273C1084.74 847.063 1082.26 849.043 1079.53 851.233C1079.78 852.163 1080.1 853.363 1080.58 855.163C1078.44 854.833 1076.76 854.573 1074.8 854.273C1073.05 860.733 1066.69 860.273 1062.34 861.063C1043.86 864.433 1025.2 866.813 1006.58 869.403C1000.21 870.293 993.78 870.733 987.37 871.383C987.35 871.903 987.33 872.423 987.32 872.943C989.29 873.173 991.29 873.693 993.24 873.583C1010.36 872.623 1027.46 871.303 1044.58 870.643C1049.71 870.443 1054.9 871.993 1060.06 872.733C1060.23 873.333 1060.39 873.943 1060.56 874.543C1054.8 877.133 1049.26 880.613 1043.23 882.133C1028.26 885.903 1013.14 888.713 997.5 888.803C985.8 888.873 974.12 890.773 962.42 891.583C948.87 892.523 935.3 893.243 921.73 893.913C907.31 894.623 892.89 895.253 878.46 895.753C867.37 896.143 856.27 896.163 845.19 896.583C826.2 897.303 807.22 898.293 788.22 898.983C773.15 899.533 758.06 899.763 742.98 900.223C734.2 900.493 725.42 901.203 716.65 901.233C708.35 901.263 700.01 901.103 691.77 900.223C681.74 899.143 671.96 899.633 661.98 901.053C651.47 902.553 640.75 903.073 630.12 903.043C610.11 902.983 589.93 903.663 570.12 901.403C541.06 898.093 513.53 888.873 488.03 873.983C455.35 854.913 429.92 828.543 409.76 796.913C398.58 779.373 387.57 761.673 377.54 743.463C371.06 731.693 366.82 718.713 360.98 706.563C356.96 698.193 351.94 690.313 347.31 682.243C346.93 681.583 346.12 680.743 345.5 680.733C339.62 680.643 333.74 680.673 327.87 680.753C321.59 680.843 315.29 681.373 309.04 681.063C302.37 680.733 302.58 680.403 302.59 687.103C302.62 700.403 302.17 713.713 302.38 727.013C302.64 743.853 303.5 760.683 303.84 777.523C304.06 788.183 303.8 798.863 303.74 809.533C303.69 818.913 304.09 828.333 303.44 837.673C302.75 847.583 302.11 857.733 299.48 867.223C296.89 876.553 291.8 885.193 287.87 894.153C287.5 894.993 287.43 896.023 287.43 896.973C287.48 904.153 284.6 906.913 277.44 906.013L277.4 905.953ZM347.55 479.693C347.36 479.953 347.16 480.223 346.97 480.483C346.38 480.273 345.77 480.113 345.2 479.863C318.96 468.373 291.77 463.573 263.95 472.123C243.04 478.553 229.08 493.163 225.88 515.383C222.62 538.003 234.63 553.753 252.67 565.043C281.96 583.373 313.42 582.313 345.25 573.203C353.08 570.963 360.5 567.293 368.11 564.273C368.59 564.753 369.07 565.223 369.55 565.703C368.06 566.483 366.3 566.983 365.14 568.103C355.61 577.313 347.32 587.473 342.05 599.783C339.76 605.133 336.58 611.043 341.37 616.133C346.59 621.693 352.76 618.663 358.42 615.923C373.25 608.743 385.06 597.543 396.07 585.793C410.85 570.013 424.54 553.213 438.79 536.933C445.25 529.553 451.34 521.463 460.99 518.013C476.77 512.383 481.76 500.103 482.82 484.883C482.95 483.023 484.4 480.473 485.98 479.613C501.37 471.253 516.85 463.013 534.85 461.763C535.68 461.703 536.61 461.733 537.3 461.353C538.52 460.683 539.58 459.723 540.71 458.883C539.76 457.663 539.04 455.833 537.8 455.363C535.54 454.493 532.88 453.803 530.54 454.143C525.3 454.893 519.68 455.353 515.08 457.653C503.95 463.213 493.36 469.833 482.45 475.843C480.69 476.813 478.39 476.793 476.34 477.233C476.64 475.283 476.47 473.103 477.32 471.433C486.84 452.493 495.51 433.233 500.42 412.503C501.13 409.483 501.25 406.203 500.93 403.113C500.76 401.483 499.06 400.013 498.06 398.463C496.84 399.673 495.15 400.673 494.52 402.143C493.34 404.863 492.4 407.803 492.02 410.743C489.11 432.773 479.52 452.413 470.22 472.153C469.41 473.873 468.11 475.803 466.51 476.653C460.26 479.963 453.8 482.883 447.89 485.713C447.82 486.553 447.79 486.223 447.89 485.933C459.81 449.843 465.77 413.203 458.17 375.283C454.24 355.703 448.98 336.673 436.05 320.773C427.11 309.793 416.48 301.813 401.54 301.383C386.52 300.953 373.84 306.923 362.72 316.183C344.13 331.653 330.35 351.083 319.48 372.473C313.15 384.943 309.92 398.413 311.94 412.653C314.37 429.763 322.2 444.513 332.1 458.333C337.23 465.493 342.43 472.583 347.6 479.713L347.55 479.693ZM835.87 628.063C835.6 627.583 835.33 627.103 835.06 626.623C833.55 627.493 831.67 628.053 830.58 629.293C823.27 637.693 815.82 646.003 808.99 654.783C797.76 669.233 786.96 684.023 776 698.683C773.62 701.863 771.34 705.123 769.01 708.343C769.49 708.693 769.97 709.043 770.44 709.393C792.25 682.283 814.05 655.173 835.86 628.063H835.87ZM684.18 698.013L685.17 698.593C685.82 697.903 686.54 697.283 687.1 696.533C698.47 681.203 709.72 665.783 721.23 650.543C725.32 645.123 730.07 640.203 734.36 634.923C735.13 633.983 735.11 632.413 735.46 631.123C734.11 631.243 732.52 630.943 731.47 631.563C729.8 632.553 728.19 633.943 727.07 635.533C713.11 655.313 699.24 675.153 685.38 695.013C684.78 695.873 684.57 697.003 684.18 698.003V698.013ZM819.29 296.863C813.89 293.493 718.4 299.813 712.44 304.433C747.67 301.943 782.9 299.443 819.29 296.863ZM533.1 880.122C502.62 866.062 475.58 848.393 451.97 825.673C459.03 841.433 519.68 882.492 533.1 880.122ZM585.44 418.333C590.69 449.043 587.6 479.273 580.19 509.263C591.45 479.493 593.14 449.173 585.44 418.333ZM859.09 482.073C858.64 481.693 858.19 481.313 857.74 480.923C843.36 497.913 828.98 514.913 814.59 531.903C819.37 532.073 856.78 488.483 859.09 482.063V482.073ZM286.14 877.112C286.68 877.142 287.21 877.173 287.75 877.203C291.44 857.413 291.6 837.403 290.86 817.223C289.51 817.723 288.37 818.363 288.34 819.043C287.54 838.393 286.85 857.752 286.14 877.112ZM910.18 530.983C916.54 530.293 940.73 499.163 942.25 491.223C931.5 504.553 921.24 517.263 910.18 530.983ZM527.35 741.983C518.5 726.853 509.76 711.903 501.02 696.963C500.6 697.233 500.18 697.493 499.76 697.763C508.21 712.903 512.53 730.613 527.35 741.993V741.983ZM177.79 304.113L176.75 302.543C161.21 311.633 146.38 321.723 133.45 334.473C148.23 324.353 163.01 314.233 177.78 304.113H177.79ZM420.42 787.853C420.98 787.503 421.55 787.143 422.11 786.793C416.21 777.543 410.32 768.303 404.42 759.053C403.79 759.453 403.15 759.843 402.52 760.243C407.27 770.213 413.86 779.023 420.41 787.853H420.42ZM840.43 488.233C839.79 487.673 839.15 487.103 838.51 486.543C832.37 493.293 826.23 500.043 820.09 506.803L822.05 508.563C828.18 501.783 834.31 495.013 840.44 488.233H840.43ZM998.31 769.133C998.26 768.723 998.2 768.323 998.15 767.913H973.91C973.94 768.323 973.98 768.723 974.01 769.133H998.31ZM580.81 513.283C580.16 513.013 579.51 512.743 578.86 512.463L567.01 542.313C567.53 542.523 568.06 542.743 568.58 542.953C572.65 533.063 576.73 523.173 580.8 513.273L580.81 513.283ZM291.04 738.873C290.49 738.923 289.93 738.973 289.38 739.023V756.553H291.04V738.863V738.873ZM848.55 636.613C852.98 634.263 856.62 632.423 860.13 630.363C860.78 629.983 861.35 628.573 861.14 627.893C860.95 627.253 859.69 626.563 858.87 626.543C856.41 626.473 849.73 632.663 848.54 636.613H848.55ZM880.82 764.463C880.85 763.983 880.88 763.513 880.91 763.033C873.82 760.633 866.53 761.263 859.25 761.753C859.22 762.243 859.18 762.733 859.15 763.213C866.37 763.633 873.59 764.043 880.81 764.463H880.82ZM800.32 529.293C800.89 529.843 801.46 530.393 802.04 530.943C806.36 526.303 810.68 521.663 815 517.033L815.3 517.453L800.32 529.303V529.293ZM691.54 304.533C696.11 307.713 701.72 306.603 703.99 302.913C699.58 303.483 695.56 304.013 691.54 304.533ZM581.42 404.213C582.25 408.393 583 412.133 583.88 416.533C587.43 410.533 586.8 407.613 581.42 404.213ZM891.23 761.423C891.17 761.953 891.12 762.473 891.06 763.003H904.02C904.01 762.473 904 761.953 903.98 761.423H891.22H891.23ZM1062.01 786.913C1059.05 780.863 1055.88 779.373 1050.63 781.163C1054.46 783.093 1057.65 784.713 1062.01 786.913ZM183.28 832.413C182.44 832.563 181.6 832.712 180.75 832.862C181.52 836.712 182.29 840.573 183.07 844.423C183.75 844.293 184.43 844.163 185.1 844.033C184.49 840.163 183.89 836.283 183.28 832.413ZM565.23 358.703C564.55 359.063 563.88 359.423 563.2 359.783C565.12 363.253 567.03 366.723 568.95 370.203C569.52 369.883 570.09 369.563 570.67 369.243C568.86 365.733 567.04 362.223 565.23 358.703ZM692.91 615.843C693.02 616.663 693.14 617.493 693.25 618.313C696.49 618.013 699.74 617.723 702.98 617.423C702.88 616.573 702.79 615.713 702.69 614.863C699.43 615.183 696.17 615.513 692.91 615.833V615.843ZM254.67 271.983C254.86 272.563 255.05 273.133 255.24 273.713C259.26 272.493 263.28 271.273 267.3 270.063C267.07 269.363 266.84 268.663 266.61 267.963C262.63 269.303 258.65 270.653 254.67 271.993V271.983ZM842.37 296.003C842.32 295.433 842.26 294.853 842.21 294.283C838.4 294.513 834.59 294.733 830.78 294.963C830.86 295.763 830.94 296.573 831.02 297.373C834.81 296.913 838.59 296.463 842.38 296.003H842.37ZM820.99 518.933C820.56 518.533 820.13 518.133 819.7 517.723L809.96 528.753C810.39 529.133 810.82 529.513 811.26 529.883C814.51 526.233 817.75 522.573 821 518.923L820.99 518.933ZM197.77 294.053C197.5 293.543 197.23 293.033 196.96 292.523C193.68 294.273 190.41 296.013 187.13 297.763C187.46 298.363 187.78 298.973 188.11 299.573C191.33 297.733 194.55 295.893 197.77 294.053ZM724.83 546.973C724.88 547.563 724.93 548.163 724.98 548.753C729.23 548.353 733.47 547.943 737.72 547.543L737.6 546.213C733.34 546.473 729.09 546.723 724.83 546.983V546.973Z" fill="#C52B35"></path>
<path d="M415.5 518.5C388.479 543.215 348 577.5 329 589.5L325 640C355.167 631 416.3 612.5 419.5 610.5C423.5 608 504 546.5 513 540.5C520.2 535.7 537 498.833 544.5 481C541.5 458.5 534.7 411.8 531.5 405C528.3 398.2 509.167 382.5 500 375.5L479.5 431C468 448.5 456.5 481 415.5 518.5Z" fill="#C52B35"></path>
</svg>